<svg width="18" height="21" viewBox="0 0 18 21" fill="none" xmlns="http://www.w3.org/2000/svg">
<path d="M9.51005 0C5.19005 0 0.930054 2.88 0.930054 7.53C0.930054 10.485 2.59505 12.18 3.60005 12.18C4.02005 12.18 4.26005 11.025 4.26005 10.695C4.26005 10.305 3.27005 9.465 3.27005 7.845C3.27005 4.455 5.85005 2.07 9.18005 2.07C12.0451 2.07 14.1601 3.705 14.1601 6.69C14.1601 8.925 13.2601 13.11 10.3651 13.11C9.31505 13.11 8.41505 12.36 8.41505 11.265C8.41505 9.675 9.52505 8.13 9.52505 6.495C9.52505 3.705 5.58005 4.215 5.58005 7.575C5.58005 8.28 5.67005 9.06 5.98505 9.705C5.40005 12.21 4.21505 15.93 4.21505 18.51C4.21505 19.305 4.33505 20.085 4.41005 20.88C4.56005 21.045 4.48505 21.03 4.69505 20.94C6.81005 18.03 6.73505 17.475 7.69505 13.665C8.22005 14.655 9.55505 15.18 10.6051 15.18C15.0751 15.18 17.0851 10.83 17.0851 6.9C17.0851 2.715 13.4701 0 9.51005 0Z" fill="#040B24"/>
</svg>
