<svg width="20" height="17" viewBox="0 0 20 17" fill="none" xmlns="http://www.w3.org/2000/svg">
<path fill-rule="evenodd" clip-rule="evenodd" d="M20 2.39211C19.251 2.72 18.4573 2.93403 17.645 3.02711C18.4965 2.52536 19.1363 1.73094 19.445 0.792111C18.6381 1.26343 17.7574 1.59509 16.84 1.77311C16.4536 1.36976 15.9894 1.04897 15.4755 0.830168C14.9615 0.611361 14.4086 0.499079 13.85 0.500112C12.7709 0.492124 11.7328 0.913012 10.964 1.67023C10.1951 2.42746 9.75846 3.45902 9.75 4.53811C9.75 4.84878 9.785 5.15511 9.855 5.45711C8.22949 5.37991 6.63797 4.96446 5.18212 4.23731C3.72628 3.51016 2.43813 2.48731 1.4 1.23411C0.876221 2.12319 0.715718 3.18008 0.951937 4.18457C1.18816 5.18906 1.80288 6.06366 2.668 6.62611C2.01798 6.60562 1.3816 6.43446 0.809 6.12611V6.17611C0.815364 7.11472 1.14675 8.02213 1.74676 8.74393C2.34678 9.46574 3.17836 9.95735 4.1 10.1351C3.49431 10.2967 2.86014 10.3206 2.244 10.2051C2.51357 11.0119 3.02684 11.7152 3.71302 12.218C4.39919 12.7207 5.22446 12.9982 6.075 13.0121C4.34557 14.3404 2.16557 14.9404 0 14.6841C1.88211 15.8743 4.06413 16.5042 6.291 16.5001C7.8157 16.5231 9.32973 16.2425 10.745 15.6749C12.1603 15.1072 13.4485 14.2638 14.5348 13.1936C15.6211 12.1235 16.4836 10.8479 17.0724 9.4413C17.6611 8.03466 17.9642 6.52498 17.964 5.00011C17.964 4.82311 17.964 4.65111 17.952 4.47711C18.7554 3.91204 19.4494 3.20554 20 2.39211Z" fill="#040B24"/>
</svg>
