<svg width="24" height="25" viewBox="0 0 24 25" fill="none" xmlns="http://www.w3.org/2000/svg">
<g clip-path="url(#clip0_1460_25337)">
<rect y="0.5" width="24" height="24" rx="6" fill="#1E1F21"/>
<path d="M1.6 17.5V17.302L5.86 10.216H1.9V8.86H8.362V9.064L4.126 16.138H8.26V17.5H1.6ZM10.7942 17.68C10.3262 17.68 9.93022 17.592 9.60622 17.416C9.28222 17.236 9.03622 16.998 8.86822 16.702C8.70422 16.406 8.62222 16.08 8.62222 15.724C8.62222 15.412 8.67422 15.132 8.77822 14.884C8.88222 14.632 9.04222 14.416 9.25822 14.236C9.47422 14.052 9.75422 13.902 10.0982 13.786C10.3582 13.702 10.6622 13.626 11.0102 13.558C11.3622 13.49 11.7422 13.428 12.1502 13.372C12.5622 13.312 12.9922 13.248 13.4402 13.18L12.9242 13.474C12.9282 13.026 12.8282 12.696 12.6242 12.484C12.4202 12.272 12.0762 12.166 11.5922 12.166C11.3002 12.166 11.0182 12.234 10.7462 12.37C10.4742 12.506 10.2842 12.74 10.1762 13.072L8.85622 12.658C9.01622 12.11 9.32022 11.67 9.76822 11.338C10.2202 11.006 10.8282 10.84 11.5922 10.84C12.1682 10.84 12.6742 10.934 13.1102 11.122C13.5502 11.31 13.8762 11.618 14.0882 12.046C14.2042 12.274 14.2742 12.508 14.2982 12.748C14.3222 12.984 14.3342 13.242 14.3342 13.522V17.5H13.0682V16.096L13.2782 16.324C12.9862 16.792 12.6442 17.136 12.2522 17.356C11.8642 17.572 11.3782 17.68 10.7942 17.68ZM11.0822 16.528C11.4102 16.528 11.6902 16.47 11.9222 16.354C12.1542 16.238 12.3382 16.096 12.4742 15.928C12.6142 15.76 12.7082 15.602 12.7562 15.454C12.8322 15.27 12.8742 15.06 12.8822 14.824C12.8942 14.584 12.9002 14.39 12.9002 14.242L13.3442 14.374C12.9082 14.442 12.5342 14.502 12.2222 14.554C11.9102 14.606 11.6422 14.656 11.4182 14.704C11.1942 14.748 10.9962 14.798 10.8242 14.854C10.6562 14.914 10.5142 14.984 10.3982 15.064C10.2822 15.144 10.1922 15.236 10.1282 15.34C10.0682 15.444 10.0382 15.566 10.0382 15.706C10.0382 15.866 10.0782 16.008 10.1582 16.132C10.2382 16.252 10.3542 16.348 10.5062 16.42C10.6622 16.492 10.8542 16.528 11.0822 16.528ZM15.2015 17.5V8.68H16.6475V17.5H15.2015ZM20.4919 17.68C19.8439 17.68 19.2779 17.534 18.7939 17.242C18.3099 16.95 17.9339 16.548 17.6659 16.036C17.4019 15.52 17.2699 14.928 17.2699 14.26C17.2699 13.58 17.4059 12.984 17.6779 12.472C17.9499 11.96 18.3279 11.56 18.8119 11.272C19.2959 10.984 19.8559 10.84 20.4919 10.84C21.1439 10.84 21.7119 10.986 22.1959 11.278C22.6799 11.57 23.0559 11.974 23.3239 12.49C23.5919 13.002 23.7259 13.592 23.7259 14.26C23.7259 14.932 23.5899 15.526 23.3179 16.042C23.0499 16.554 22.6739 16.956 22.1899 17.248C21.7059 17.536 21.1399 17.68 20.4919 17.68ZM20.4919 16.324C21.0679 16.324 21.4959 16.132 21.7759 15.748C22.0559 15.364 22.1959 14.868 22.1959 14.26C22.1959 13.632 22.0539 13.132 21.7699 12.76C21.4859 12.384 21.0599 12.196 20.4919 12.196C20.1039 12.196 19.7839 12.284 19.5319 12.46C19.2839 12.632 19.0999 12.874 18.9799 13.186C18.8599 13.494 18.7999 13.852 18.7999 14.26C18.7999 14.888 18.9419 15.39 19.2259 15.766C19.5139 16.138 19.9359 16.324 20.4919 16.324Z" fill="white"/>
</g>
<defs>
<clipPath id="clip0_1460_25337">
<rect width="24" height="24" fill="white" transform="translate(0 0.5)"/>
</clipPath>
</defs>
</svg>
