<svg width="162" height="162" viewBox="0 0 162 162" fill="none" xmlns="http://www.w3.org/2000/svg">
<g opacity="0.3" clip-path="url(#clip0_2731_6084)">
<path d="M2.9778 5.9556C4.62239 5.9556 5.9556 4.62239 5.9556 2.9778C5.9556 1.33321 4.62239 0 2.9778 0C1.33321 0 0 1.33321 0 2.9778C0 4.62239 1.33321 5.9556 2.9778 5.9556Z" fill="#F66600"/>
<path d="M2.9778 31.9126C4.62239 31.9126 5.9556 30.5794 5.9556 28.9348C5.9556 27.2902 4.62239 25.957 2.9778 25.957C1.33321 25.957 0 27.2902 0 28.9348C0 30.5794 1.33321 31.9126 2.9778 31.9126Z" fill="#F66600"/>
<path d="M2.9778 83.8228C4.62239 83.8228 5.9556 82.4896 5.9556 80.845C5.9556 79.2004 4.62239 77.8672 2.9778 77.8672C1.33321 77.8672 0 79.2004 0 80.845C0 82.4896 1.33321 83.8228 2.9778 83.8228Z" fill="#F66600"/>
<path d="M2.9778 135.733C4.62239 135.733 5.9556 134.4 5.9556 132.755C5.9556 131.111 4.62239 129.777 2.9778 129.777C1.33321 129.777 0 131.111 0 132.755C0 134.4 1.33321 135.733 2.9778 135.733Z" fill="#F66600"/>
<path d="M2.9778 161.69C4.62239 161.69 5.9556 160.357 5.9556 158.712C5.9556 157.068 4.62239 155.734 2.9778 155.734C1.33321 155.734 0 157.068 0 158.712C0 160.357 1.33321 161.69 2.9778 161.69Z" fill="#F66600"/>
<path d="M2.9778 57.8658C4.62239 57.8658 5.9556 56.5326 5.9556 54.888C5.9556 53.2434 4.62239 51.9102 2.9778 51.9102C1.33321 51.9102 0 53.2434 0 54.888C0 56.5326 1.33321 57.8658 2.9778 57.8658Z" fill="#F66600"/>
<path d="M2.9778 109.776C4.62239 109.776 5.9556 108.443 5.9556 106.798C5.9556 105.154 4.62239 103.82 2.9778 103.82C1.33321 103.82 0 105.154 0 106.798C0 108.443 1.33321 109.776 2.9778 109.776Z" fill="#F66600"/>
<path d="M28.9334 5.9556C30.578 5.9556 31.9112 4.62239 31.9112 2.9778C31.9112 1.33321 30.578 0 28.9334 0C27.2888 0 25.9556 1.33321 25.9556 2.9778C25.9556 4.62239 27.2888 5.9556 28.9334 5.9556Z" fill="#F66600"/>
<path d="M28.9334 31.9126C30.578 31.9126 31.9112 30.5794 31.9112 28.9348C31.9112 27.2902 30.578 25.957 28.9334 25.957C27.2888 25.957 25.9556 27.2902 25.9556 28.9348C25.9556 30.5794 27.2888 31.9126 28.9334 31.9126Z" fill="#F66600"/>
<path d="M28.9334 83.8228C30.578 83.8228 31.9112 82.4896 31.9112 80.845C31.9112 79.2004 30.578 77.8672 28.9334 77.8672C27.2888 77.8672 25.9556 79.2004 25.9556 80.845C25.9556 82.4896 27.2888 83.8228 28.9334 83.8228Z" fill="#F66600"/>
<path d="M28.9334 135.733C30.578 135.733 31.9112 134.4 31.9112 132.755C31.9112 131.111 30.578 129.777 28.9334 129.777C27.2888 129.777 25.9556 131.111 25.9556 132.755C25.9556 134.4 27.2888 135.733 28.9334 135.733Z" fill="#F66600"/>
<path d="M28.9334 161.69C30.578 161.69 31.9112 160.357 31.9112 158.712C31.9112 157.068 30.578 155.734 28.9334 155.734C27.2888 155.734 25.9556 157.068 25.9556 158.712C25.9556 160.357 27.2888 161.69 28.9334 161.69Z" fill="#F66600"/>
<path d="M28.9334 57.8658C30.578 57.8658 31.9112 56.5326 31.9112 54.888C31.9112 53.2434 30.578 51.9102 28.9334 51.9102C27.2888 51.9102 25.9556 53.2434 25.9556 54.888C25.9556 56.5326 27.2888 57.8658 28.9334 57.8658Z" fill="#F66600"/>
<path d="M28.9334 109.776C30.578 109.776 31.9112 108.443 31.9112 106.798C31.9112 105.154 30.578 103.82 28.9334 103.82C27.2888 103.82 25.9556 105.154 25.9556 106.798C25.9556 108.443 27.2888 109.776 28.9334 109.776Z" fill="#F66600"/>
<path d="M54.8889 5.9556C56.5335 5.9556 57.8667 4.62239 57.8667 2.9778C57.8667 1.33321 56.5335 0 54.8889 0C53.2443 0 51.9111 1.33321 51.9111 2.9778C51.9111 4.62239 53.2443 5.9556 54.8889 5.9556Z" fill="#F66600"/>
<path d="M54.8889 31.9126C56.5335 31.9126 57.8667 30.5794 57.8667 28.9348C57.8667 27.2902 56.5335 25.957 54.8889 25.957C53.2443 25.957 51.9111 27.2902 51.9111 28.9348C51.9111 30.5794 53.2443 31.9126 54.8889 31.9126Z" fill="#F66600"/>
<path d="M54.8889 83.8228C56.5335 83.8228 57.8667 82.4896 57.8667 80.845C57.8667 79.2004 56.5335 77.8672 54.8889 77.8672C53.2443 77.8672 51.9111 79.2004 51.9111 80.845C51.9111 82.4896 53.2443 83.8228 54.8889 83.8228Z" fill="#F66600"/>
<path d="M54.8889 135.733C56.5335 135.733 57.8667 134.4 57.8667 132.755C57.8667 131.111 56.5335 129.777 54.8889 129.777C53.2443 129.777 51.9111 131.111 51.9111 132.755C51.9111 134.4 53.2443 135.733 54.8889 135.733Z" fill="#F66600"/>
<path d="M54.8889 161.69C56.5335 161.69 57.8667 160.357 57.8667 158.712C57.8667 157.068 56.5335 155.734 54.8889 155.734C53.2443 155.734 51.9111 157.068 51.9111 158.712C51.9111 160.357 53.2443 161.69 54.8889 161.69Z" fill="#F66600"/>
<path d="M54.8889 57.8658C56.5335 57.8658 57.8667 56.5326 57.8667 54.888C57.8667 53.2434 56.5335 51.9102 54.8889 51.9102C53.2443 51.9102 51.9111 53.2434 51.9111 54.888C51.9111 56.5326 53.2443 57.8658 54.8889 57.8658Z" fill="#F66600"/>
<path d="M54.8889 109.776C56.5335 109.776 57.8667 108.443 57.8667 106.798C57.8667 105.154 56.5335 103.82 54.8889 103.82C53.2443 103.82 51.9111 105.154 51.9111 106.798C51.9111 108.443 53.2443 109.776 54.8889 109.776Z" fill="#F66600"/>
<path d="M80.8445 5.9556C82.4891 5.9556 83.8223 4.62239 83.8223 2.9778C83.8223 1.33321 82.4891 0 80.8445 0C79.1999 0 77.8667 1.33321 77.8667 2.9778C77.8667 4.62239 79.1999 5.9556 80.8445 5.9556Z" fill="#F66600"/>
<path d="M80.8445 31.9126C82.4891 31.9126 83.8223 30.5794 83.8223 28.9348C83.8223 27.2902 82.4891 25.957 80.8445 25.957C79.1999 25.957 77.8667 27.2902 77.8667 28.9348C77.8667 30.5794 79.1999 31.9126 80.8445 31.9126Z" fill="#F66600"/>
<path d="M80.8445 83.8228C82.4891 83.8228 83.8223 82.4896 83.8223 80.845C83.8223 79.2004 82.4891 77.8672 80.8445 77.8672C79.1999 77.8672 77.8667 79.2004 77.8667 80.845C77.8667 82.4896 79.1999 83.8228 80.8445 83.8228Z" fill="#F66600"/>
<path d="M80.8445 135.733C82.4891 135.733 83.8223 134.4 83.8223 132.755C83.8223 131.111 82.4891 129.777 80.8445 129.777C79.1999 129.777 77.8667 131.111 77.8667 132.755C77.8667 134.4 79.1999 135.733 80.8445 135.733Z" fill="#F66600"/>
<path d="M80.8445 161.69C82.4891 161.69 83.8223 160.357 83.8223 158.712C83.8223 157.068 82.4891 155.734 80.8445 155.734C79.1999 155.734 77.8667 157.068 77.8667 158.712C77.8667 160.357 79.1999 161.69 80.8445 161.69Z" fill="#F66600"/>
<path d="M80.8445 57.8658C82.4891 57.8658 83.8223 56.5326 83.8223 54.888C83.8223 53.2434 82.4891 51.9102 80.8445 51.9102C79.1999 51.9102 77.8667 53.2434 77.8667 54.888C77.8667 56.5326 79.1999 57.8658 80.8445 57.8658Z" fill="#F66600"/>
<path d="M80.8445 109.776C82.4891 109.776 83.8223 108.443 83.8223 106.798C83.8223 105.154 82.4891 103.82 80.8445 103.82C79.1999 103.82 77.8667 105.154 77.8667 106.798C77.8667 108.443 79.1999 109.776 80.8445 109.776Z" fill="#F66600"/>
<path d="M106.8 5.9556C108.445 5.9556 109.778 4.62239 109.778 2.9778C109.778 1.33321 108.445 0 106.8 0C105.155 0 103.822 1.33321 103.822 2.9778C103.822 4.62239 105.155 5.9556 106.8 5.9556Z" fill="#F66600"/>
<path d="M106.8 31.9126C108.445 31.9126 109.778 30.5794 109.778 28.9348C109.778 27.2902 108.445 25.957 106.8 25.957C105.155 25.957 103.822 27.2902 103.822 28.9348C103.822 30.5794 105.155 31.9126 106.8 31.9126Z" fill="#F66600"/>
<path d="M106.8 83.8228C108.445 83.8228 109.778 82.4896 109.778 80.845C109.778 79.2004 108.445 77.8672 106.8 77.8672C105.155 77.8672 103.822 79.2004 103.822 80.845C103.822 82.4896 105.155 83.8228 106.8 83.8228Z" fill="#F66600"/>
<path d="M106.8 135.733C108.445 135.733 109.778 134.4 109.778 132.755C109.778 131.111 108.445 129.777 106.8 129.777C105.155 129.777 103.822 131.111 103.822 132.755C103.822 134.4 105.155 135.733 106.8 135.733Z" fill="#F66600"/>
<path d="M106.8 161.69C108.445 161.69 109.778 160.357 109.778 158.712C109.778 157.068 108.445 155.734 106.8 155.734C105.155 155.734 103.822 157.068 103.822 158.712C103.822 160.357 105.155 161.69 106.8 161.69Z" fill="#F66600"/>
<path d="M106.8 57.8658C108.445 57.8658 109.778 56.5326 109.778 54.888C109.778 53.2434 108.445 51.9102 106.8 51.9102C105.155 51.9102 103.822 53.2434 103.822 54.888C103.822 56.5326 105.155 57.8658 106.8 57.8658Z" fill="#F66600"/>
<path d="M106.8 109.776C108.445 109.776 109.778 108.443 109.778 106.798C109.778 105.154 108.445 103.82 106.8 103.82C105.155 103.82 103.822 105.154 103.822 106.798C103.822 108.443 105.155 109.776 106.8 109.776Z" fill="#F66600"/>
<path d="M132.756 5.9556C134.401 5.9556 135.734 4.62239 135.734 2.9778C135.734 1.33321 134.401 0 132.756 0C131.111 0 129.778 1.33321 129.778 2.9778C129.778 4.62239 131.111 5.9556 132.756 5.9556Z" fill="#F66600"/>
<path d="M132.756 31.9126C134.401 31.9126 135.734 30.5794 135.734 28.9348C135.734 27.2902 134.401 25.957 132.756 25.957C131.111 25.957 129.778 27.2902 129.778 28.9348C129.778 30.5794 131.111 31.9126 132.756 31.9126Z" fill="#F66600"/>
<path d="M132.756 83.8228C134.401 83.8228 135.734 82.4896 135.734 80.845C135.734 79.2004 134.401 77.8672 132.756 77.8672C131.111 77.8672 129.778 79.2004 129.778 80.845C129.778 82.4896 131.111 83.8228 132.756 83.8228Z" fill="#F66600"/>
<path d="M132.756 135.733C134.401 135.733 135.734 134.4 135.734 132.755C135.734 131.111 134.401 129.777 132.756 129.777C131.111 129.777 129.778 131.111 129.778 132.755C129.778 134.4 131.111 135.733 132.756 135.733Z" fill="#F66600"/>
<path d="M132.756 161.69C134.401 161.69 135.734 160.357 135.734 158.712C135.734 157.068 134.401 155.734 132.756 155.734C131.111 155.734 129.778 157.068 129.778 158.712C129.778 160.357 131.111 161.69 132.756 161.69Z" fill="#F66600"/>
<path d="M132.756 57.8658C134.401 57.8658 135.734 56.5326 135.734 54.888C135.734 53.2434 134.401 51.9102 132.756 51.9102C131.111 51.9102 129.778 53.2434 129.778 54.888C129.778 56.5326 131.111 57.8658 132.756 57.8658Z" fill="#F66600"/>
<path d="M132.756 109.776C134.401 109.776 135.734 108.443 135.734 106.798C135.734 105.154 134.401 103.82 132.756 103.82C131.111 103.82 129.778 105.154 129.778 106.798C129.778 108.443 131.111 109.776 132.756 109.776Z" fill="#F66600"/>
<path d="M158.711 5.9556C160.356 5.9556 161.689 4.62239 161.689 2.9778C161.689 1.33321 160.356 0 158.711 0C157.066 0 155.733 1.33321 155.733 2.9778C155.733 4.62239 157.066 5.9556 158.711 5.9556Z" fill="#F66600"/>
<path d="M158.711 31.9126C160.356 31.9126 161.689 30.5794 161.689 28.9348C161.689 27.2902 160.356 25.957 158.711 25.957C157.066 25.957 155.733 27.2902 155.733 28.9348C155.733 30.5794 157.066 31.9126 158.711 31.9126Z" fill="#F66600"/>
<path d="M158.711 83.8228C160.356 83.8228 161.689 82.4896 161.689 80.845C161.689 79.2004 160.356 77.8672 158.711 77.8672C157.066 77.8672 155.733 79.2004 155.733 80.845C155.733 82.4896 157.066 83.8228 158.711 83.8228Z" fill="#F66600"/>
<path d="M158.711 135.733C160.356 135.733 161.689 134.4 161.689 132.755C161.689 131.111 160.356 129.777 158.711 129.777C157.066 129.777 155.733 131.111 155.733 132.755C155.733 134.4 157.066 135.733 158.711 135.733Z" fill="#F66600"/>
<path d="M158.711 161.69C160.356 161.69 161.689 160.357 161.689 158.712C161.689 157.068 160.356 155.734 158.711 155.734C157.066 155.734 155.733 157.068 155.733 158.712C155.733 160.357 157.066 161.69 158.711 161.69Z" fill="#F66600"/>
<path d="M158.711 57.8658C160.356 57.8658 161.689 56.5326 161.689 54.888C161.689 53.2434 160.356 51.9102 158.711 51.9102C157.066 51.9102 155.733 53.2434 155.733 54.888C155.733 56.5326 157.066 57.8658 158.711 57.8658Z" fill="#F66600"/>
<path d="M158.711 109.776C160.356 109.776 161.689 108.443 161.689 106.798C161.689 105.154 160.356 103.82 158.711 103.82C157.066 103.82 155.733 105.154 155.733 106.798C155.733 108.443 157.066 109.776 158.711 109.776Z" fill="#F66600"/>
</g>
<defs>
<clipPath id="clip0_2731_6084">
<rect width="162" height="162" fill="white"/>
</clipPath>
</defs>
</svg>
