<svg width="307" height="483" viewBox="0 0 307 483" fill="none" xmlns="http://www.w3.org/2000/svg">
<g opacity="0.55">
<path d="M215.656 -62.8147L272.221 65.1216L324.479 -64.7789L327.6 75.0618L425.718 -25.0906L374.91 105.377L503.962 50.2206L406.952 151.456L547.281 149.696L418.851 206.267L549.104 258.166L408.798 261.484L509.129 359.141L378.317 308.686L433.462 437.246L332.043 340.694L333.616 480.568L277.039 352.634L224.783 482.547L221.66 342.694L123.542 442.847L174.35 312.379L45.3094 367.533L142.307 266.3L1.98166 268.072L130.409 211.489L0.167332 159.587L140.461 156.272L40.1308 58.6149L170.943 109.07L115.8 -19.4777L217.216 77.0623L215.656 -62.8147Z" fill="#E8EAF0"/>
<path d="M272.769 -11.1661C280.605 -12.8672 285.584 -20.5765 283.889 -28.3853C282.193 -36.194 274.467 -41.1452 266.63 -39.4441C258.794 -37.7429 253.816 -30.0336 255.511 -22.2249C257.206 -14.4161 264.933 -9.46492 272.769 -11.1661Z" fill="#E8EAF0"/>
<path d="M283.138 457.09C290.974 455.388 295.953 447.679 294.258 439.87C292.562 432.062 284.836 427.11 276.999 428.812C269.163 430.513 264.185 438.222 265.88 446.031C267.575 453.84 275.302 458.791 283.138 457.09Z" fill="#E8EAF0"/>
<path d="M364.998 5.31539C372.834 3.61425 377.813 -4.09506 376.118 -11.9038C374.422 -19.7126 366.696 -24.6638 358.859 -22.9626C351.023 -21.2615 346.045 -13.5522 347.74 -5.74341C349.435 2.06534 357.162 7.01654 364.998 5.31539Z" fill="#E8EAF0"/>
<path d="M190.91 440.621C198.747 438.919 203.725 431.21 202.03 423.401C200.335 415.593 192.608 410.641 184.772 412.343C176.935 414.044 171.957 421.753 173.652 429.562C175.347 437.371 183.074 442.322 190.91 440.621Z" fill="#E8EAF0"/>
<path d="M441.755 54.8416C449.591 53.1405 454.57 45.4312 452.875 37.6224C451.179 29.8137 443.453 24.8625 435.616 26.5636C427.78 28.2648 422.802 35.9741 424.497 43.7828C426.192 51.5916 433.919 56.5428 441.755 54.8416Z" fill="#E8EAF0"/>
<path d="M114.139 391.085C121.975 389.384 126.954 381.674 125.258 373.866C123.563 366.057 115.836 361.106 108 362.807C100.164 364.508 95.1855 372.217 96.8807 380.026C98.5758 387.835 106.303 392.786 114.139 391.085Z" fill="#E8EAF0"/>
<path d="M493.176 128.731C501.012 127.03 505.991 119.32 504.295 111.512C502.6 103.703 494.873 98.7516 487.037 100.453C479.201 102.154 474.222 109.863 475.918 117.672C477.613 125.481 485.34 130.432 493.176 128.731Z" fill="#E8EAF0"/>
<path d="M62.7337 317.205C70.57 315.504 75.5484 307.794 73.8532 299.986C72.1581 292.177 64.4313 287.226 56.595 288.927C48.7587 290.628 43.7803 298.337 45.4755 306.146C47.1707 313.955 54.8975 318.906 62.7337 317.205Z" fill="#E8EAF0"/>
<path d="M512.789 215.409C520.625 213.708 525.604 205.999 523.909 198.19C522.213 190.381 514.487 185.43 506.65 187.131C498.814 188.832 493.836 196.542 495.531 204.35C497.226 212.159 504.953 217.11 512.789 215.409Z" fill="#E8EAF0"/>
<path d="M43.1206 230.526C50.9569 228.825 55.9353 221.116 54.2401 213.307C52.5449 205.498 44.8181 200.547 36.9819 202.248C29.1456 203.95 24.1672 211.659 25.8624 219.468C27.5575 227.276 35.2843 232.228 43.1206 230.526Z" fill="#E8EAF0"/>
<path d="M497.692 305.528C505.528 303.827 510.507 296.117 508.811 288.308C507.116 280.5 499.389 275.549 491.553 277.25C483.717 278.951 478.739 286.66 480.434 294.469C482.129 302.278 489.856 307.229 497.692 305.528Z" fill="#E8EAF0"/>
<path d="M58.2036 140.411C66.0399 138.71 71.0183 131.001 69.3231 123.192C67.6279 115.383 59.9011 110.432 52.0649 112.133C44.2286 113.834 39.2502 121.544 40.9454 129.352C42.6405 137.161 50.3673 142.112 58.2036 140.411Z" fill="#E8EAF0"/>
<path d="M447.409 384.938C455.245 383.237 460.224 375.528 458.528 367.719C456.833 359.91 449.106 354.959 441.27 356.66C433.434 358.362 428.456 366.071 430.151 373.88C431.846 381.688 439.573 386.64 447.409 384.938Z" fill="#E8EAF0"/>
<path d="M108.5 60.9976C116.336 59.2964 121.314 51.5871 119.619 43.7784C117.924 35.9696 110.197 31.0184 102.361 32.7196C94.5246 34.4207 89.5462 42.13 91.2414 49.9388C92.9365 57.7475 100.663 62.6987 108.5 60.9976Z" fill="#E8EAF0"/>
<path d="M372.461 437.233C380.298 435.531 385.276 427.822 383.581 420.013C381.886 412.205 374.159 407.253 366.322 408.955C358.486 410.656 353.508 418.365 355.203 426.174C356.898 433.983 364.625 438.934 372.461 437.233Z" fill="#E8EAF0"/>
<path d="M183.433 8.69373C191.269 6.99258 196.248 -0.716713 194.552 -8.52547C192.857 -16.3342 185.13 -21.2854 177.294 -19.5843C169.458 -17.8831 164.48 -10.1738 166.175 -2.36507C167.87 5.44369 175.597 10.3949 183.433 8.69373Z" fill="#E8EAF0"/>
</g>
</svg>
