<svg width="213" height="207" viewBox="0 0 213 207" fill="none" xmlns="http://www.w3.org/2000/svg">
<path d="M183.761 -73.1088L216.996 -155.722L218.981 -66.7921L219.034 -64.4191L220.695 -66.1146L283.091 -129.804L250.783 -46.8426L249.919 -44.6248L252.108 -45.5602L334.17 -80.633L272.486 -16.2632L270.837 -14.5415L273.221 -14.5714L362.447 -15.6904L280.787 20.2796L278.604 21.2409L280.82 22.1237L363.641 55.1236L274.423 57.2332L272.044 57.2895L273.749 58.9495L337.547 121.048L254.36 88.9623L252.145 88.1081L253.081 90.2895L288.15 172.045L223.651 110.641L221.935 109.007L221.961 111.376L222.962 200.332L186.98 118.97L186.022 116.804L185.138 119.002L151.904 201.623L149.918 112.685L149.865 110.312L148.204 112.007L85.8082 175.697L118.116 92.7352L118.98 90.5174L116.791 91.4528L34.737 126.524L96.4127 62.1558L98.0625 60.4339L95.678 60.4641L6.45381 61.5907L88.1124 25.613L90.2945 24.6517L88.0795 23.769L5.26617 -9.23266L94.4761 -11.3405L96.8555 -11.3968L95.15 -13.0569L31.3517 -75.1555L114.539 -43.0696L116.754 -42.2154L115.818 -44.3969L80.7506 -126.145L145.248 -64.7482L146.964 -63.1149L146.938 -65.4837L145.945 -154.441L181.919 -73.0777L182.877 -70.9108L183.761 -73.1088ZM189.683 -135.992C190.702 -131.297 187.709 -126.656 182.989 -125.631C178.269 -124.607 173.621 -127.589 172.602 -132.284C171.583 -136.979 174.576 -141.62 179.296 -142.645C184.016 -143.67 188.664 -140.687 189.683 -135.992ZM196.638 178.103C197.657 182.798 194.664 187.439 189.944 188.464C185.225 189.488 180.577 186.506 179.557 181.811C178.538 177.116 181.531 172.475 186.251 171.45C190.971 170.425 195.619 173.408 196.638 178.103ZM251.548 -124.937C252.567 -120.242 249.574 -115.601 244.854 -114.576C240.134 -113.551 235.487 -116.534 234.467 -121.229C233.448 -125.924 236.441 -130.565 241.161 -131.59C245.881 -132.614 250.529 -129.632 251.548 -124.937ZM134.774 167.056C135.793 171.751 132.8 176.392 128.08 177.417C123.36 178.441 118.713 175.459 117.693 170.764C116.674 166.069 119.667 161.427 124.387 160.403C129.107 159.378 133.755 162.361 134.774 167.056ZM303.035 -91.7158C304.054 -87.0208 301.061 -82.3796 296.341 -81.3549C291.621 -80.3303 286.973 -83.3128 285.954 -88.0078C284.935 -92.7028 287.928 -97.344 292.648 -98.3687C297.368 -99.3933 302.016 -96.4108 303.035 -91.7158ZM83.2774 133.828C84.2966 138.523 81.3038 143.164 76.5838 144.189C71.8639 145.214 67.216 142.231 66.1968 137.536C65.1776 132.841 68.1705 128.2 72.8904 127.175C77.6103 126.151 82.2582 129.133 83.2774 133.828ZM337.527 -42.1527C338.546 -37.4577 335.553 -32.8165 330.833 -31.7919C326.113 -30.7672 321.465 -33.7498 320.446 -38.4447C319.427 -43.1397 322.42 -47.781 327.14 -48.8056C331.86 -49.8302 336.507 -46.8477 337.527 -42.1527ZM48.796 84.2714C49.8153 88.9663 46.8224 93.6076 42.1024 94.6322C37.3825 95.6569 32.7346 92.6743 31.7154 87.9793C30.6962 83.2844 33.6891 78.6431 38.409 77.6185C43.1289 76.5938 47.7768 79.5764 48.796 84.2714ZM350.683 15.9892C351.702 20.6842 348.709 25.3254 343.989 26.35C339.269 27.3747 334.621 24.3921 333.602 19.6971C332.583 15.0022 335.576 10.3609 340.296 9.33629C345.016 8.31165 349.663 11.2942 350.683 15.9892ZM35.64 26.1295C36.6592 30.8245 33.6663 35.4657 28.9464 36.4903C24.2265 37.515 19.5786 34.5324 18.5594 29.8375C17.5402 25.1425 20.533 20.5012 25.253 19.4766C29.9729 18.452 34.6208 21.4345 35.64 26.1295ZM340.556 76.4385C341.575 81.1335 338.582 85.7748 333.862 86.7994C329.142 87.824 324.494 84.8415 323.475 80.1465C322.456 75.4515 325.449 70.8103 330.169 69.7856C334.889 68.761 339.537 71.7436 340.556 76.4385ZM45.7573 -34.3177C46.7765 -29.6227 43.7837 -24.9815 39.0637 -23.9569C34.3438 -22.9322 29.6959 -25.9148 28.6767 -30.6097C27.6575 -35.3047 30.6504 -39.946 35.3703 -40.9706C40.0902 -41.9952 44.7381 -39.0127 45.7573 -34.3177ZM306.827 129.705C307.846 134.4 304.853 139.042 300.134 140.066C295.414 141.091 290.766 138.108 289.747 133.413C288.727 128.718 291.72 124.077 296.44 123.053C301.16 122.028 305.808 125.01 306.827 129.705ZM79.4947 -87.5865C80.5139 -82.8915 77.521 -78.2503 72.8011 -77.2256C68.0812 -76.201 63.4333 -79.1835 62.4141 -83.8785C61.3949 -88.5735 64.3877 -93.2147 69.1077 -94.2394C73.8276 -95.264 78.4755 -92.2815 79.4947 -87.5865ZM256.554 164.783C257.573 169.478 254.58 174.119 249.86 175.144C245.14 176.169 240.493 173.186 239.473 168.491C238.454 163.796 241.447 159.155 246.167 158.13C250.887 157.106 255.535 160.088 256.554 164.783ZM129.758 -122.671C130.777 -117.976 127.785 -113.334 123.065 -112.31C118.345 -111.285 113.697 -114.268 112.678 -118.963C111.658 -123.658 114.651 -128.299 119.371 -129.324C124.091 -130.348 128.739 -127.366 129.758 -122.671Z" stroke="white" stroke-opacity="0.16" stroke-width="2"/>
</svg>
