<svg width="444" height="365" viewBox="0 0 444 365" fill="none" xmlns="http://www.w3.org/2000/svg">
<path d="M120.964 151.457L121.922 153.624L122.807 151.426L181.605 5.26935L185.117 162.605L185.169 164.979L186.831 163.283L297.223 50.6014L240.061 197.384L239.197 199.602L241.386 198.667L386.577 136.613L277.439 250.504L275.789 252.226L278.173 252.196L436.044 250.216L291.56 313.859L289.377 314.82L291.593 315.703L438.13 374.091L280.278 377.823L277.899 377.879L279.604 379.539L392.482 489.409L245.305 432.642L243.09 431.788L244.026 433.97L306.07 578.613L191.96 469.978L190.244 468.344L190.27 470.714L192.04 628.092L128.383 484.149L127.424 481.982L126.54 484.18L67.7446 630.35L64.2305 473.001L64.1775 470.628L62.5164 472.323L-47.8757 585.005L9.28587 438.222L10.1496 436.004L7.96103 436.939L-137.216 498.99L-28.0918 385.102L-26.442 383.38L-28.8265 383.41L-186.694 385.404L-42.2126 321.747L-40.0306 320.786L-42.2456 319.903L-188.769 261.512L-30.9313 257.783L-28.5519 257.727L-30.2574 256.067L-143.135 146.197L4.04228 202.964L6.25692 203.818L5.32117 201.637L-56.7202 57.0065L57.3871 165.628L59.103 167.261L59.0766 164.893L57.3206 7.51103L120.964 151.457ZM134.436 42.802C136.284 51.3168 130.856 59.7293 122.303 61.586C113.75 63.4428 105.322 58.0383 103.474 49.5235C101.625 41.0087 107.053 32.5963 115.607 30.7395C124.16 28.8827 132.587 34.2873 134.436 42.802ZM146.463 585.954C148.312 594.469 142.884 602.882 134.33 604.738C125.777 606.595 117.35 601.191 115.501 592.676C113.653 584.161 119.081 575.749 127.634 573.892C136.187 572.035 144.615 577.44 146.463 585.954ZM241.417 61.9197C243.265 70.4345 237.837 78.8469 229.284 80.7037C220.731 82.5605 212.303 77.1559 210.455 68.6411C208.606 60.1263 214.034 51.7139 222.588 49.8571C231.141 48.0004 239.568 53.4049 241.417 61.9197ZM39.484 566.851C41.3325 575.366 35.9043 583.778 27.3511 585.635C18.7979 587.492 10.3703 582.087 8.52183 573.573C6.67339 565.058 12.1015 556.645 20.6548 554.789C29.208 552.932 37.6356 558.336 39.484 566.851ZM330.451 119.368C332.3 127.882 326.871 136.295 318.318 138.152C309.765 140.008 301.337 134.604 299.489 126.089C297.64 117.574 303.069 109.162 311.622 107.305C320.175 105.448 328.603 110.853 330.451 119.368ZM-49.5669 509.392C-47.7185 517.907 -53.1466 526.319 -61.6999 528.176C-70.2531 530.033 -78.6807 524.628 -80.5291 516.114C-82.3776 507.599 -76.9494 499.186 -68.3962 497.33C-59.843 495.473 -51.4154 500.877 -49.5669 509.392ZM390.096 205.075C391.945 213.59 386.517 222.002 377.964 223.859C369.41 225.716 360.983 220.311 359.134 211.797C357.286 203.282 362.714 194.869 371.267 193.013C379.82 191.156 388.248 196.56 390.096 205.075ZM-109.194 423.695C-107.346 432.21 -112.774 440.623 -121.327 442.479C-129.88 444.336 -138.308 438.932 -140.156 430.417C-142.005 421.902 -136.577 413.49 -128.024 411.633C-119.47 409.776 -111.043 415.181 -109.194 423.695ZM412.847 305.618C414.695 314.132 409.267 322.545 400.714 324.402C392.161 326.258 383.733 320.854 381.884 312.339C380.036 303.824 385.464 295.412 394.017 293.555C402.571 291.698 410.998 297.103 412.847 305.618ZM-131.944 323.153C-130.096 331.668 -135.524 340.08 -144.077 341.937C-152.631 343.794 -161.058 338.389 -162.907 329.874C-164.755 321.36 -159.327 312.947 -150.774 311.09C-142.221 309.234 -133.793 314.638 -131.944 323.153ZM395.335 410.15C397.183 418.665 391.755 427.078 383.202 428.934C374.649 430.791 366.221 425.387 364.373 416.872C362.524 408.357 367.952 399.945 376.506 398.088C385.059 396.231 393.486 401.636 395.335 410.15ZM-114.449 218.624C-112.601 227.139 -118.029 235.551 -126.582 237.408C-135.135 239.265 -143.563 233.86 -145.411 225.345C-147.26 216.83 -141.831 208.418 -133.278 206.561C-124.725 204.704 -116.297 210.109 -114.449 218.624ZM337.009 502.263C338.858 510.778 333.429 519.19 324.876 521.047C316.323 522.904 307.895 517.499 306.047 508.984C304.198 500.469 309.627 492.057 318.18 490.2C326.733 488.343 335.161 493.748 337.009 502.263ZM-56.1082 126.508C-54.2598 135.023 -59.6879 143.435 -68.2411 145.292C-76.7944 147.149 -85.222 141.744 -87.0704 133.23C-88.9189 124.715 -83.4907 116.302 -74.9375 114.446C-66.3843 112.589 -57.9567 117.993 -56.1082 126.508ZM250.074 562.921C251.922 571.436 246.494 579.848 237.941 581.705C229.387 583.562 220.96 578.157 219.111 569.643C217.263 561.128 222.691 552.715 231.244 550.859C239.798 549.002 248.225 554.406 250.074 562.921ZM30.8106 65.8384C32.659 74.3532 27.2309 82.7656 18.6777 84.6224C10.1244 86.4792 1.69682 81.0746 -0.151624 72.5598C-2.00006 64.0451 3.42806 55.6326 11.9813 53.7759C20.5345 51.9191 28.9621 57.3236 30.8106 65.8384Z" stroke="white" stroke-opacity="0.16" stroke-width="2"/>
</svg>
