<svg width="593" height="534" viewBox="0 0 593 534" fill="none" xmlns="http://www.w3.org/2000/svg">
<g opacity="0.55">
<path d="M332.389 3.664L419.533 200.763L500.043 0.637879L504.851 216.076L656.01 61.7817L577.736 262.78L776.554 177.806L627.101 333.769L843.29 331.057L645.432 418.211L846.1 498.167L629.945 503.278L784.514 653.729L582.985 575.998L667.941 774.057L511.696 625.309L514.119 840.799L426.956 643.705L346.451 843.848L341.639 628.391L190.479 782.686L268.754 581.687L69.9537 666.657L219.389 510.699L3.20305 513.428L201.057 426.257L0.407907 346.296L216.545 341.189L61.9756 190.738L263.505 268.469L178.552 70.4289L334.793 219.158L332.389 3.664Z" fill="#E8EAF0"/>
<path d="M420.378 83.2338C432.451 80.613 440.12 68.736 437.509 56.7059C434.897 44.6757 422.993 37.0479 410.921 39.6687C398.848 42.2895 391.178 54.1664 393.79 66.1966C396.402 78.2268 408.305 85.8546 420.378 83.2338Z" fill="#E8EAF0"/>
<path d="M436.352 804.628C448.425 802.008 456.095 790.131 453.483 778.1C450.872 766.07 438.968 758.442 426.895 761.063C414.823 763.684 407.153 775.561 409.764 787.591C412.376 799.621 424.28 807.249 436.352 804.628Z" fill="#E8EAF0"/>
<path d="M562.466 108.625C574.539 106.004 582.208 94.1274 579.597 82.0972C576.985 70.0671 565.081 62.4393 553.009 65.06C540.936 67.6808 533.267 79.5578 535.878 91.5879C538.49 103.618 550.394 111.246 562.466 108.625Z" fill="#E8EAF0"/>
<path d="M294.267 779.256C306.339 776.635 314.009 764.758 311.397 752.728C308.786 740.698 296.882 733.07 284.809 735.691C272.737 738.312 265.067 750.189 267.679 762.219C270.29 774.249 282.194 781.877 294.267 779.256Z" fill="#E8EAF0"/>
<path d="M680.718 184.925C692.791 182.304 700.46 170.427 697.849 158.397C695.237 146.367 683.333 138.739 671.261 141.36C659.188 143.981 651.518 155.858 654.13 167.888C656.742 179.918 668.645 187.546 680.718 184.925Z" fill="#E8EAF0"/>
<path d="M175.992 702.941C188.065 700.32 195.735 688.444 193.123 676.413C190.512 664.383 178.608 656.755 166.535 659.376C154.463 661.997 146.793 673.874 149.404 685.904C152.016 697.934 163.92 705.562 175.992 702.941Z" fill="#E8EAF0"/>
<path d="M759.937 298.759C772.009 296.138 779.679 284.261 777.067 272.231C774.456 260.201 762.552 252.573 750.479 255.194C738.407 257.814 730.737 269.691 733.349 281.722C735.96 293.752 747.864 301.379 759.937 298.759Z" fill="#E8EAF0"/>
<path d="M96.7977 589.122C108.87 586.501 116.54 574.624 113.928 562.594C111.317 550.564 99.4129 542.936 87.3403 545.557C75.2678 548.178 67.5981 560.055 70.2097 572.085C72.8212 584.115 84.7251 591.743 96.7977 589.122Z" fill="#E8EAF0"/>
<path d="M790.153 432.296C802.225 429.675 809.895 417.798 807.283 405.768C804.672 393.737 792.768 386.11 780.695 388.73C768.623 391.351 760.953 403.228 763.565 415.258C766.176 427.289 778.08 434.916 790.153 432.296Z" fill="#E8EAF0"/>
<path d="M66.5817 455.585C78.6543 452.964 86.324 441.087 83.7124 429.057C81.1008 417.027 69.1969 409.399 57.1244 412.02C45.0518 414.641 37.3821 426.518 39.9937 438.548C42.6053 450.578 54.5091 458.206 66.5817 455.585Z" fill="#E8EAF0"/>
<path d="M766.894 571.132C778.967 568.511 786.636 556.634 784.025 544.604C781.413 532.574 769.509 524.946 757.437 527.567C745.364 530.188 737.695 542.065 740.306 554.095C742.918 566.125 754.822 573.753 766.894 571.132Z" fill="#E8EAF0"/>
<path d="M89.8186 316.754C101.891 314.133 109.561 302.256 106.949 290.226C104.338 278.196 92.4338 270.568 80.3612 273.189C68.2886 275.809 60.619 287.686 63.2305 299.716C65.8421 311.747 77.746 319.374 89.8186 316.754Z" fill="#E8EAF0"/>
<path d="M689.428 693.472C701.501 690.851 709.17 678.974 706.559 666.944C703.947 654.914 692.043 647.286 679.971 649.907C667.898 652.528 660.229 664.405 662.84 676.435C665.452 688.465 677.356 696.093 689.428 693.472Z" fill="#E8EAF0"/>
<path d="M167.305 194.409C179.377 191.788 187.047 179.911 184.435 167.881C181.824 155.851 169.92 148.223 157.847 150.844C145.775 153.465 138.105 165.342 140.717 177.372C143.328 189.402 155.232 197.03 167.305 194.409Z" fill="#E8EAF0"/>
<path d="M573.964 774.037C586.036 771.416 593.706 759.539 591.094 747.509C588.483 735.478 576.579 727.851 564.506 730.471C552.434 733.092 544.764 744.969 547.376 756.999C549.987 769.029 561.891 776.657 573.964 774.037Z" fill="#E8EAF0"/>
<path d="M282.747 113.83C294.819 111.209 302.489 99.3321 299.877 87.3019C297.266 75.2717 285.362 67.6439 273.289 70.2647C261.217 72.8855 253.547 84.7624 256.159 96.7926C258.77 108.823 270.674 116.451 282.747 113.83Z" fill="#E8EAF0"/>
</g>
</svg>
