<svg width="406" height="357" viewBox="0 0 406 357" fill="none" xmlns="http://www.w3.org/2000/svg">
<g opacity="0.05">
<path d="M215.855 -188.77L272.462 -60.7401L324.759 -190.736L327.882 -50.7926L426.071 -151.018L375.226 -20.4552L504.374 -75.6521L407.292 25.6571L547.724 23.8959L419.2 80.5084L549.549 132.446L409.14 135.766L509.544 233.495L378.636 183.003L433.821 311.657L332.329 215.034L333.902 355.011L277.284 226.983L224.989 356.991L221.864 217.036L123.674 317.262L174.52 186.698L45.3843 241.893L142.453 140.586L2.02487 142.359L130.546 85.7348L0.209227 33.7948L140.606 30.4775L40.202 -67.2517L171.11 -16.7597L115.927 -145.401L217.417 -48.7907L215.855 -188.77Z" fill="white"/>
<path d="M273.011 -137.084C280.853 -138.786 285.835 -146.501 284.138 -154.316C282.442 -162.13 274.709 -167.085 266.867 -165.382C259.025 -163.68 254.043 -155.965 255.74 -148.151C257.436 -140.336 265.169 -135.381 273.011 -137.084Z" fill="white"/>
<path d="M283.387 331.515C291.229 329.813 296.211 322.098 294.515 314.283C292.819 306.469 285.086 301.514 277.244 303.216C269.402 304.919 264.42 312.634 266.116 320.448C267.813 328.263 275.545 333.218 283.387 331.515Z" fill="white"/>
<path d="M365.307 -120.59C373.149 -122.293 378.131 -130.008 376.435 -137.822C374.739 -145.636 367.006 -150.591 359.164 -148.889C351.322 -147.187 346.34 -139.472 348.037 -131.657C349.733 -123.843 357.465 -118.888 365.307 -120.59Z" fill="white"/>
<path d="M191.092 315.034C198.934 313.332 203.916 305.617 202.22 297.802C200.523 289.988 192.791 285.033 184.949 286.735C177.107 288.438 172.125 296.153 173.821 303.967C175.518 311.782 183.25 316.736 191.092 315.034Z" fill="white"/>
<path d="M442.121 -71.0277C449.963 -72.7301 454.945 -80.445 453.248 -88.2595C451.552 -96.074 443.82 -101.029 435.977 -99.3264C428.135 -97.624 423.153 -89.9091 424.85 -82.0946C426.546 -74.2801 434.279 -69.3253 442.121 -71.0277Z" fill="white"/>
<path d="M114.264 265.462C122.106 263.759 127.088 256.045 125.392 248.23C123.696 240.416 115.963 235.461 108.121 237.163C100.279 238.866 95.297 246.58 96.9934 254.395C98.6899 262.209 106.422 267.164 114.264 265.462Z" fill="white"/>
<path d="M493.579 2.91556C501.421 1.21316 506.403 -6.50178 504.707 -14.3163C503.01 -22.1307 495.278 -27.0855 487.436 -25.3831C479.594 -23.6808 474.612 -15.9658 476.308 -8.15134C478.005 -0.336862 485.737 4.61796 493.579 2.91556Z" fill="white"/>
<path d="M62.8215 191.528C70.6635 189.825 75.6455 182.111 73.9491 174.296C72.2527 166.482 64.5203 161.527 56.6782 163.229C48.8362 164.932 43.8542 172.646 45.5506 180.461C47.247 188.275 54.9795 193.23 62.8215 191.528Z" fill="white"/>
<path d="M513.207 89.6575C521.049 87.9551 526.031 80.2402 524.334 72.4257C522.638 64.6112 514.905 59.6564 507.063 61.3588C499.221 63.0612 494.239 70.7762 495.936 78.5906C497.632 86.4051 505.365 91.3599 513.207 89.6575Z" fill="white"/>
<path d="M43.194 104.786C51.036 103.084 56.018 95.3686 54.3216 87.5541C52.6252 79.7396 44.8928 74.7848 37.0507 76.4872C29.2087 78.1896 24.2267 85.9045 25.9231 93.719C27.6195 101.533 35.352 106.488 43.194 104.786Z" fill="white"/>
<path d="M498.098 179.842C505.941 178.14 510.923 170.425 509.226 162.61C507.53 154.796 499.797 149.841 491.955 151.543C484.113 153.246 479.131 160.961 480.828 168.775C482.524 176.59 490.256 181.544 498.098 179.842Z" fill="white"/>
<path d="M58.288 14.6046C66.1301 12.9022 71.1121 5.18727 69.4157 -2.62721C67.7193 -10.4417 59.9868 -15.3965 52.1448 -13.6941C44.3028 -11.9917 39.3207 -4.27677 41.0172 3.53771C42.7136 11.3522 50.446 16.307 58.288 14.6046Z" fill="white"/>
<path d="M447.779 259.311C455.621 257.609 460.603 249.894 458.906 242.079C457.21 234.265 449.477 229.31 441.635 231.012C433.793 232.715 428.811 240.43 430.508 248.244C432.204 256.059 439.937 261.013 447.779 259.311Z" fill="white"/>
<path d="M108.621 -64.8672C116.463 -66.5696 121.445 -74.2845 119.749 -82.099C118.052 -89.9135 110.32 -94.8683 102.478 -93.1659C94.6356 -91.4635 89.6536 -83.7486 91.35 -75.9341C93.0464 -68.1196 100.779 -63.1648 108.621 -64.8672Z" fill="white"/>
<path d="M372.776 311.643C380.618 309.941 385.6 302.226 383.904 294.412C382.207 286.597 374.475 281.642 366.633 283.345C358.791 285.047 353.809 292.762 355.505 300.577C357.202 308.391 364.934 313.346 372.776 311.643Z" fill="white"/>
<path d="M183.609 -117.209C191.451 -118.912 196.433 -126.627 194.737 -134.441C193.04 -142.256 185.308 -147.21 177.466 -145.508C169.624 -143.806 164.642 -136.091 166.338 -128.276C168.035 -120.462 175.767 -115.507 183.609 -117.209Z" fill="white"/>
<path d="M271.547 -60.3357L272.505 -58.1688L273.39 -60.3669L323.868 -185.842L326.882 -50.7703L326.935 -48.3973L328.596 -50.0928L423.367 -146.829L374.294 -20.8181L373.431 -18.6003L375.619 -19.5357L500.263 -72.8077L406.57 24.9652L404.921 26.6869L407.305 26.657L542.833 24.9573L418.797 79.5933L416.614 80.5546L418.83 81.4374L544.629 131.562L409.116 134.766L406.737 134.822L408.442 136.482L505.345 230.804L378.996 182.07L376.781 181.216L377.717 183.397L430.981 307.572L333.018 214.31L331.302 212.676L331.329 215.045L332.848 350.153L278.198 226.579L277.24 224.412L276.356 226.61L225.88 352.097L222.864 217.014L222.811 214.64L221.149 216.336L126.379 313.072L175.451 187.061L176.315 184.843L174.127 185.779L49.4946 239.048L143.175 141.278L144.825 139.556L142.441 139.586L6.91513 141.298L130.949 86.6499L133.131 85.6886L130.916 84.8059L5.12888 34.6789L140.63 31.4772L143.009 31.421L141.304 29.7609L44.4006 -64.5604L170.75 -15.8267L172.965 -14.9725L172.029 -17.1539L118.767 -141.317L216.728 -48.0663L218.444 -46.433L218.417 -48.8018L216.91 -183.913L271.547 -60.3357ZM283.161 -154.103C284.74 -146.832 280.104 -139.647 272.799 -138.061C265.493 -136.475 258.296 -141.091 256.717 -148.363C255.139 -155.634 259.774 -162.819 267.08 -164.405C274.385 -165.991 281.583 -161.375 283.161 -154.103ZM293.538 314.495C295.116 321.767 290.481 328.952 283.175 330.538C275.87 332.124 268.672 327.508 267.094 320.236C265.515 312.965 270.151 305.78 277.456 304.194C284.762 302.608 291.959 307.224 293.538 314.495ZM375.458 -137.61C377.036 -130.338 372.401 -123.153 365.095 -121.567C357.79 -119.981 350.592 -124.598 349.014 -131.869C347.435 -139.141 352.071 -146.326 359.376 -147.912C366.682 -149.498 373.879 -144.881 375.458 -137.61ZM201.242 298.014C202.821 305.286 198.186 312.471 190.88 314.057C183.574 315.643 176.377 311.027 174.798 303.755C173.22 296.483 177.855 289.298 185.161 287.713C192.467 286.127 199.664 290.743 201.242 298.014ZM452.271 -88.0473C453.85 -80.7758 449.214 -73.5908 441.909 -72.0049C434.603 -70.419 427.406 -75.0352 425.827 -82.3067C424.249 -89.5782 428.884 -96.7632 436.19 -98.3492C443.495 -99.9351 450.693 -95.3189 452.271 -88.0473ZM124.415 248.442C125.993 255.714 121.358 262.899 114.052 264.485C106.747 266.071 99.5492 261.454 97.9707 254.183C96.3921 246.911 101.028 239.726 108.333 238.14C115.639 236.554 122.836 241.171 124.415 248.442ZM503.73 -14.1041C505.308 -6.83259 500.673 0.352381 493.367 1.93832C486.061 3.52426 478.864 -1.09196 477.286 -8.36348C475.707 -15.635 480.343 -22.82 487.648 -24.4059C494.954 -25.9919 502.151 -21.3756 503.73 -14.1041ZM72.9719 174.508C74.5504 181.78 69.9149 188.965 62.6093 190.551C55.3038 192.137 48.1064 187.52 46.5278 180.249C44.9493 172.977 49.5848 165.792 56.8904 164.206C64.196 162.62 71.3933 167.237 72.9719 174.508ZM523.357 72.6379C524.936 79.9094 520.3 87.0944 512.995 88.6803C505.689 90.2662 498.492 85.65 496.913 78.3785C495.334 71.107 499.97 63.922 507.276 62.3361C514.581 60.7501 521.779 65.3664 523.357 72.6379ZM53.3444 87.7662C54.9229 95.0377 50.2874 102.223 42.9818 103.809C35.6763 105.395 28.4789 100.778 26.9003 93.5069C25.3218 86.2353 29.9573 79.0504 37.2629 77.4644C44.5684 75.8785 51.7658 80.4947 53.3444 87.7662ZM508.249 162.822C509.827 170.094 505.192 177.279 497.886 178.865C490.581 180.451 483.383 175.835 481.805 168.563C480.226 161.291 484.862 154.107 492.167 152.521C499.473 150.935 506.67 155.551 508.249 162.822ZM68.4384 -2.41506C70.017 4.85646 65.3815 12.0414 58.0759 13.6274C50.7703 15.2133 43.5729 10.5971 41.9944 3.32556C40.4159 -3.94596 45.0514 -11.1309 52.3569 -12.7169C59.6625 -14.3028 66.8599 -9.68658 68.4384 -2.41506ZM457.929 242.291C459.508 249.563 454.872 256.748 447.566 258.334C440.261 259.92 433.064 255.303 431.485 248.032C429.906 240.76 434.542 233.575 441.848 231.99C449.153 230.404 456.35 235.02 457.929 242.291ZM118.771 -81.8868C120.35 -74.6153 115.714 -67.4304 108.409 -65.8444C101.103 -64.2585 93.9058 -68.8747 92.3273 -76.1462C90.7487 -83.4177 95.3842 -90.6027 102.69 -92.1887C109.995 -93.7746 117.193 -89.1584 118.771 -81.8868ZM382.926 294.624C384.505 301.895 379.869 309.08 372.564 310.666C365.258 312.252 358.061 307.636 356.482 300.364C354.904 293.093 359.539 285.908 366.845 284.322C374.15 282.736 381.348 287.352 382.926 294.624ZM193.76 -134.229C195.338 -126.958 190.703 -119.773 183.397 -118.187C176.091 -116.601 168.894 -121.217 167.316 -128.488C165.737 -135.76 170.372 -142.945 177.678 -144.531C184.984 -146.117 192.181 -141.501 193.76 -134.229Z" stroke="#20409A" stroke-opacity="0.04" stroke-width="2"/>
</g>
</svg>
