<svg width="24" height="24" viewBox="0 0 24 24" fill="none" xmlns="http://www.w3.org/2000/svg">
<path d="M12.4369 11.4914C12.3968 11.5218 12.3479 11.5382 12.2975 11.5382C12.2472 11.5382 12.1983 11.5218 12.1582 11.4914L6.01508 6.76615C5.68462 6.51231 5.872 6 6.29477 6H18.3206C18.7443 6 18.9308 6.51231 18.6003 6.76615L12.4369 11.4914ZM20.6154 9.22246V18.0166C20.6154 18.5151 20.1788 18.9231 19.6462 18.9231H4.96923C4.43662 18.9231 4 18.5151 4 18.0166V9.22154C4 8.84031 4.47538 8.63262 4.78462 8.868L12.1526 14.3797C12.1984 14.4106 12.2524 14.4272 12.3077 14.4272C12.363 14.4272 12.417 14.4106 12.4628 14.3797L19.8298 8.868C20.14 8.63262 20.6154 8.84031 20.6154 9.22154" fill="#F66600"/>
</svg>
