<svg width="262" height="177" viewBox="0 0 262 177" fill="none" xmlns="http://www.w3.org/2000/svg">
<path d="M176.529 84.6437L208.299 5.67323L210.196 90.6817L210.249 93.0548L211.91 91.3592L271.554 30.4779L240.671 109.781L239.807 111.999L241.996 111.064L320.439 77.5375L261.476 139.068L259.826 140.79L262.21 140.76L347.501 139.69L269.442 174.074L267.26 175.035L269.475 175.918L348.644 207.463L263.36 209.479L260.981 209.535L262.687 211.195L323.671 270.555L244.152 239.885L241.938 239.03L242.874 241.212L276.396 319.362L214.741 260.666L213.025 259.032L213.051 261.401L214.007 346.434L179.613 268.66L178.654 266.493L177.77 268.691L146.002 347.669L144.104 262.653L144.051 260.28L142.39 261.976L82.7453 322.857L113.628 243.554L114.492 241.336L112.303 242.272L33.8679 275.796L92.8235 214.267L94.4734 212.545L92.0888 212.575L6.79978 213.652L84.8569 179.261L87.039 178.3L84.8239 177.417L5.66303 145.871L90.9387 143.856L93.3181 143.8L91.6126 142.14L30.6278 82.7796L110.147 113.45L112.361 114.305L111.426 112.123L77.9048 33.9799L139.558 92.6695L141.274 94.3028L141.248 91.934L140.299 6.89897L174.687 84.6748L175.645 86.8418L176.529 84.6437ZM182.123 24.3826C183.095 28.8586 180.242 33.2836 175.741 34.2606C171.241 35.2375 166.81 32.3938 165.838 27.9178C164.867 23.4418 167.72 19.0168 172.22 18.0398C176.72 17.0629 181.152 19.9066 182.123 24.3826ZM188.788 325.346C189.759 329.822 186.906 334.247 182.406 335.224C177.906 336.201 173.475 333.357 172.503 328.881C171.531 324.405 174.385 319.98 178.885 319.003C183.385 318.027 187.816 320.87 188.788 325.346ZM241.402 34.9758C242.374 39.4518 239.52 43.8768 235.02 44.8538C230.52 45.8307 226.089 42.987 225.117 38.511C224.145 34.035 226.999 29.6099 231.499 28.633C235.999 27.6561 240.43 30.4998 241.402 34.9758ZM129.51 314.761C130.482 319.237 127.628 323.662 123.128 324.639C118.628 325.616 114.197 322.772 113.225 318.296C112.253 313.82 115.107 309.395 119.607 308.418C124.107 307.441 128.538 310.285 129.51 314.761ZM290.736 66.8079C291.708 71.2839 288.855 75.709 284.355 76.6859C279.854 77.6629 275.423 74.8192 274.451 70.3432C273.48 65.8672 276.333 61.4421 280.833 60.4652C285.333 59.4883 289.765 62.332 290.736 66.8079ZM80.1663 282.923C81.138 287.399 78.2847 291.824 73.7846 292.801C69.2844 293.778 64.8532 290.934 63.8815 286.458C62.9098 281.982 65.7631 277.557 70.2633 276.58C74.7635 275.603 79.1947 278.447 80.1663 282.923ZM323.786 114.299C324.758 118.775 321.905 123.2 317.404 124.177C312.904 125.154 308.473 122.31 307.501 117.834C306.53 113.358 309.383 108.933 313.883 107.956C318.383 106.979 322.814 109.823 323.786 114.299ZM47.1265 235.438C48.0982 239.914 45.2449 244.339 40.7447 245.316C36.2446 246.293 31.8134 243.449 30.8417 238.973C29.87 234.497 32.7233 230.072 37.2235 229.095C41.7236 228.118 46.1548 230.962 47.1265 235.438ZM336.392 170.01C337.364 174.486 334.511 178.911 330.01 179.888C325.51 180.865 321.079 178.021 320.107 173.545C319.136 169.069 321.989 164.644 326.489 163.667C330.989 162.69 335.42 165.534 336.392 170.01ZM34.5205 179.726C35.4922 184.202 32.6389 188.628 28.1387 189.604C23.6385 190.581 19.2073 187.738 18.2357 183.262C17.264 178.786 20.1173 174.361 24.6174 173.384C29.1176 172.407 33.5488 175.25 34.5205 179.726ZM326.689 227.932C327.66 232.408 324.807 236.833 320.307 237.81C315.807 238.787 311.376 235.943 310.404 231.467C309.432 226.991 312.285 222.566 316.786 221.589C321.286 220.613 325.717 223.456 326.689 227.932ZM44.2148 121.806C45.1865 126.282 42.3333 130.707 37.8331 131.684C33.3329 132.661 28.9017 129.818 27.93 125.342C26.9583 120.866 29.8116 116.441 34.3118 115.464C38.812 114.487 43.2432 117.33 44.2148 121.806ZM294.37 278.972C295.342 283.448 292.489 287.873 287.988 288.85C283.488 289.827 279.057 286.983 278.085 282.507C277.114 278.031 279.967 273.606 284.467 272.629C288.967 271.653 293.398 274.496 294.37 278.972ZM76.5418 70.7646C77.5134 75.2406 74.6602 79.6657 70.16 80.6426C65.6598 81.6195 61.2286 78.7758 60.2569 74.2998C59.2853 69.8238 62.1385 65.3988 66.6387 64.4218C71.1389 63.4449 75.5701 66.2886 76.5418 70.7646ZM246.199 312.583C247.17 317.059 244.317 321.484 239.817 322.461C235.317 323.438 230.886 320.595 229.914 316.119C228.942 311.643 231.796 307.218 236.296 306.241C240.796 305.264 245.227 308.107 246.199 312.583ZM124.704 37.1472C125.676 41.6232 122.822 46.0482 118.322 47.0251C113.822 48.0021 109.391 45.1584 108.419 40.6824C107.447 36.2064 110.301 31.7813 114.801 30.8044C119.301 29.8275 123.732 32.6712 124.704 37.1472Z" stroke="#20409A" stroke-opacity="0.06" stroke-width="2"/>
</svg>
