<svg width="548" height="516" viewBox="0 0 548 516" fill="none" xmlns="http://www.w3.org/2000/svg">
<g opacity="0.55">
<path d="M215.656 -29.813L272.221 98.1233L324.479 -31.7772L327.6 108.064L425.718 7.91111L374.91 138.379L503.962 83.2222L406.952 184.457L547.281 182.697L418.851 239.268L549.104 291.168L408.798 294.485L509.129 392.143L378.317 341.688L433.462 470.247L332.043 373.695L333.616 513.57L277.039 385.636L224.783 515.549L221.66 375.696L123.542 475.848L174.35 345.381L45.3094 400.535L142.307 299.302L1.98166 301.074L130.409 244.491L0.167332 192.589L140.461 189.274L40.1308 91.6165L170.943 142.072L115.8 13.524L217.216 110.064L215.656 -29.813Z" fill="#E8EAF0"/>
<path d="M272.769 21.8356C280.605 20.1345 285.584 12.4252 283.889 4.61641C282.193 -3.19234 274.467 -8.14353 266.63 -6.44238C258.794 -4.74123 253.816 2.96806 255.511 10.7768C257.206 18.5856 264.933 23.5368 272.769 21.8356Z" fill="#E8EAF0"/>
<path d="M283.138 490.091C290.974 488.39 295.953 480.681 294.258 472.872C292.562 465.063 284.836 460.112 276.999 461.813C269.163 463.514 264.185 471.224 265.88 479.033C267.575 486.841 275.302 491.792 283.138 490.091Z" fill="#E8EAF0"/>
<path d="M364.998 38.3171C372.834 36.6159 377.813 28.9066 376.118 21.0979C374.422 13.2891 366.696 8.33793 358.859 10.0391C351.023 11.7402 346.045 19.4495 347.74 27.2583C349.435 35.067 357.162 40.0182 364.998 38.3171Z" fill="#E8EAF0"/>
<path d="M190.91 473.622C198.747 471.921 203.725 464.212 202.03 456.403C200.335 448.594 192.608 443.643 184.772 445.344C176.935 447.045 171.957 454.755 173.652 462.564C175.347 470.372 183.074 475.323 190.91 473.622Z" fill="#E8EAF0"/>
<path d="M441.755 87.8433C449.591 86.1422 454.57 78.4329 452.875 70.6241C451.179 62.8154 443.453 57.8642 435.616 59.5653C427.78 61.2665 422.802 68.9758 424.497 76.7845C426.192 84.5933 433.919 89.5445 441.755 87.8433Z" fill="#E8EAF0"/>
<path d="M114.139 424.086C121.975 422.385 126.954 414.676 125.258 406.867C123.563 399.058 115.836 394.107 108 395.808C100.164 397.51 95.1855 405.219 96.8807 413.028C98.5758 420.836 106.303 425.788 114.139 424.086Z" fill="#E8EAF0"/>
<path d="M493.176 161.732C501.012 160.031 505.991 152.322 504.295 144.513C502.6 136.704 494.873 131.753 487.037 133.454C479.201 135.156 474.222 142.865 475.918 150.674C477.613 158.482 485.34 163.434 493.176 161.732Z" fill="#E8EAF0"/>
<path d="M62.7337 350.207C70.57 348.505 75.5484 340.796 73.8532 332.987C72.1581 325.179 64.4313 320.227 56.595 321.929C48.7587 323.63 43.7803 331.339 45.4755 339.148C47.1707 346.957 54.8975 351.908 62.7337 350.207Z" fill="#E8EAF0"/>
<path d="M512.789 248.411C520.625 246.71 525.604 239 523.909 231.192C522.213 223.383 514.487 218.432 506.65 220.133C498.814 221.834 493.836 229.543 495.531 237.352C497.226 245.161 504.953 250.112 512.789 248.411Z" fill="#E8EAF0"/>
<path d="M43.1206 263.528C50.9569 261.827 55.9353 254.118 54.2401 246.309C52.5449 238.5 44.8181 233.549 36.9819 235.25C29.1456 236.951 24.1672 244.661 25.8624 252.469C27.5575 260.278 35.2843 265.229 43.1206 263.528Z" fill="#E8EAF0"/>
<path d="M497.692 338.529C505.528 336.828 510.507 329.119 508.811 321.31C507.116 313.501 499.389 308.55 491.553 310.251C483.717 311.952 478.739 319.662 480.434 327.471C482.129 335.279 489.856 340.23 497.692 338.529Z" fill="#E8EAF0"/>
<path d="M58.2036 173.413C66.0399 171.712 71.0183 164.002 69.3231 156.194C67.6279 148.385 59.9011 143.434 52.0649 145.135C44.2286 146.836 39.2502 154.545 40.9454 162.354C42.6405 170.163 50.3673 175.114 58.2036 173.413Z" fill="#E8EAF0"/>
<path d="M447.409 417.94C455.245 416.239 460.224 408.53 458.528 400.721C456.833 392.912 449.106 387.961 441.27 389.662C433.434 391.363 428.456 399.073 430.151 406.881C431.846 414.69 439.573 419.641 447.409 417.94Z" fill="#E8EAF0"/>
<path d="M108.5 93.9993C116.336 92.2981 121.314 84.5888 119.619 76.7801C117.924 68.9713 110.197 64.0201 102.361 65.7213C94.5246 67.4224 89.5462 75.1317 91.2414 82.9405C92.9365 90.7492 100.663 95.7004 108.5 93.9993Z" fill="#E8EAF0"/>
<path d="M372.461 470.234C380.298 468.533 385.276 460.824 383.581 453.015C381.886 445.206 374.159 440.255 366.322 441.956C358.486 443.657 353.508 451.367 355.203 459.175C356.898 466.984 364.625 471.935 372.461 470.234Z" fill="#E8EAF0"/>
<path d="M183.433 41.6954C191.269 39.9943 196.248 32.285 194.552 24.4762C192.857 16.6675 185.13 11.7163 177.294 13.4174C169.458 15.1186 164.48 22.8279 166.175 30.6366C167.87 38.4454 175.597 43.3966 183.433 41.6954Z" fill="#E8EAF0"/>
</g>
</svg>
