<svg width="24" height="24" viewBox="0 0 24 24" fill="none" xmlns="http://www.w3.org/2000/svg">
<path fill-rule="evenodd" clip-rule="evenodd" d="M11.9814 4.14353C11.3842 4.13275 10.7908 4.23983 10.235 4.45866C9.67926 4.67748 9.17211 5.00375 8.74259 5.41879C8.31308 5.83382 7.96962 6.32949 7.73189 6.87741C7.49416 7.42533 7.36681 8.01475 7.35714 8.61194V14.8574C7.35714 15.2363 7.20663 15.5996 6.93872 15.8675C6.67081 16.1354 6.30745 16.2859 5.92857 16.2859H4.14286C3.57454 16.2859 3.02949 16.0602 2.62763 15.6583C2.22576 15.2565 2 14.7115 2 14.1432V11.2861C2 10.7178 2.22576 10.1728 2.62763 9.77095C3.02949 9.3691 3.57454 9.14334 4.14286 9.14334H5.21429V8.58622C5.22732 7.70825 5.41319 6.84144 5.76128 6.0353C6.10936 5.22916 6.61285 4.49949 7.24298 3.88795C7.87311 3.27642 8.61755 2.795 9.43376 2.47119C10.25 2.14738 11.122 1.98753 12 2.00076C12.878 1.98753 13.75 2.14738 14.5662 2.47119C15.3825 2.795 16.1269 3.27642 16.757 3.88795C17.3872 4.49949 17.8906 5.22916 18.2387 6.0353C18.5868 6.84144 18.7727 7.70825 18.7857 8.58622V9.14334H19.8571C20.4255 9.14334 20.9705 9.3691 21.3724 9.77095C21.7742 10.1728 22 10.7178 22 11.2861V14.1432C22 14.7115 21.7742 15.2565 21.3724 15.6583C20.9705 16.0602 20.4255 16.2859 19.8571 16.2859H18.7857V17.0002C18.7859 17.9655 18.4306 18.8971 17.7877 19.6172C17.1448 20.3373 16.2592 20.7955 15.3 20.9043C15.1137 21.2369 14.8421 21.5138 14.5131 21.7064C14.1842 21.899 13.8098 22.0003 13.4286 22H11.2857C10.7174 22 10.1723 21.7742 9.77049 21.3724C9.36862 20.9705 9.14286 20.4255 9.14286 19.8572C9.14286 19.2889 9.36862 18.7439 9.77049 18.3421C10.1723 17.9402 10.7174 17.7144 11.2857 17.7144H13.4286C14.2029 17.7144 14.8814 18.1244 15.2571 18.7401C15.6509 18.6496 16.0023 18.4283 16.254 18.1123C16.5057 17.7962 16.6428 17.4042 16.6429 17.0002V8.61051C16.6331 8.01024 16.5044 7.41788 16.2642 6.86765C16.0241 6.31742 15.6773 5.82025 15.2438 5.40487C14.8104 4.98949 14.2989 4.66415 13.7389 4.44765C13.1789 4.23115 12.5816 4.12779 11.9814 4.14353Z" fill="white"/>
</svg>
