<svg width="275" height="270" viewBox="0 0 275 270" fill="none" xmlns="http://www.w3.org/2000/svg">
<g opacity="0.5">
<path d="M137.946 0.0510254L151.684 67.5474L190.38 10.4775L177.22 78.1195L234.807 40.1619L196.748 97.6563L264.466 84.5913L207.297 123.186L274.83 137.003L207.263 150.814L264.336 189.408L196.65 176.343L234.567 233.838L177.074 195.88L190.065 263.528L151.511 206.452L137.605 273.949L123.861 206.452L85.165 263.528L98.3244 195.88L40.7373 233.838L78.7964 176.343L11.0847 189.408L68.2478 150.814L0.715143 137.003L68.2821 123.186L11.2151 84.5913L78.8943 97.6563L40.9782 40.1619L98.4709 78.1195L85.4797 10.4775L124.034 67.5474L137.946 0.0510254Z" fill="#EDEDED"/>
<path d="M137.946 0.0510254L151.684 67.5474L190.38 10.4775L177.22 78.1195L234.807 40.1619L196.748 97.6563L264.466 84.5913L207.297 123.186L274.83 137.003L207.263 150.814L264.336 189.408L196.65 176.343L234.567 233.838L177.074 195.88L190.065 263.528L151.511 206.452L137.605 273.949L123.861 206.452L85.165 263.528L98.3244 195.88L40.7373 233.838L78.7964 176.343L11.0847 189.408L68.2478 150.814L0.715143 137.003L68.2821 123.186L11.2151 84.5913L78.8943 97.6563L40.9782 40.1619L98.4709 78.1195L85.4797 10.4775L124.034 67.5474L137.946 0.0510254Z" fill="#EDEDED"/>
<path d="M137.946 0.0510254L151.684 67.5474L190.38 10.4775L177.22 78.1195L234.807 40.1619L196.748 97.6563L264.466 84.5913L207.297 123.186L274.83 137.003L207.263 150.814L264.336 189.408L196.65 176.343L234.567 233.838L177.074 195.88L190.065 263.528L151.511 206.452L137.605 273.949L123.861 206.452L85.165 263.528L98.3244 195.88L40.7373 233.838L78.7964 176.343L11.0847 189.408L68.2478 150.814L0.715143 137.003L68.2821 123.186L11.2151 84.5913L78.8943 97.6563L40.9782 40.1619L98.4709 78.1195L85.4797 10.4775L124.034 67.5474L137.946 0.0510254Z" fill="#EDEDED"/>
<path d="M137.946 0.0510254L151.684 67.5474L190.38 10.4775L177.22 78.1195L234.807 40.1619L196.748 97.6563L264.466 84.5913L207.297 123.186L274.83 137.003L207.263 150.814L264.336 189.408L196.65 176.343L234.567 233.838L177.074 195.88L190.065 263.528L151.511 206.452L137.605 273.949L123.861 206.452L85.165 263.528L98.3244 195.88L40.7373 233.838L78.7964 176.343L11.0847 189.408L68.2478 150.814L0.715143 137.003L68.2821 123.186L11.2151 84.5913L78.8943 97.6563L40.9782 40.1619L98.4709 78.1195L85.4797 10.4775L124.034 67.5474L137.946 0.0510254Z" fill="#EDEDED"/>
<path d="M159.943 30.8817C163.882 30.8817 167.079 27.6909 167.084 23.7548C167.089 19.8187 163.9 16.6279 159.961 16.6279C156.021 16.6279 152.824 19.8187 152.819 23.7548C152.814 27.6909 156.004 30.8817 159.943 30.8817Z" fill="#EDEDED"/>
<path d="M159.943 30.8817C163.882 30.8817 167.079 27.6909 167.084 23.7548C167.089 19.8187 163.9 16.6279 159.961 16.6279C156.021 16.6279 152.824 19.8187 152.819 23.7548C152.814 27.6909 156.004 30.8817 159.943 30.8817Z" fill="#EDEDED"/>
<path d="M159.943 30.8817C163.882 30.8817 167.079 27.6909 167.084 23.7548C167.089 19.8187 163.9 16.6279 159.961 16.6279C156.021 16.6279 152.824 19.8187 152.819 23.7548C152.814 27.6909 156.004 30.8817 159.943 30.8817Z" fill="#EDEDED"/>
<path d="M159.943 30.8817C163.882 30.8817 167.079 27.6909 167.084 23.7548C167.089 19.8187 163.9 16.6279 159.961 16.6279C156.021 16.6279 152.824 19.8187 152.819 23.7548C152.814 27.6909 156.004 30.8817 159.943 30.8817Z" fill="#EDEDED"/>
<path d="M115.84 257.372C119.779 257.372 122.976 254.181 122.981 250.245C122.986 246.309 119.797 243.118 115.858 243.118C111.918 243.118 108.721 246.309 108.716 250.245C108.711 254.181 111.901 257.372 115.84 257.372Z" fill="#EDEDED"/>
<path d="M115.84 257.372C119.779 257.372 122.976 254.181 122.981 250.245C122.986 246.309 119.797 243.118 115.858 243.118C111.918 243.118 108.721 246.309 108.716 250.245C108.711 254.181 111.901 257.372 115.84 257.372Z" fill="#EDEDED"/>
<path d="M115.84 257.372C119.779 257.372 122.976 254.181 122.981 250.245C122.986 246.309 119.797 243.118 115.858 243.118C111.918 243.118 108.721 246.309 108.716 250.245C108.711 254.181 111.901 257.372 115.84 257.372Z" fill="#EDEDED"/>
<path d="M115.84 257.372C119.779 257.372 122.976 254.181 122.981 250.245C122.986 246.309 119.797 243.118 115.858 243.118C111.918 243.118 108.721 246.309 108.716 250.245C108.711 254.181 111.901 257.372 115.84 257.372Z" fill="#EDEDED"/>
<path d="M202.479 48.4534C206.418 48.4534 209.616 45.2626 209.621 41.3265C209.626 37.3904 206.436 34.1996 202.497 34.1996C198.558 34.1996 195.36 37.3904 195.356 41.3265C195.351 45.2626 198.54 48.4534 202.479 48.4534Z" fill="#EDEDED"/>
<path d="M202.479 48.4534C206.418 48.4534 209.616 45.2626 209.621 41.3265C209.626 37.3904 206.436 34.1996 202.497 34.1996C198.558 34.1996 195.36 37.3904 195.356 41.3265C195.351 45.2626 198.54 48.4534 202.479 48.4534Z" fill="#EDEDED"/>
<path d="M202.479 48.4534C206.418 48.4534 209.616 45.2626 209.621 41.3265C209.626 37.3904 206.436 34.1996 202.497 34.1996C198.558 34.1996 195.36 37.3904 195.356 41.3265C195.351 45.2626 198.54 48.4534 202.479 48.4534Z" fill="#EDEDED"/>
<path d="M202.479 48.4534C206.418 48.4534 209.616 45.2626 209.621 41.3265C209.626 37.3904 206.436 34.1996 202.497 34.1996C198.558 34.1996 195.36 37.3904 195.356 41.3265C195.351 45.2626 198.54 48.4534 202.479 48.4534Z" fill="#EDEDED"/>
<path d="M73.3029 239.806C77.2421 239.806 80.4394 236.615 80.4443 232.679C80.4492 228.743 77.2598 225.553 73.3206 225.553C69.3814 225.553 66.1841 228.743 66.1792 232.679C66.1743 236.615 69.3637 239.806 73.3029 239.806Z" fill="#EDEDED"/>
<path d="M73.3029 239.806C77.2421 239.806 80.4394 236.615 80.4443 232.679C80.4492 228.743 77.2598 225.553 73.3206 225.553C69.3814 225.553 66.1841 228.743 66.1792 232.679C66.1743 236.615 69.3637 239.806 73.3029 239.806Z" fill="#EDEDED"/>
<path d="M73.3029 239.806C77.2421 239.806 80.4394 236.615 80.4443 232.679C80.4492 228.743 77.2598 225.553 73.3206 225.553C69.3814 225.553 66.1841 228.743 66.1792 232.679C66.1743 236.615 69.3637 239.806 73.3029 239.806Z" fill="#EDEDED"/>
<path d="M73.3029 239.806C77.2421 239.806 80.4394 236.615 80.4443 232.679C80.4492 228.743 77.2598 225.553 73.3206 225.553C69.3814 225.553 66.1841 228.743 66.1792 232.679C66.1743 236.615 69.3637 239.806 73.3029 239.806Z" fill="#EDEDED"/>
<path d="M234.126 80.3151C238.066 80.3151 241.263 77.1243 241.268 73.1882C241.273 69.2522 238.083 66.0613 234.144 66.0613C230.205 66.0613 227.008 69.2522 227.003 73.1882C226.998 77.1243 230.187 80.3151 234.126 80.3151Z" fill="#EDEDED"/>
<path d="M234.126 80.3151C238.066 80.3151 241.263 77.1243 241.268 73.1882C241.273 69.2522 238.083 66.0613 234.144 66.0613C230.205 66.0613 227.008 69.2522 227.003 73.1882C226.998 77.1243 230.187 80.3151 234.126 80.3151Z" fill="#EDEDED"/>
<path d="M234.126 80.3151C238.066 80.3151 241.263 77.1243 241.268 73.1882C241.273 69.2522 238.083 66.0613 234.144 66.0613C230.205 66.0613 227.008 69.2522 227.003 73.1882C226.998 77.1243 230.187 80.3151 234.126 80.3151Z" fill="#EDEDED"/>
<path d="M234.126 80.3151C238.066 80.3151 241.263 77.1243 241.268 73.1882C241.273 69.2522 238.083 66.0613 234.144 66.0613C230.205 66.0613 227.008 69.2522 227.003 73.1882C226.998 77.1243 230.187 80.3151 234.126 80.3151Z" fill="#EDEDED"/>
<path d="M41.6497 207.938C45.5889 207.938 48.7863 204.748 48.7911 200.811C48.796 196.875 45.6067 193.685 41.6675 193.685C37.7283 193.685 34.5309 196.875 34.526 200.811C34.5212 204.748 37.7105 207.938 41.6497 207.938Z" fill="#EDEDED"/>
<path d="M41.6497 207.938C45.5889 207.938 48.7863 204.748 48.7911 200.811C48.796 196.875 45.6067 193.685 41.6675 193.685C37.7283 193.685 34.5309 196.875 34.526 200.811C34.5212 204.748 37.7105 207.938 41.6497 207.938Z" fill="#EDEDED"/>
<path d="M41.6497 207.938C45.5889 207.938 48.7863 204.748 48.7911 200.811C48.796 196.875 45.6067 193.685 41.6675 193.685C37.7283 193.685 34.5309 196.875 34.526 200.811C34.5212 204.748 37.7105 207.938 41.6497 207.938Z" fill="#EDEDED"/>
<path d="M41.6497 207.938C45.5889 207.938 48.7863 204.748 48.7911 200.811C48.796 196.875 45.6067 193.685 41.6675 193.685C37.7283 193.685 34.5309 196.875 34.526 200.811C34.5212 204.748 37.7105 207.938 41.6497 207.938Z" fill="#EDEDED"/>
<path d="M251.06 121.257C255 121.257 258.197 118.066 258.202 114.13C258.207 110.194 255.017 107.003 251.078 107.003C247.139 107.003 243.942 110.194 243.937 114.13C243.932 118.066 247.121 121.257 251.06 121.257Z" fill="#EDEDED"/>
<path d="M251.06 121.257C255 121.257 258.197 118.066 258.202 114.13C258.207 110.194 255.017 107.003 251.078 107.003C247.139 107.003 243.942 110.194 243.937 114.13C243.932 118.066 247.121 121.257 251.06 121.257Z" fill="#EDEDED"/>
<path d="M251.06 121.257C255 121.257 258.197 118.066 258.202 114.13C258.207 110.194 255.017 107.003 251.078 107.003C247.139 107.003 243.942 110.194 243.937 114.13C243.932 118.066 247.121 121.257 251.06 121.257Z" fill="#EDEDED"/>
<path d="M251.06 121.257C255 121.257 258.197 118.066 258.202 114.13C258.207 110.194 255.017 107.003 251.078 107.003C247.139 107.003 243.942 110.194 243.937 114.13C243.932 118.066 247.121 121.257 251.06 121.257Z" fill="#EDEDED"/>
<path d="M24.7223 167.003C28.6615 167.003 31.8588 163.812 31.8637 159.876C31.8686 155.94 28.6792 152.749 24.74 152.749C20.8008 152.749 17.6035 155.94 17.5986 159.876C17.5937 163.812 20.7831 167.003 24.7223 167.003Z" fill="#EDEDED"/>
<path d="M24.7223 167.003C28.6615 167.003 31.8588 163.812 31.8637 159.876C31.8686 155.94 28.6792 152.749 24.74 152.749C20.8008 152.749 17.6035 155.94 17.5986 159.876C17.5937 163.812 20.7831 167.003 24.7223 167.003Z" fill="#EDEDED"/>
<path d="M24.7223 167.003C28.6615 167.003 31.8588 163.812 31.8637 159.876C31.8686 155.94 28.6792 152.749 24.74 152.749C20.8008 152.749 17.6035 155.94 17.5986 159.876C17.5937 163.812 20.7831 167.003 24.7223 167.003Z" fill="#EDEDED"/>
<path d="M24.7223 167.003C28.6615 167.003 31.8588 163.812 31.8637 159.876C31.8686 155.94 28.6792 152.749 24.74 152.749C20.8008 152.749 17.6035 155.94 17.5986 159.876C17.5937 163.812 20.7831 167.003 24.7223 167.003Z" fill="#EDEDED"/>
<path d="M251.388 165.031C255.328 165.031 258.525 161.841 258.53 157.904C258.535 153.968 255.345 150.778 251.406 150.778C247.467 150.778 244.27 153.968 244.265 157.904C244.26 161.841 247.449 165.031 251.388 165.031Z" fill="#EDEDED"/>
<path d="M251.388 165.031C255.328 165.031 258.525 161.841 258.53 157.904C258.535 153.968 255.345 150.778 251.406 150.778C247.467 150.778 244.27 153.968 244.265 157.904C244.26 161.841 247.449 165.031 251.388 165.031Z" fill="#EDEDED"/>
<path d="M251.388 165.031C255.328 165.031 258.525 161.841 258.53 157.904C258.535 153.968 255.345 150.778 251.406 150.778C247.467 150.778 244.27 153.968 244.265 157.904C244.26 161.841 247.449 165.031 251.388 165.031Z" fill="#EDEDED"/>
<path d="M251.388 165.031C255.328 165.031 258.525 161.841 258.53 157.904C258.535 153.968 255.345 150.778 251.406 150.778C247.467 150.778 244.27 153.968 244.265 157.904C244.26 161.841 247.449 165.031 251.388 165.031Z" fill="#EDEDED"/>
<path d="M24.3944 123.228C28.3336 123.228 31.5309 120.037 31.5358 116.101C31.5407 112.165 28.3513 108.974 24.4121 108.974C20.4729 108.974 17.2756 112.165 17.2707 116.101C17.2658 120.037 20.4552 123.228 24.3944 123.228Z" fill="#EDEDED"/>
<path d="M24.3944 123.228C28.3336 123.228 31.5309 120.037 31.5358 116.101C31.5407 112.165 28.3513 108.974 24.4121 108.974C20.4729 108.974 17.2756 112.165 17.2707 116.101C17.2658 120.037 20.4552 123.228 24.3944 123.228Z" fill="#EDEDED"/>
<path d="M24.3944 123.228C28.3336 123.228 31.5309 120.037 31.5358 116.101C31.5407 112.165 28.3513 108.974 24.4121 108.974C20.4729 108.974 17.2756 112.165 17.2707 116.101C17.2658 120.037 20.4552 123.228 24.3944 123.228Z" fill="#EDEDED"/>
<path d="M24.3944 123.228C28.3336 123.228 31.5309 120.037 31.5358 116.101C31.5407 112.165 28.3513 108.974 24.4121 108.974C20.4729 108.974 17.2756 112.165 17.2707 116.101C17.2658 120.037 20.4552 123.228 24.3944 123.228Z" fill="#EDEDED"/>
<path d="M234.697 206.835C238.636 206.835 241.834 203.644 241.838 199.708C241.843 195.772 238.654 192.581 234.715 192.581C230.776 192.581 227.578 195.772 227.573 199.708C227.568 203.644 230.758 206.835 234.697 206.835Z" fill="#EDEDED"/>
<path d="M234.697 206.835C238.636 206.835 241.834 203.644 241.838 199.708C241.843 195.772 238.654 192.581 234.715 192.581C230.776 192.581 227.578 195.772 227.573 199.708C227.568 203.644 230.758 206.835 234.697 206.835Z" fill="#EDEDED"/>
<path d="M234.697 206.835C238.636 206.835 241.834 203.644 241.838 199.708C241.843 195.772 238.654 192.581 234.715 192.581C230.776 192.581 227.578 195.772 227.573 199.708C227.568 203.644 230.758 206.835 234.697 206.835Z" fill="#EDEDED"/>
<path d="M234.697 206.835C238.636 206.835 241.834 203.644 241.838 199.708C241.843 195.772 238.654 192.581 234.715 192.581C230.776 192.581 227.578 195.772 227.573 199.708C227.568 203.644 230.758 206.835 234.697 206.835Z" fill="#EDEDED"/>
<path d="M41.0786 81.4252C45.0178 81.4252 48.2151 78.2344 48.22 74.2983C48.2249 70.3622 45.0355 67.1714 41.0963 67.1714C37.1571 67.1714 33.9598 70.3622 33.9549 74.2983C33.95 78.2344 37.1394 81.4252 41.0786 81.4252Z" fill="#EDEDED"/>
<path d="M41.0786 81.4252C45.0178 81.4252 48.2151 78.2344 48.22 74.2983C48.2249 70.3622 45.0355 67.1714 41.0963 67.1714C37.1571 67.1714 33.9598 70.3622 33.9549 74.2983C33.95 78.2344 37.1394 81.4252 41.0786 81.4252Z" fill="#EDEDED"/>
<path d="M41.0786 81.4252C45.0178 81.4252 48.2151 78.2344 48.22 74.2983C48.2249 70.3622 45.0355 67.1714 41.0963 67.1714C37.1571 67.1714 33.9598 70.3622 33.9549 74.2983C33.95 78.2344 37.1394 81.4252 41.0786 81.4252Z" fill="#EDEDED"/>
<path d="M41.0786 81.4252C45.0178 81.4252 48.2151 78.2344 48.22 74.2983C48.2249 70.3622 45.0355 67.1714 41.0963 67.1714C37.1571 67.1714 33.9598 70.3622 33.9549 74.2983C33.95 78.2344 37.1394 81.4252 41.0786 81.4252Z" fill="#EDEDED"/>
<path d="M202.241 239.806C206.18 239.806 209.378 236.615 209.383 232.679C209.388 228.743 206.198 225.553 202.259 225.553C198.32 225.553 195.122 228.743 195.118 232.679C195.113 236.615 198.302 239.806 202.241 239.806Z" fill="#EDEDED"/>
<path d="M202.241 239.806C206.18 239.806 209.378 236.615 209.383 232.679C209.388 228.743 206.198 225.553 202.259 225.553C198.32 225.553 195.122 228.743 195.118 232.679C195.113 236.615 198.302 239.806 202.241 239.806Z" fill="#EDEDED"/>
<path d="M202.241 239.806C206.18 239.806 209.378 236.615 209.383 232.679C209.388 228.743 206.198 225.553 202.259 225.553C198.32 225.553 195.122 228.743 195.118 232.679C195.113 236.615 198.302 239.806 202.241 239.806Z" fill="#EDEDED"/>
<path d="M202.241 239.806C206.18 239.806 209.378 236.615 209.383 232.679C209.388 228.743 206.198 225.553 202.259 225.553C198.32 225.553 195.122 228.743 195.118 232.679C195.113 236.615 198.302 239.806 202.241 239.806Z" fill="#EDEDED"/>
<path d="M73.5409 48.4534C77.4801 48.4534 80.6774 45.2626 80.6823 41.3265C80.6872 37.3904 77.4978 34.1996 73.5586 34.1996C69.6194 34.1996 66.4221 37.3904 66.4172 41.3265C66.4123 45.2626 69.6017 48.4534 73.5409 48.4534Z" fill="#EDEDED"/>
<path d="M73.5409 48.4534C77.4801 48.4534 80.6774 45.2626 80.6823 41.3265C80.6872 37.3904 77.4978 34.1996 73.5586 34.1996C69.6194 34.1996 66.4221 37.3904 66.4172 41.3265C66.4123 45.2626 69.6017 48.4534 73.5409 48.4534Z" fill="#EDEDED"/>
<path d="M73.5409 48.4534C77.4801 48.4534 80.6774 45.2626 80.6823 41.3265C80.6872 37.3904 77.4978 34.1996 73.5586 34.1996C69.6194 34.1996 66.4221 37.3904 66.4172 41.3265C66.4123 45.2626 69.6017 48.4534 73.5409 48.4534Z" fill="#EDEDED"/>
<path d="M73.5409 48.4534C77.4801 48.4534 80.6774 45.2626 80.6823 41.3265C80.6872 37.3904 77.4978 34.1996 73.5586 34.1996C69.6194 34.1996 66.4221 37.3904 66.4172 41.3265C66.4123 45.2626 69.6017 48.4534 73.5409 48.4534Z" fill="#EDEDED"/>
<path d="M160.79 257.147C164.729 257.147 167.927 253.957 167.932 250.02C167.937 246.084 164.747 242.894 160.808 242.894C156.869 242.894 153.671 246.084 153.667 250.02C153.662 253.957 156.851 257.147 160.79 257.147Z" fill="#EDEDED"/>
<path d="M160.79 257.147C164.729 257.147 167.927 253.957 167.932 250.02C167.937 246.084 164.747 242.894 160.808 242.894C156.869 242.894 153.671 246.084 153.667 250.02C153.662 253.957 156.851 257.147 160.79 257.147Z" fill="#EDEDED"/>
<path d="M160.79 257.147C164.729 257.147 167.927 253.957 167.932 250.02C167.937 246.084 164.747 242.894 160.808 242.894C156.869 242.894 153.671 246.084 153.667 250.02C153.662 253.957 156.851 257.147 160.79 257.147Z" fill="#EDEDED"/>
<path d="M160.79 257.147C164.729 257.147 167.927 253.957 167.932 250.02C167.937 246.084 164.747 242.894 160.808 242.894C156.869 242.894 153.671 246.084 153.667 250.02C153.662 253.957 156.851 257.147 160.79 257.147Z" fill="#EDEDED"/>
<path d="M114.986 31.1061C118.925 31.1061 122.123 27.9153 122.127 23.9792C122.132 20.0431 118.943 16.8523 115.004 16.8523C111.065 16.8523 107.867 20.0431 107.862 23.9792C107.857 27.9153 111.047 31.1061 114.986 31.1061Z" fill="#EDEDED"/>
<path d="M114.986 31.1061C118.925 31.1061 122.123 27.9153 122.127 23.9792C122.132 20.0431 118.943 16.8523 115.004 16.8523C111.065 16.8523 107.867 20.0431 107.862 23.9792C107.857 27.9153 111.047 31.1061 114.986 31.1061Z" fill="#EDEDED"/>
<path d="M114.986 31.1061C118.925 31.1061 122.123 27.9153 122.127 23.9792C122.132 20.0431 118.943 16.8523 115.004 16.8523C111.065 16.8523 107.867 20.0431 107.862 23.9792C107.857 27.9153 111.047 31.1061 114.986 31.1061Z" fill="#EDEDED"/>
<path d="M114.986 31.1061C118.925 31.1061 122.123 27.9153 122.127 23.9792C122.132 20.0431 118.943 16.8523 115.004 16.8523C111.065 16.8523 107.867 20.0431 107.862 23.9792C107.857 27.9153 111.047 31.1061 114.986 31.1061Z" fill="#EDEDED"/>
</g>
</svg>
