<svg width="741" height="405" viewBox="0 0 741 405" fill="none" xmlns="http://www.w3.org/2000/svg">
<path d="M366.13 -158.208L367.088 -156.041L367.973 -158.239L436.639 -328.925L440.74 -145.183L440.793 -142.81L442.454 -144.506L571.373 -276.099L504.618 -104.68L503.754 -102.462L505.942 -103.398L675.502 -175.866L548.046 -42.8594L546.396 -41.1377L548.78 -41.1676L733.149 -43.4798L564.414 30.8453L562.231 31.8067L564.447 32.6895L735.579 100.877L551.234 105.236L548.855 105.292L550.56 106.952L682.382 235.263L510.505 168.968L508.29 168.114L509.226 170.296L581.683 339.215L448.422 212.348L446.706 210.714L446.733 213.084L448.799 396.874L374.458 228.773L373.5 226.607L372.616 228.804L303.953 399.506L299.849 215.748L299.796 213.375L298.135 215.071L169.216 346.664L235.971 175.245L236.835 173.027L234.646 173.963L65.1028 246.428L192.543 113.424L194.193 111.703L191.808 111.733L7.4433 114.061L176.175 39.7197L178.357 38.7583L176.142 37.8756L5.02558 -30.3155L189.355 -34.6709L191.734 -34.7271L190.029 -36.3872L58.2063 -164.698L230.084 -98.4033L232.299 -97.5491L231.363 -99.7305L158.909 -268.634L292.167 -141.783L293.883 -140.15L293.856 -142.518L291.806 -326.313L366.13 -158.208ZM381.805 -284.52C383.974 -274.531 377.605 -264.663 367.572 -262.485C357.539 -260.307 347.653 -266.646 345.484 -276.636C343.316 -286.625 349.684 -296.493 359.717 -298.671C369.75 -300.849 379.636 -294.51 381.805 -284.52ZM395.791 347.052C397.959 357.041 391.591 366.909 381.558 369.087C371.525 371.265 361.638 364.926 359.47 354.936C357.301 344.947 363.669 335.079 373.702 332.901C383.735 330.723 393.622 337.062 395.791 347.052ZM506.201 -262.291C508.37 -252.301 502.002 -242.433 491.969 -240.255C481.936 -238.077 472.049 -244.417 469.881 -254.406C467.712 -264.395 474.08 -274.263 484.113 -276.441C494.146 -278.619 504.033 -272.28 506.201 -262.291ZM271.396 324.839C273.565 334.828 267.196 344.696 257.163 346.874C247.131 349.052 237.244 342.713 235.075 332.723C232.907 322.734 239.275 312.866 249.308 310.688C259.341 308.51 269.228 314.849 271.396 324.839ZM609.73 -195.491C611.898 -185.501 605.53 -175.633 595.497 -173.455C585.464 -171.277 575.577 -177.617 573.409 -187.606C571.24 -197.595 577.608 -207.464 587.641 -209.642C597.674 -211.82 607.561 -205.48 609.73 -195.491ZM167.849 258.026C170.017 268.015 163.649 277.883 153.616 280.061C143.583 282.239 133.696 275.9 131.528 265.911C129.359 255.921 135.727 246.053 145.76 243.875C155.793 241.697 165.68 248.037 167.849 258.026ZM679.085 -95.8309C681.253 -85.8416 674.885 -75.9735 664.852 -73.7955C654.819 -71.6175 644.932 -77.9569 642.764 -87.9462C640.595 -97.9355 646.964 -107.804 656.996 -109.982C667.029 -112.16 676.916 -105.82 679.085 -95.8309ZM98.5145 158.379C100.683 168.368 94.3148 178.236 84.2819 180.414C74.2489 182.592 64.3623 176.253 62.1937 166.263C60.0252 156.274 66.3934 146.406 76.4263 144.228C86.4593 142.05 96.3459 148.389 98.5145 158.379ZM705.538 21.0789C707.707 31.0682 701.339 40.9363 691.306 43.1144C681.273 45.2924 671.386 38.9529 669.218 28.9636C667.049 18.9743 673.417 9.10616 683.45 6.92814C693.483 4.75014 703.37 11.0896 705.538 21.0789ZM72.0607 41.4687C74.2293 51.458 67.8611 61.3262 57.8281 63.5042C47.7952 65.6822 37.9086 59.3427 35.74 49.3534C33.5715 39.3641 39.9397 29.496 49.9726 27.318C60.0056 25.14 69.8922 31.4794 72.0607 41.4687ZM685.176 142.629C687.344 152.618 680.976 162.486 670.943 164.664C660.91 166.842 651.023 160.503 648.855 150.513C646.686 140.524 653.055 130.656 663.088 128.478C673.12 126.3 683.007 132.639 685.176 142.629ZM92.4043 -80.0766C94.5729 -70.0873 88.2047 -60.2191 78.1717 -58.0411C68.1388 -55.8631 58.2522 -62.2026 56.0836 -72.1919C53.9151 -82.1812 60.2833 -92.0493 70.3162 -94.2273C80.3491 -96.4053 90.2358 -90.0659 92.4043 -80.0766ZM617.355 249.736C619.524 259.725 613.155 269.593 603.123 271.771C593.09 273.949 583.203 267.61 581.034 257.621C578.866 247.631 585.234 237.763 595.267 235.585C605.3 233.407 615.187 239.747 617.355 249.736ZM160.242 -187.188C162.411 -177.198 156.043 -167.33 146.01 -165.152C135.977 -162.974 126.09 -169.314 123.922 -179.303C121.753 -189.292 128.121 -199.16 138.154 -201.338C148.187 -203.516 158.074 -197.177 160.242 -187.188ZM516.268 320.269C518.436 330.258 512.068 340.126 502.035 342.304C492.002 344.482 482.115 338.143 479.947 328.154C477.778 318.164 484.146 308.296 494.179 306.118C504.212 303.94 514.099 310.28 516.268 320.269ZM261.311 -257.734C263.479 -247.745 257.111 -237.876 247.078 -235.698C237.045 -233.52 227.158 -239.86 224.99 -249.849C222.821 -259.839 229.19 -269.707 239.223 -271.885C249.255 -274.063 259.142 -267.723 261.311 -257.734Z" stroke="white" stroke-opacity="0.14" stroke-width="2"/>
</svg>
