<svg width="741" height="578" viewBox="0 0 741 578" fill="none" xmlns="http://www.w3.org/2000/svg">
<path d="M366.13 175.792L367.088 177.959L367.973 175.761L436.639 5.07489L440.74 188.817L440.793 191.19L442.454 189.494L571.373 57.9011L504.618 229.32L503.754 231.538L505.942 230.602L675.502 158.134L548.046 291.141L546.396 292.862L548.78 292.832L733.149 290.52L564.414 364.845L562.231 365.807L564.447 366.689L735.579 434.877L551.234 439.236L548.855 439.292L550.56 440.952L682.382 569.263L510.505 502.968L508.29 502.114L509.226 504.296L581.683 673.215L448.422 546.348L446.706 544.714L446.733 547.084L448.799 730.874L374.458 562.773L373.5 560.607L372.616 562.804L303.953 733.506L299.849 549.748L299.796 547.375L298.135 549.071L169.216 680.664L235.971 509.245L236.835 507.027L234.646 507.963L65.1028 580.428L192.543 447.424L194.193 445.703L191.808 445.733L7.4433 448.061L176.175 373.72L178.357 372.758L176.142 371.876L5.02558 303.684L189.355 299.329L191.734 299.273L190.029 297.613L58.2063 169.302L230.084 235.597L232.299 236.451L231.363 234.269L158.909 65.3661L292.167 192.217L293.883 193.85L293.856 191.482L291.806 7.68741L366.13 175.792ZM381.805 49.4797C383.974 59.469 377.605 69.3371 367.572 71.5151C357.539 73.6931 347.653 67.3537 345.484 57.3644C343.316 47.3751 349.684 37.5069 359.717 35.3289C369.75 33.1509 379.636 39.4903 381.805 49.4797ZM395.791 681.052C397.959 691.041 391.591 700.909 381.558 703.087C371.525 705.265 361.638 698.926 359.47 688.936C357.301 678.947 363.669 669.079 373.702 666.901C383.735 664.723 393.622 671.062 395.791 681.052ZM506.201 71.7095C508.37 81.6988 502.002 91.5669 491.969 93.7449C481.936 95.9229 472.049 89.5835 469.881 79.5942C467.712 69.6049 474.08 59.7367 484.113 57.5587C494.146 55.3807 504.033 61.7202 506.201 71.7095ZM271.396 658.839C273.565 668.828 267.196 678.696 257.163 680.874C247.131 683.052 237.244 676.713 235.075 666.723C232.907 656.734 239.275 646.866 249.308 644.688C259.341 642.51 269.228 648.849 271.396 658.839ZM609.73 138.509C611.898 148.499 605.53 158.367 595.497 160.545C585.464 162.723 575.577 156.383 573.409 146.394C571.24 136.405 577.608 126.536 587.641 124.358C597.674 122.18 607.561 128.52 609.73 138.509ZM167.849 592.026C170.017 602.015 163.649 611.883 153.616 614.061C143.583 616.239 133.696 609.9 131.528 599.911C129.359 589.921 135.727 580.053 145.76 577.875C155.793 575.697 165.68 582.037 167.849 592.026ZM679.085 238.169C681.253 248.158 674.885 258.027 664.852 260.205C654.819 262.383 644.932 256.043 642.764 246.054C640.595 236.064 646.964 226.196 656.996 224.018C667.029 221.84 676.916 228.18 679.085 238.169ZM98.5145 492.379C100.683 502.368 94.3148 512.236 84.2819 514.414C74.2489 516.592 64.3623 510.253 62.1937 500.263C60.0252 490.274 66.3934 480.406 76.4263 478.228C86.4593 476.05 96.3459 482.389 98.5145 492.379ZM705.538 355.079C707.707 365.068 701.339 374.936 691.306 377.114C681.273 379.292 671.386 372.953 669.218 362.964C667.049 352.974 673.417 343.106 683.45 340.928C693.483 338.75 703.37 345.09 705.538 355.079ZM72.0607 375.469C74.2293 385.458 67.8611 395.326 57.8281 397.504C47.7952 399.682 37.9086 393.343 35.74 383.353C33.5715 373.364 39.9397 363.496 49.9726 361.318C60.0056 359.14 69.8922 365.479 72.0607 375.469ZM685.176 476.629C687.344 486.618 680.976 496.486 670.943 498.664C660.91 500.842 651.023 494.503 648.855 484.513C646.686 474.524 653.055 464.656 663.088 462.478C673.12 460.3 683.007 466.639 685.176 476.629ZM92.4043 253.923C94.5729 263.913 88.2047 273.781 78.1717 275.959C68.1388 278.137 58.2522 271.797 56.0836 261.808C53.9151 251.819 60.2833 241.951 70.3162 239.773C80.3491 237.595 90.2358 243.934 92.4043 253.923ZM617.355 583.736C619.524 593.725 613.155 603.593 603.123 605.771C593.09 607.949 583.203 601.61 581.034 591.621C578.866 581.631 585.234 571.763 595.267 569.585C605.3 567.407 615.187 573.747 617.355 583.736ZM160.242 146.812C162.411 156.802 156.043 166.67 146.01 168.848C135.977 171.026 126.09 164.686 123.922 154.697C121.753 144.708 128.121 134.84 138.154 132.662C148.187 130.484 158.074 136.823 160.242 146.812ZM516.268 654.269C518.436 664.258 512.068 674.126 502.035 676.304C492.002 678.482 482.115 672.143 479.947 662.154C477.778 652.164 484.146 642.296 494.179 640.118C504.212 637.94 514.099 644.28 516.268 654.269ZM261.311 76.2661C263.479 86.2554 257.111 96.1235 247.078 98.3015C237.045 100.48 227.158 94.1401 224.99 84.1508C222.821 74.1615 229.19 64.2933 239.223 62.1153C249.255 59.9373 259.142 66.2768 261.311 76.2661Z" stroke="white" stroke-opacity="0.08" stroke-width="2"/>
</svg>
