<svg width="538" height="309" viewBox="0 0 538 309" fill="none" xmlns="http://www.w3.org/2000/svg">
<path d="M211.321 2.37182L266.673 127.564L317.811 0.449694L320.865 137.291L416.878 39.2868L367.16 166.956L493.444 112.983L398.515 212.046L535.834 210.324L410.159 265.682L537.618 316.468L400.321 319.715L498.5 415.278L370.493 365.905L424.456 491.707L325.213 397.226L326.752 534.1L271.388 408.91L220.253 536.037L217.196 399.183L121.183 497.188L170.901 369.518L44.6284 423.489L139.546 324.428L2.22994 326.162L127.902 270.793L0.454533 220.004L137.74 216.76L39.5609 121.197L167.567 170.57L113.608 44.7793L212.848 139.249L211.321 2.37182Z" fill="#F4F6FC" fill-opacity="0.85"/>
<path d="M267.21 52.9127C274.878 51.248 279.749 43.704 278.091 36.0628C276.432 28.4215 268.871 23.5765 261.202 25.2412C253.534 26.9058 248.663 34.4498 250.321 42.091C251.98 49.7323 259.541 54.5773 267.21 52.9127Z" fill="#F4F6FC" fill-opacity="0.85"/>
<path d="M277.356 511.125C285.024 509.461 289.896 501.917 288.237 494.275C286.578 486.634 279.017 481.789 271.349 483.454C263.681 485.119 258.809 492.662 260.468 500.304C262.127 507.945 269.688 512.79 277.356 511.125Z" fill="#F4F6FC" fill-opacity="0.85"/>
<path d="M357.461 69.0406C365.129 67.376 370 59.832 368.342 52.1907C366.683 44.5495 359.122 39.7045 351.453 41.3691C343.785 43.0338 338.914 50.5777 340.572 58.219C342.231 65.8603 349.792 70.7053 357.461 69.0406Z" fill="#F4F6FC" fill-opacity="0.85"/>
<path d="M187.107 495.01C194.775 493.345 199.646 485.801 197.988 478.16C196.329 470.518 188.768 465.673 181.1 467.338C173.431 469.003 168.56 476.547 170.219 484.188C171.877 491.829 179.438 496.674 187.107 495.01Z" fill="#F4F6FC" fill-opacity="0.85"/>
<path d="M432.571 117.505C440.24 115.84 445.111 108.296 443.452 100.655C441.794 93.0135 434.232 88.1685 426.564 89.8331C418.896 91.4978 414.024 99.0418 415.683 106.683C417.342 114.324 424.903 119.169 432.571 117.505Z" fill="#F4F6FC" fill-opacity="0.85"/>
<path d="M111.982 446.536C119.65 444.872 124.521 437.328 122.863 429.686C121.204 422.045 113.643 417.2 105.975 418.865C98.3064 420.529 93.4348 428.073 95.0936 435.715C96.7524 443.356 104.313 448.201 111.982 446.536Z" fill="#F4F6FC" fill-opacity="0.85"/>
<path d="M482.889 189.809C490.557 188.144 495.429 180.6 493.77 172.959C492.111 165.318 484.55 160.473 476.882 162.137C469.214 163.802 464.342 171.346 466.001 178.987C467.66 186.629 475.221 191.474 482.889 189.809Z" fill="#F4F6FC" fill-opacity="0.85"/>
<path d="M61.679 374.241C69.3473 372.576 74.2189 365.032 72.56 357.391C70.9012 349.75 63.3402 344.905 55.672 346.569C48.0037 348.234 43.1321 355.778 44.7909 363.419C46.4498 371.061 54.0108 375.905 61.679 374.241Z" fill="#F4F6FC" fill-opacity="0.85"/>
<path d="M502.082 274.628C509.75 272.964 514.622 265.42 512.963 257.778C511.304 250.137 503.743 245.292 496.075 246.957C488.406 248.622 483.535 256.166 485.194 263.807C486.852 271.448 494.413 276.293 502.082 274.628Z" fill="#F4F6FC" fill-opacity="0.85"/>
<path d="M42.4866 289.421C50.1548 287.757 55.0264 280.213 53.3676 272.572C51.7087 264.93 44.1477 260.085 36.4795 261.75C28.8113 263.415 23.9397 270.959 25.5985 278.6C27.2573 286.241 34.8183 291.086 42.4866 289.421Z" fill="#F4F6FC" fill-opacity="0.85"/>
<path d="M487.308 362.814C494.977 361.149 499.848 353.605 498.189 345.964C496.531 338.323 488.97 333.478 481.301 335.143C473.633 336.807 468.761 344.351 470.42 351.992C472.079 359.634 479.64 364.479 487.308 362.814Z" fill="#F4F6FC" fill-opacity="0.85"/>
<path d="M57.2461 201.239C64.9143 199.574 69.7859 192.03 68.1271 184.389C66.4683 176.748 58.9072 171.903 51.239 173.567C43.5708 175.232 38.6992 182.776 40.358 190.417C42.0168 198.059 49.5778 202.904 57.2461 201.239Z" fill="#F4F6FC" fill-opacity="0.85"/>
<path d="M438.104 440.522C445.772 438.857 450.644 431.313 448.985 423.672C447.326 416.03 439.765 411.185 432.097 412.85C424.429 414.515 419.557 422.059 421.216 429.7C422.875 437.341 430.436 442.186 438.104 440.522Z" fill="#F4F6FC" fill-opacity="0.85"/>
<path d="M106.463 123.529C114.132 121.864 119.003 114.32 117.344 106.679C115.686 99.0374 108.124 94.1924 100.456 95.8571C92.788 97.5217 87.9164 105.066 89.5752 112.707C91.234 120.348 98.7951 125.193 106.463 123.529Z" fill="#F4F6FC" fill-opacity="0.85"/>
<path d="M364.764 491.694C372.432 490.03 377.303 482.486 375.645 474.844C373.986 467.203 366.425 462.358 358.757 464.023C351.088 465.687 346.217 473.231 347.876 480.873C349.534 488.514 357.095 493.359 364.764 491.694Z" fill="#F4F6FC" fill-opacity="0.85"/>
<path d="M179.79 72.3465C187.458 70.6819 192.329 63.1379 190.671 55.4966C189.012 47.8554 181.451 43.0104 173.782 44.675C166.114 46.3397 161.243 53.8836 162.901 61.5249C164.56 69.1662 172.121 74.0112 179.79 72.3465Z" fill="#F4F6FC" fill-opacity="0.85"/>
<path d="M265.758 127.969L266.716 130.135L267.601 127.937L316.92 5.34388L319.865 137.313L319.918 139.687L321.579 137.991L414.173 43.4767L366.228 166.593L365.364 168.811L367.553 167.876L489.334 115.827L397.793 211.355L396.143 213.076L398.528 213.046L530.943 211.386L409.755 264.767L407.573 265.728L409.788 266.611L532.698 315.584L400.298 318.715L397.918 318.771L399.624 320.431L494.301 412.586L370.853 364.972L368.639 364.118L369.574 366.299L421.616 487.622L325.902 396.502L324.186 394.868L324.213 397.237L325.697 529.243L272.302 408.506L271.344 406.339L270.46 408.537L221.144 531.142L218.196 399.161L218.143 396.788L216.482 398.484L123.888 492.998L171.833 369.881L172.697 367.663L170.508 368.599L48.7387 420.645L140.268 325.12L141.918 323.398L139.533 323.428L7.1202 325.1L128.306 271.708L130.488 270.746L128.273 269.864L5.37418 220.888L137.763 217.76L140.143 217.703L138.437 216.043L43.7595 123.888L167.208 171.503L169.422 172.357L168.487 170.176L116.448 48.8635L212.159 139.973L213.875 141.606L213.848 139.238L212.375 7.22924L265.758 127.969ZM277.113 36.2749C278.654 43.3732 274.129 50.3872 266.997 51.9354C259.866 53.4836 252.84 48.9772 251.299 41.8789C249.758 34.7806 254.283 27.7666 261.415 26.2184C268.546 24.6702 275.572 29.1766 277.113 36.2749ZM287.26 494.488C288.801 501.586 284.276 508.6 277.144 510.148C270.012 511.696 262.986 507.19 261.445 500.092C259.904 492.993 264.429 485.979 271.561 484.431C278.693 482.883 285.719 487.389 287.26 494.488ZM367.364 52.4029C368.905 59.5012 364.38 66.5152 357.248 68.0634C350.117 69.6116 343.091 65.1052 341.55 58.0069C340.009 50.9086 344.534 43.8946 351.666 42.3464C358.797 40.7982 365.823 45.3046 367.364 52.4029ZM197.01 478.372C198.551 485.47 194.026 492.484 186.894 494.032C179.763 495.581 172.737 491.074 171.196 483.976C169.655 476.878 174.18 469.864 181.312 468.315C188.443 466.767 195.469 471.274 197.01 478.372ZM442.475 100.867C444.016 107.965 439.491 114.979 432.359 116.527C425.227 118.076 418.201 113.569 416.66 106.471C415.12 99.3726 419.645 92.3586 426.776 90.8104C433.908 89.2622 440.934 93.7686 442.475 100.867ZM121.885 429.898C123.426 436.997 118.901 444.011 111.77 445.559C104.638 447.107 97.6118 442.601 96.0708 435.502C94.5299 428.404 99.055 421.39 106.187 419.842C113.318 418.294 120.344 422.8 121.885 429.898ZM492.793 173.171C494.334 180.27 489.809 187.284 482.677 188.832C475.545 190.38 468.519 185.874 466.978 178.775C465.437 171.677 469.963 164.663 477.094 163.115C484.226 161.567 491.252 166.073 492.793 173.171ZM71.5828 357.603C73.1237 364.701 68.5986 371.715 61.4669 373.264C54.3351 374.812 47.3091 370.305 45.7682 363.207C44.2272 356.109 48.7523 349.095 55.8841 347.547C63.0159 345.998 70.0419 350.505 71.5828 357.603ZM511.985 257.991C513.526 265.089 509.001 272.103 501.87 273.651C494.738 275.199 487.712 270.693 486.171 263.595C484.63 256.496 489.155 249.482 496.287 247.934C503.419 246.386 510.445 250.892 511.985 257.991ZM52.3903 272.784C53.9313 279.882 49.4062 286.896 42.2744 288.444C35.1427 289.992 28.1167 285.486 26.5757 278.388C25.0348 271.289 29.5599 264.275 36.6916 262.727C43.8234 261.179 50.8494 265.685 52.3903 272.784ZM497.212 346.176C498.753 353.275 494.228 360.289 487.096 361.837C479.964 363.385 472.938 358.879 471.398 351.78C469.857 344.682 474.382 337.668 481.513 336.12C488.645 334.572 495.671 339.078 497.212 346.176ZM67.1498 184.601C68.6908 191.7 64.1657 198.713 57.0339 200.262C49.9022 201.81 42.8762 197.303 41.3352 190.205C39.7943 183.107 44.3194 176.093 51.4511 174.545C58.5829 172.996 65.6089 177.503 67.1498 184.601ZM448.008 423.884C449.549 430.982 445.023 437.996 437.892 439.544C430.76 441.093 423.734 436.586 422.193 429.488C420.652 422.39 425.177 415.376 432.309 413.827C439.441 412.279 446.467 416.786 448.008 423.884ZM116.367 106.891C117.908 113.989 113.383 121.003 106.251 122.551C99.1194 124.1 92.0934 119.593 90.5525 112.495C89.0115 105.396 93.5366 98.3825 100.668 96.8343C107.8 95.2861 114.826 99.7925 116.367 106.891ZM374.667 475.056C376.208 482.155 371.683 489.169 364.551 490.717C357.42 492.265 350.394 487.759 348.853 480.66C347.312 473.562 351.837 466.548 358.969 465C366.1 463.452 373.126 467.958 374.667 475.056ZM189.693 55.7088C191.234 62.8071 186.709 69.8211 179.577 71.3693C172.446 72.9175 165.42 68.4111 163.879 61.3128C162.338 54.2144 166.863 47.2005 173.995 45.6523C181.126 44.1041 188.152 48.6104 189.693 55.7088Z" stroke="#20409A" stroke-opacity="0.05" stroke-width="2"/>
</svg>
