<svg width="28" height="28" viewBox="0 0 28 28" fill="none" xmlns="http://www.w3.org/2000/svg">
<path d="M15.65 5.83333H23.3334C23.9778 5.83333 24.5001 6.35567 24.5001 7V8.16667H3.50004V4.66667C3.50004 4.02234 4.02238 3.5 4.66671 3.5H13.3166L15.65 5.83333ZM3.60131 10.5H24.3988C25.0432 10.5 25.5655 11.0223 25.5655 11.6667C25.5655 11.699 25.5641 11.7313 25.5614 11.7635L24.5892 23.4302C24.5388 24.0348 24.0333 24.5 23.4265 24.5H4.57352C3.96675 24.5 3.46128 24.0348 3.41089 23.4302L2.43866 11.7635C2.38516 11.1214 2.86232 10.5575 3.50441 10.504C3.53665 10.5013 3.56897 10.5 3.60131 10.5Z" fill="#F27423"/>
</svg>
