<svg width="28" height="28" viewBox="0 0 28 28" fill="none" xmlns="http://www.w3.org/2000/svg">
<path d="M7.53047 22.1667L2.3335 26.25V4.66667C2.3335 4.02234 2.85584 3.5 3.50016 3.5H24.5002C25.1445 3.5 25.6668 4.02234 25.6668 4.66667V21C25.6668 21.6444 25.1445 22.1667 24.5002 22.1667H7.53047ZM12.8335 16.3333V18.6667H15.1668V16.3333H12.8335ZM9.99536 10.2824L12.2838 10.7401C12.4434 9.93793 13.1512 9.33333 14.0002 9.33333C14.9666 9.33333 15.7502 10.1168 15.7502 11.0833C15.7502 12.0498 14.9666 12.8333 14.0002 12.8333H12.8335V15.1667H14.0002C16.2553 15.1667 18.0835 13.3385 18.0835 11.0833C18.0835 8.82817 16.2553 7 14.0002 7C12.0192 7 10.3676 8.41072 9.99536 10.2824Z" fill="#F27423"/>
</svg>
