<svg width="16" height="16" viewBox="0 0 16 16" fill="none" xmlns="http://www.w3.org/2000/svg">
<path d="M12.5233 11.4626L15.7353 14.6746L14.6746 15.7353L11.4626 12.5233C10.3077 13.4473 8.843 14 7.25 14C3.524 14 0.5 10.976 0.5 7.25C0.5 3.524 3.524 0.5 7.25 0.5C10.976 0.5 14 3.524 14 7.25C14 8.843 13.4473 10.3077 12.5233 11.4626ZM11.0185 10.9061C11.9356 9.96095 12.5 8.6717 12.5 7.25C12.5 4.34938 10.1506 2 7.25 2C4.34938 2 2 4.34938 2 7.25C2 10.1506 4.34938 12.5 7.25 12.5C8.6717 12.5 9.96095 11.9356 10.9061 11.0185L11.0185 10.9061Z" fill="#050608"/>
</svg>
