<svg width="550" height="493" viewBox="0 0 550 493" fill="none" xmlns="http://www.w3.org/2000/svg">
<g opacity="0.05">
<path d="M215.855 -52.7692L272.462 75.2609L324.759 -54.7349L327.882 85.2083L426.071 -15.0175L375.226 115.546L504.374 60.3489L407.292 161.658L547.724 159.897L419.2 216.509L549.549 268.447L409.14 271.767L509.544 369.496L378.636 319.004L433.821 447.658L332.329 351.035L333.902 491.012L277.284 362.984L224.989 492.992L221.864 353.037L123.674 453.263L174.52 322.699L45.3843 377.894L142.453 276.587L2.02487 278.36L130.546 221.736L0.209227 169.796L140.606 166.478L40.202 68.7493L171.11 119.241L115.927 -9.40043L217.417 87.2103L215.855 -52.7692Z" fill="white"/>
<path d="M273.011 -1.08274C280.853 -2.78514 285.835 -10.5001 284.138 -18.3146C282.442 -26.129 274.709 -31.0839 266.867 -29.3815C259.025 -27.6791 254.043 -19.9641 255.74 -12.1496C257.436 -4.33517 265.169 0.619651 273.011 -1.08274Z" fill="white"/>
<path d="M283.387 467.516C291.229 465.814 296.211 458.099 294.515 450.284C292.819 442.47 285.086 437.515 277.244 439.217C269.402 440.92 264.42 448.635 266.116 456.449C267.813 464.264 275.545 469.218 283.387 467.516Z" fill="white"/>
<path d="M365.307 15.4108C373.149 13.7084 378.131 5.99345 376.435 -1.82103C374.739 -9.6355 367.006 -14.5903 359.164 -12.8879C351.322 -11.1855 346.34 -3.47059 348.037 4.34389C349.733 12.1584 357.465 17.1132 365.307 15.4108Z" fill="white"/>
<path d="M191.092 451.035C198.934 449.333 203.916 441.618 202.22 433.803C200.523 425.989 192.791 421.034 184.949 422.736C177.107 424.439 172.125 432.154 173.821 439.968C175.518 447.783 183.25 452.737 191.092 451.035Z" fill="white"/>
<path d="M442.121 64.9733C449.963 63.2709 454.945 55.556 453.248 47.7415C451.552 39.927 443.82 34.9722 435.977 36.6746C428.135 38.377 423.153 46.0919 424.85 53.9064C426.546 61.7209 434.279 66.6757 442.121 64.9733Z" fill="white"/>
<path d="M114.264 401.463C122.106 399.76 127.088 392.046 125.392 384.231C123.696 376.417 115.963 371.462 108.121 373.164C100.279 374.867 95.297 382.581 96.9934 390.396C98.6899 398.21 106.422 403.165 114.264 401.463Z" fill="white"/>
<path d="M493.579 138.917C501.421 137.214 506.403 129.499 504.707 121.685C503.01 113.87 495.278 108.915 487.436 110.618C479.594 112.32 474.612 120.035 476.308 127.85C478.005 135.664 485.737 140.619 493.579 138.917Z" fill="white"/>
<path d="M62.8215 327.529C70.6635 325.826 75.6455 318.112 73.9491 310.297C72.2527 302.483 64.5203 297.528 56.6782 299.23C48.8362 300.933 43.8542 308.647 45.5506 316.462C47.247 324.276 54.9795 329.231 62.8215 327.529Z" fill="white"/>
<path d="M513.207 225.659C521.049 223.956 526.031 216.241 524.334 208.427C522.638 200.612 514.905 195.657 507.063 197.36C499.221 199.062 494.239 206.777 495.936 214.592C497.632 222.406 505.365 227.361 513.207 225.659Z" fill="white"/>
<path d="M43.194 240.787C51.036 239.084 56.018 231.37 54.3216 223.555C52.6252 215.741 44.8928 210.786 37.0507 212.488C29.2087 214.191 24.2267 221.905 25.9231 229.72C27.6195 237.534 35.352 242.489 43.194 240.787Z" fill="white"/>
<path d="M498.098 315.843C505.941 314.141 510.923 306.426 509.226 298.611C507.53 290.797 499.797 285.842 491.955 287.544C484.113 289.247 479.131 296.962 480.828 304.776C482.524 312.591 490.256 317.545 498.098 315.843Z" fill="white"/>
<path d="M58.288 150.606C66.1301 148.903 71.1121 141.188 69.4157 133.374C67.7193 125.559 59.9868 120.604 52.1448 122.307C44.3028 124.009 39.3207 131.724 41.0172 139.539C42.7136 147.353 50.446 152.308 58.288 150.606Z" fill="white"/>
<path d="M447.779 395.312C455.621 393.61 460.603 385.895 458.906 378.08C457.21 370.266 449.477 365.311 441.635 367.013C433.793 368.716 428.811 376.431 430.508 384.245C432.204 392.06 439.937 397.014 447.779 395.312Z" fill="white"/>
<path d="M108.621 71.1338C116.463 69.4314 121.445 61.7165 119.749 53.902C118.052 46.0875 110.32 41.1327 102.478 42.8351C94.6356 44.5375 89.6536 52.2524 91.35 60.0669C93.0464 67.8814 100.779 72.8362 108.621 71.1338Z" fill="white"/>
<path d="M372.776 447.644C380.618 445.942 385.6 438.227 383.904 430.413C382.207 422.598 374.475 417.643 366.633 419.346C358.791 421.048 353.809 428.763 355.505 436.578C357.202 444.392 364.934 449.347 372.776 447.644Z" fill="white"/>
<path d="M183.609 18.7916C191.451 17.0892 196.433 9.37427 194.737 1.5598C193.04 -6.25467 185.308 -11.2095 177.466 -9.5071C169.624 -7.80471 164.642 -0.0897584 166.338 7.72471C168.035 15.5392 175.767 20.494 183.609 18.7916Z" fill="white"/>
<path d="M271.547 75.6652L272.505 77.8322L273.39 75.6341L323.868 -49.8407L326.882 85.2307L326.935 87.6037L328.596 85.9082L423.367 -10.8276L374.294 115.183L373.431 117.401L375.619 116.465L500.263 63.1932L406.57 160.966L404.921 162.688L407.305 162.658L542.833 160.958L418.797 215.594L416.614 216.556L418.83 217.438L544.629 267.563L409.116 270.767L406.737 270.823L408.442 272.483L505.345 366.805L378.996 318.071L376.781 317.217L377.717 319.398L430.981 443.573L333.018 350.311L331.302 348.677L331.329 351.046L332.848 486.154L278.198 362.58L277.24 360.413L276.356 362.611L225.88 488.098L222.864 353.015L222.811 350.641L221.149 352.337L126.379 449.073L175.451 323.062L176.315 320.844L174.127 321.78L49.4946 375.049L143.175 277.279L144.825 275.557L142.441 275.587L6.91513 277.298L130.949 222.651L133.131 221.69L130.916 220.807L5.12888 170.68L140.63 167.478L143.009 167.422L141.304 165.762L44.4006 71.4406L170.75 120.174L172.965 121.029L172.029 118.847L118.767 -5.31623L216.728 87.9346L218.444 89.568L218.417 87.1992L216.91 -47.9117L271.547 75.6652ZM283.161 -18.1024C284.74 -10.8309 280.104 -3.64592 272.799 -2.05998C265.493 -0.474044 258.296 -5.09027 256.717 -12.3618C255.139 -19.6333 259.774 -26.8183 267.08 -28.4042C274.385 -29.9902 281.583 -25.3739 283.161 -18.1024ZM293.538 450.496C295.116 457.768 290.481 464.953 283.175 466.539C275.87 468.125 268.672 463.509 267.094 456.237C265.515 448.966 270.151 441.781 277.456 440.195C284.762 438.609 291.959 443.225 293.538 450.496ZM375.458 -1.60888C377.036 5.66264 372.401 12.8476 365.095 14.4335C357.79 16.0195 350.592 11.4033 349.014 4.13174C347.435 -3.13978 352.071 -10.3248 359.376 -11.9107C366.682 -13.4966 373.879 -8.88041 375.458 -1.60888ZM201.242 434.015C202.821 441.287 198.186 448.472 190.88 450.058C183.574 451.644 176.377 447.027 174.798 439.756C173.22 432.484 177.855 425.299 185.161 423.714C192.467 422.128 199.664 426.744 201.242 434.015ZM452.271 47.9536C453.85 55.2252 449.214 62.4101 441.909 63.9961C434.603 65.582 427.406 60.9658 425.827 53.6943C424.249 46.4227 428.884 39.2378 436.19 37.6518C443.495 36.0659 450.693 40.6821 452.271 47.9536ZM124.415 384.443C125.993 391.715 121.358 398.9 114.052 400.486C106.747 402.072 99.5492 397.455 97.9707 390.184C96.3921 382.912 101.028 375.727 108.333 374.141C115.639 372.555 122.836 377.172 124.415 384.443ZM503.73 121.897C505.308 129.168 500.673 136.353 493.367 137.939C486.061 139.525 478.864 134.909 477.286 127.637C475.707 120.366 480.343 113.181 487.648 111.595C494.954 110.009 502.151 114.625 503.73 121.897ZM72.9719 310.509C74.5504 317.781 69.9149 324.966 62.6093 326.552C55.3038 328.138 48.1064 323.521 46.5278 316.25C44.9493 308.978 49.5848 301.793 56.8904 300.207C64.196 298.621 71.3933 303.238 72.9719 310.509ZM523.357 208.639C524.936 215.91 520.3 223.095 512.995 224.681C505.689 226.267 498.492 221.651 496.913 214.379C495.334 207.108 499.97 199.923 507.276 198.337C514.581 196.751 521.779 201.367 523.357 208.639ZM53.3444 223.767C54.9229 231.039 50.2874 238.224 42.9818 239.81C35.6763 241.396 28.4789 236.779 26.9003 229.508C25.3218 222.236 29.9573 215.051 37.2629 213.465C44.5684 211.879 51.7658 216.496 53.3444 223.767ZM508.249 298.823C509.827 306.095 505.192 313.28 497.886 314.866C490.581 316.452 483.383 311.836 481.805 304.564C480.226 297.292 484.862 290.108 492.167 288.522C499.473 286.936 506.67 291.552 508.249 298.823ZM68.4384 133.586C70.017 140.857 65.3815 148.042 58.0759 149.628C50.7703 151.214 43.5729 146.598 41.9944 139.327C40.4159 132.055 45.0514 124.87 52.3569 123.284C59.6625 121.698 66.8599 126.314 68.4384 133.586ZM457.929 378.292C459.508 385.564 454.872 392.749 447.566 394.335C440.261 395.921 433.064 391.304 431.485 384.033C429.906 376.761 434.542 369.576 441.848 367.991C449.153 366.405 456.35 371.021 457.929 378.292ZM118.771 54.1141C120.35 61.3856 115.714 68.5706 108.409 70.1566C101.103 71.7425 93.9058 67.1263 92.3273 59.8548C90.7487 52.5832 95.3842 45.3983 102.69 43.8123C109.995 42.2264 117.193 46.8426 118.771 54.1141ZM382.926 430.625C384.505 437.896 379.869 445.081 372.564 446.667C365.258 448.253 358.061 443.637 356.482 436.365C354.904 429.094 359.539 421.909 366.845 420.323C374.15 418.737 381.348 423.353 382.926 430.625ZM193.76 1.77194C195.338 9.04346 190.703 16.2284 183.397 17.8144C176.091 19.4003 168.894 14.7841 167.316 7.51257C165.737 0.24105 170.372 -6.94393 177.678 -8.52986C184.984 -10.1158 192.181 -5.49958 193.76 1.77194Z" stroke="#20409A" stroke-opacity="0.04" stroke-width="2"/>
</g>
</svg>
