<svg width="487" height="220" viewBox="0 0 487 220" fill="none" xmlns="http://www.w3.org/2000/svg">
<path d="M242.661 35.0788L287.12 -75.4325L289.775 43.5304L289.828 45.9034L291.489 44.2079L374.957 -40.9912L331.737 69.9905L330.874 72.2083L333.062 71.273L442.84 24.3545L360.322 110.466L358.672 112.188L361.057 112.158L480.42 110.661L371.178 158.78L368.995 159.742L371.211 160.624L482.006 204.77L362.655 207.592L360.276 207.649L361.981 209.309L447.327 292.381L336.046 249.459L333.831 248.605L334.767 250.786L381.679 360.152L295.399 278.012L293.683 276.378L293.709 278.747L295.047 397.743L246.915 288.906L245.957 286.739L245.073 288.937L200.617 399.458L197.96 280.485L197.907 278.112L196.245 279.808L112.778 365.007L155.997 254.025L156.861 251.807L154.672 252.743L44.9047 299.659L127.412 213.55L129.062 211.828L126.677 211.858L7.31629 213.365L116.556 165.235L118.738 164.274L116.523 163.391L5.73898 119.243L125.079 116.423L127.459 116.367L125.753 114.707L40.4072 31.6348L151.688 74.5566L153.903 75.4108L152.967 73.2293L106.057 -36.1264L192.336 46.0039L194.051 47.6372L194.025 45.2684L192.697 -73.7298L240.819 35.11L241.777 37.2769L242.661 35.0788ZM251.089 -47.8865C252.472 -41.5144 248.41 -35.2175 242.007 -33.8275C235.604 -32.4375 229.297 -36.4834 227.914 -42.8555C226.53 -49.2275 230.592 -55.5244 236.995 -56.9144C243.398 -58.3044 249.706 -54.2585 251.089 -47.8865ZM260.271 366.773C261.654 373.145 257.592 379.442 251.189 380.832C244.786 382.222 238.479 378.176 237.096 371.804C235.713 365.432 239.775 359.135 246.178 357.745C252.58 356.355 258.888 360.401 260.271 366.773ZM332.761 -33.2914C334.145 -26.9194 330.083 -20.6225 323.68 -19.2325C317.277 -17.8425 310.97 -21.8884 309.586 -28.2604C308.203 -34.6325 312.265 -40.9294 318.668 -42.3194C325.071 -43.7094 331.378 -39.6635 332.761 -33.2914ZM178.6 352.189C179.983 358.561 175.921 364.858 169.518 366.248C163.115 367.638 156.808 363.592 155.425 357.22C154.041 350.848 158.103 344.551 164.506 343.161C170.909 341.771 177.216 345.817 178.6 352.189ZM400.733 10.5661C402.116 16.9381 398.054 23.235 391.651 24.625C385.248 26.015 378.941 21.9691 377.558 15.5971C376.175 9.22505 380.237 2.92811 386.64 1.53813C393.042 0.148156 399.35 4.19404 400.733 10.5661ZM110.615 308.323C111.999 314.695 107.937 320.992 101.534 322.382C95.1308 323.772 88.8235 319.726 87.4402 313.354C86.0569 306.982 90.119 300.685 96.5219 299.295C102.925 297.905 109.232 301.951 110.615 308.323ZM446.268 75.9979C447.651 82.3699 443.589 88.6668 437.187 90.0568C430.784 91.4468 424.476 87.4009 423.093 81.0289C421.71 74.6569 425.772 68.3599 432.175 66.97C438.578 65.58 444.885 69.6259 446.268 75.9979ZM65.094 242.9C66.4773 249.272 62.4152 255.568 56.0123 256.958C49.6094 258.348 43.3021 254.303 41.9188 247.931C40.5355 241.558 44.5976 235.262 51.0005 233.872C57.4034 232.482 63.7107 236.527 65.094 242.9ZM463.636 152.755C465.02 159.127 460.958 165.424 454.555 166.814C448.152 168.204 441.845 164.158 440.461 157.786C439.078 151.414 443.14 145.117 449.543 143.727C455.946 142.337 462.253 146.383 463.636 152.755ZM47.7257 166.142C49.109 172.514 45.047 178.811 38.6441 180.201C32.2412 181.591 25.9339 177.545 24.5506 171.173C23.1673 164.801 27.2294 158.504 33.6323 157.114C40.0351 155.724 46.3425 159.77 47.7257 166.142ZM450.267 232.559C451.651 238.931 447.589 245.228 441.186 246.618C434.783 248.008 428.475 243.962 427.092 237.59C425.709 231.218 429.771 224.921 436.174 223.531C442.577 222.141 448.884 226.187 450.267 232.559ZM61.0824 86.3414C62.4656 92.7134 58.4036 99.0104 52.0007 100.4C45.5978 101.79 39.2905 97.7444 37.9072 91.3724C36.5239 85.0004 40.586 78.7035 46.9889 77.3135C53.3918 75.9235 59.6991 79.9694 61.0824 86.3414ZM405.74 302.88C407.123 309.252 403.061 315.549 396.658 316.939C390.255 318.329 383.948 314.283 382.564 307.911C381.181 301.539 385.243 295.242 391.646 293.852C398.049 292.462 404.356 296.508 405.74 302.88ZM105.622 16.0174C107.005 22.3894 102.943 28.6864 96.5399 30.0764C90.137 31.4663 83.8296 27.4204 82.4464 21.0484C81.0631 14.6764 85.1251 8.37948 91.528 6.9895C97.9309 5.59952 104.238 9.64541 105.622 16.0174ZM339.37 349.189C340.754 355.561 336.692 361.858 330.289 363.248C323.886 364.638 317.578 360.592 316.195 354.22C314.812 347.848 318.874 341.551 325.277 340.161C331.68 338.771 337.987 342.817 339.37 349.189ZM171.978 -30.2998C173.361 -23.9278 169.299 -17.6308 162.896 -16.2409C156.494 -14.8509 150.186 -18.8968 148.803 -25.2688C147.42 -31.6408 151.482 -37.9377 157.885 -39.3277C164.287 -40.7177 170.595 -36.6718 171.978 -30.2998Z" stroke="#20409A" stroke-opacity="0.08" stroke-width="2"/>
</svg>
