<svg width="25" height="25" viewBox="0 0 25 25" fill="none" xmlns="http://www.w3.org/2000/svg">
<path d="M19.0361 17.3862L24.0326 22.3827L22.3827 24.0326L17.3862 19.0361C15.5897 20.4734 13.3113 21.3333 10.8333 21.3333C5.03731 21.3333 0.333313 16.6293 0.333313 10.8333C0.333313 5.03725 5.03731 0.333252 10.8333 0.333252C16.6293 0.333252 21.3333 5.03725 21.3333 10.8333C21.3333 13.3113 20.4735 15.5896 19.0361 17.3862ZM16.6955 16.5205C18.1221 15.0503 19 13.0448 19 10.8333C19 6.32117 15.3454 2.66659 10.8333 2.66659C6.32123 2.66659 2.66665 6.32117 2.66665 10.8333C2.66665 15.3453 6.32123 18.9999 10.8333 18.9999C13.0448 18.9999 15.0503 18.122 16.5206 16.6954L16.6955 16.5205Z" fill="#FF7700"/>
</svg>
