<svg width="472" height="388" viewBox="0 0 472 388" fill="none" xmlns="http://www.w3.org/2000/svg">
<path d="M148.964 151.457L149.922 153.624L150.807 151.426L209.605 5.26935L213.117 162.605L213.169 164.979L214.831 163.283L325.223 50.6014L268.061 197.384L267.197 199.602L269.386 198.667L414.577 136.613L305.439 250.504L303.789 252.226L306.173 252.196L464.044 250.216L319.56 313.859L317.377 314.82L319.593 315.703L466.13 374.091L308.278 377.823L305.899 377.879L307.604 379.539L420.482 489.409L273.305 432.642L271.09 431.788L272.026 433.97L334.07 578.613L219.96 469.978L218.244 468.344L218.27 470.714L220.04 628.092L156.383 484.149L155.424 481.982L154.54 484.18L95.7446 630.35L92.2305 473.001L92.1775 470.628L90.5164 472.323L-19.8757 585.005L37.2859 438.222L38.1496 436.004L35.961 436.939L-109.216 498.99L-0.0918177 385.102L1.55803 383.38L-0.826493 383.41L-158.694 385.404L-14.2126 321.747L-12.0306 320.786L-14.2456 319.903L-160.769 261.512L-2.93127 257.783L-0.551876 257.727L-2.2574 256.067L-115.135 146.197L32.0423 202.964L34.2569 203.818L33.3212 201.637L-28.7202 57.0065L85.3871 165.628L87.103 167.261L87.0766 164.893L85.3206 7.51103L148.964 151.457ZM162.436 42.802C164.284 51.3168 158.856 59.7293 150.303 61.586C141.75 63.4428 133.322 58.0383 131.474 49.5235C129.625 41.0087 135.053 32.5963 143.607 30.7395C152.16 28.8827 160.587 34.2873 162.436 42.802ZM174.463 585.954C176.312 594.469 170.884 602.882 162.33 604.738C153.777 606.595 145.35 601.191 143.501 592.676C141.653 584.161 147.081 575.749 155.634 573.892C164.187 572.035 172.615 577.44 174.463 585.954ZM269.417 61.9197C271.265 70.4345 265.837 78.8469 257.284 80.7037C248.731 82.5605 240.303 77.1559 238.455 68.6411C236.606 60.1263 242.034 51.7139 250.588 49.8571C259.141 48.0004 267.568 53.4049 269.417 61.9197ZM67.484 566.851C69.3325 575.366 63.9043 583.778 55.3511 585.635C46.7979 587.492 38.3703 582.087 36.5218 573.573C34.6734 565.058 40.1015 556.645 48.6548 554.789C57.208 552.932 65.6356 558.336 67.484 566.851ZM358.451 119.368C360.3 127.882 354.871 136.295 346.318 138.152C337.765 140.008 329.337 134.604 327.489 126.089C325.64 117.574 331.069 109.162 339.622 107.305C348.175 105.448 356.603 110.853 358.451 119.368ZM-21.5669 509.392C-19.7185 517.907 -25.1466 526.319 -33.6999 528.176C-42.2531 530.033 -50.6807 524.628 -52.5291 516.114C-54.3776 507.599 -48.9494 499.186 -40.3962 497.33C-31.843 495.473 -23.4154 500.877 -21.5669 509.392ZM418.096 205.075C419.945 213.59 414.517 222.002 405.964 223.859C397.41 225.716 388.983 220.311 387.134 211.797C385.286 203.282 390.714 194.869 399.267 193.013C407.82 191.156 416.248 196.56 418.096 205.075ZM-81.1943 423.695C-79.3458 432.21 -84.774 440.623 -93.3272 442.479C-101.88 444.336 -110.308 438.932 -112.156 430.417C-114.005 421.902 -108.577 413.49 -100.024 411.633C-91.4703 409.776 -83.0427 415.181 -81.1943 423.695ZM440.847 305.618C442.695 314.132 437.267 322.545 428.714 324.402C420.161 326.258 411.733 320.854 409.884 312.339C408.036 303.824 413.464 295.412 422.017 293.555C430.571 291.698 438.998 297.103 440.847 305.618ZM-103.944 323.153C-102.096 331.668 -107.524 340.08 -116.077 341.937C-124.631 343.794 -133.058 338.389 -134.907 329.874C-136.755 321.36 -131.327 312.947 -122.774 311.09C-114.221 309.234 -105.793 314.638 -103.944 323.153ZM423.335 410.15C425.183 418.665 419.755 427.078 411.202 428.934C402.649 430.791 394.221 425.387 392.373 416.872C390.524 408.357 395.952 399.945 404.506 398.088C413.059 396.231 421.486 401.636 423.335 410.15ZM-86.449 218.624C-84.6005 227.139 -90.0287 235.551 -98.5819 237.408C-107.135 239.265 -115.563 233.86 -117.411 225.345C-119.26 216.83 -113.831 208.418 -105.278 206.561C-96.725 204.704 -88.2974 210.109 -86.449 218.624ZM365.009 502.263C366.858 510.778 361.429 519.19 352.876 521.047C344.323 522.904 335.895 517.499 334.047 508.984C332.198 500.469 337.627 492.057 346.18 490.2C354.733 488.343 363.161 493.748 365.009 502.263ZM-28.1082 126.508C-26.2598 135.023 -31.6879 143.435 -40.2411 145.292C-48.7944 147.149 -57.222 141.744 -59.0704 133.23C-60.9189 124.715 -55.4907 116.302 -46.9375 114.446C-38.3843 112.589 -29.9567 117.993 -28.1082 126.508ZM278.074 562.921C279.922 571.436 274.494 579.848 265.941 581.705C257.387 583.562 248.96 578.157 247.111 569.643C245.263 561.128 250.691 552.715 259.244 550.859C267.798 549.002 276.225 554.406 278.074 562.921ZM58.8106 65.8384C60.659 74.3532 55.2309 82.7656 46.6777 84.6224C38.1244 86.4792 29.6968 81.0746 27.8484 72.5598C25.9999 64.0451 31.4281 55.6326 39.9813 53.7759C48.5345 51.9191 56.9621 57.3236 58.8106 65.8384Z" stroke="#20409A" stroke-opacity="0.05" stroke-width="2"/>
</svg>
