<svg width="286" height="285" viewBox="0 0 286 285" fill="none" xmlns="http://www.w3.org/2000/svg">
<g opacity="0.2">
<path d="M231.315 0.731326L286.377 134.944L344.187 1.73947L343.51 146.798L448.029 45.7162L391.707 179.549L527.038 125.98L423.637 228.215L569.163 230.316L434.438 285.37L568.019 342.818L422.472 342.332L523.752 446.379L389.551 390.413L443.123 525.233L340.685 422.301L338.402 567.351L283.328 433.141L225.521 566.358L226.195 421.287L121.676 522.369L177.998 388.536L42.6796 442.103L146.069 339.87L0.544695 337.781L135.267 282.715L1.69879 225.265L147.233 225.753L45.9534 121.706L180.154 177.672L126.584 42.8648L229.02 145.784L231.315 0.731326Z" fill="#CAD5EA" fill-opacity="0.85"/>
<path d="M289.079 55.8727C297.251 54.3284 302.628 46.4755 301.089 38.3328C299.55 30.1902 291.678 24.8411 283.507 26.3855C275.335 27.9298 269.958 35.7827 271.497 43.9254C273.036 52.0681 280.908 57.4171 289.079 55.8727Z" fill="#CAD5EA" fill-opacity="0.85"/>
<path d="M286.729 541.599C294.9 540.055 300.277 532.202 298.738 524.059C297.199 515.917 289.327 510.568 281.156 512.112C272.985 513.656 267.608 521.509 269.147 529.652C270.686 537.794 278.558 543.144 286.729 541.599Z" fill="#CAD5EA" fill-opacity="0.85"/>
<path d="M384.231 75.5391C392.403 73.9948 397.78 66.1419 396.241 57.9992C394.702 49.8565 386.83 44.5075 378.659 46.0519C370.487 47.5962 365.11 55.4491 366.649 63.5918C368.188 71.7344 376.06 77.0835 384.231 75.5391Z" fill="#CAD5EA" fill-opacity="0.85"/>
<path d="M191.578 521.946C199.75 520.401 205.126 512.549 203.587 504.406C202.048 496.263 194.177 490.914 186.005 492.458C177.834 494.003 172.457 501.856 173.996 509.998C175.535 518.141 183.407 523.49 191.578 521.946Z" fill="#CAD5EA" fill-opacity="0.85"/>
<path d="M462.419 129.03C470.591 127.486 475.967 119.633 474.428 111.49C472.889 103.347 465.018 97.9983 456.846 99.5426C448.675 101.087 443.298 108.94 444.837 117.083C446.376 125.225 454.248 130.574 462.419 129.03Z" fill="#CAD5EA" fill-opacity="0.85"/>
<path d="M113.376 468.445C121.547 466.9 126.924 459.047 125.385 450.905C123.846 442.762 115.974 437.413 107.803 438.957C99.6314 440.502 94.2547 448.355 95.7936 456.497C97.3325 464.64 105.204 469.989 113.376 468.445Z" fill="#CAD5EA" fill-opacity="0.85"/>
<path d="M513.659 207.069C521.831 205.524 527.208 197.671 525.669 189.529C524.13 181.386 516.258 176.037 508.087 177.581C499.915 179.126 494.538 186.979 496.077 195.121C497.616 203.264 505.488 208.613 513.659 207.069Z" fill="#CAD5EA" fill-opacity="0.85"/>
<path d="M62.1513 390.416C70.3227 388.872 75.6994 381.019 74.1605 372.876C72.6216 364.733 64.7498 359.384 56.5784 360.929C48.407 362.473 43.0303 370.326 44.5692 378.469C46.1081 386.611 53.9799 391.96 62.1513 390.416Z" fill="#CAD5EA" fill-opacity="0.85"/>
<path d="M531.567 297.476C539.739 295.932 545.115 288.079 543.576 279.936C542.038 271.793 534.166 266.444 525.994 267.989C517.823 269.533 512.446 277.386 513.985 285.529C515.524 293.671 523.396 299.02 531.567 297.476Z" fill="#CAD5EA" fill-opacity="0.85"/>
<path d="M44.2435 300.008C52.4149 298.464 57.7916 290.611 56.2526 282.469C54.7137 274.326 46.842 268.977 38.6706 270.521C30.4992 272.066 25.1225 279.918 26.6614 288.061C28.2003 296.204 36.0721 301.553 44.2435 300.008Z" fill="#CAD5EA" fill-opacity="0.85"/>
<path d="M513.395 390.479C521.566 388.934 526.943 381.081 525.404 372.939C523.865 364.796 515.994 359.447 507.822 360.991C499.651 362.536 494.274 370.389 495.813 378.531C497.352 386.674 505.224 392.023 513.395 390.479Z" fill="#CAD5EA" fill-opacity="0.85"/>
<path d="M62.4009 207.009C70.5723 205.464 75.949 197.612 74.4101 189.469C72.8712 181.326 64.9995 175.977 56.8281 177.521C48.6567 179.066 43.28 186.919 44.8189 195.061C46.3578 203.204 54.2295 208.553 62.4009 207.009Z" fill="#CAD5EA" fill-opacity="0.85"/>
<path d="M459.046 471.396C467.217 469.852 472.594 461.999 471.055 453.856C469.516 445.714 461.644 440.365 453.473 441.909C445.301 443.453 439.925 451.306 441.463 459.449C443.002 467.592 450.874 472.941 459.046 471.396Z" fill="#CAD5EA" fill-opacity="0.85"/>
<path d="M116.764 126.089C124.935 124.544 130.312 116.691 128.773 108.549C127.234 100.406 119.363 95.0569 111.191 96.6012C103.02 98.1456 97.643 105.998 99.1819 114.141C100.721 122.284 108.593 127.633 116.764 126.089Z" fill="#CAD5EA" fill-opacity="0.85"/>
<path d="M379.885 523.512C388.056 521.968 393.433 514.115 391.894 505.973C390.355 497.83 382.484 492.481 374.312 494.025C366.141 495.569 360.764 503.422 362.303 511.565C363.842 519.708 371.714 525.057 379.885 523.512Z" fill="#CAD5EA" fill-opacity="0.85"/>
<path d="M195.91 73.9619C204.081 72.4176 209.458 64.5647 207.919 56.422C206.38 48.2793 198.508 42.9303 190.337 44.4747C182.166 46.019 176.789 53.8719 178.328 62.0146C179.867 70.1573 187.739 75.5063 195.91 73.9619Z" fill="#CAD5EA" fill-opacity="0.85"/>
</g>
</svg>
