<svg width="603" height="262" viewBox="0 0 603 262" fill="none" xmlns="http://www.w3.org/2000/svg">
<g opacity="0.5">
<path d="M237.114 2.90874L299.147 143.213L356.458 0.75461L359.881 154.114L467.483 44.2797L411.764 187.36L553.292 126.871L446.904 237.893L600.798 235.963L459.953 298.003L602.798 354.919L448.928 358.557L558.958 465.656L415.5 410.323L475.976 551.311L364.753 445.425L366.478 598.821L304.432 458.52L247.124 600.991L243.699 447.619L136.096 557.453L191.816 414.373L50.3004 474.859L156.675 363.84L2.78409 365.783L143.626 303.73L0.79437 246.811L154.651 243.175L44.6212 136.077L188.079 191.41L127.606 50.4352L238.826 156.308L237.114 2.90874Z" fill="#06123E" fill-opacity="0.04"/>
<path d="M299.749 59.5503C308.343 57.6847 313.802 49.2301 311.943 40.6665C310.084 32.1028 301.61 26.673 293.017 28.5386C284.423 30.4042 278.963 38.8588 280.822 47.4224C282.681 55.986 291.155 61.4159 299.749 59.5503Z" fill="#06123E" fill-opacity="0.04"/>
<path d="M311.12 573.073C319.714 571.207 325.174 562.753 323.315 554.189C321.456 545.626 312.982 540.196 304.388 542.061C295.794 543.927 290.335 552.381 292.194 560.945C294.053 569.509 302.526 574.939 311.12 573.073Z" fill="#06123E" fill-opacity="0.04"/>
<path d="M400.894 77.625C409.488 75.7594 414.947 67.3049 413.088 58.7412C411.229 50.1776 402.756 44.7478 394.162 46.6133C385.568 48.4789 380.108 56.9335 381.967 65.4972C383.826 74.0608 392.3 79.4906 400.894 77.625Z" fill="#06123E" fill-opacity="0.04"/>
<path d="M209.977 555.012C218.571 553.146 224.03 544.692 222.171 536.128C220.312 527.564 211.838 522.135 203.245 524C194.651 525.866 189.191 534.32 191.05 542.884C192.909 551.448 201.383 556.877 209.977 555.012Z" fill="#06123E" fill-opacity="0.04"/>
<path d="M485.071 131.939C493.665 130.073 499.125 121.619 497.266 113.055C495.406 104.492 486.933 99.0618 478.339 100.927C469.745 102.793 464.285 111.248 466.145 119.811C468.004 128.375 476.477 133.805 485.071 131.939Z" fill="#06123E" fill-opacity="0.04"/>
<path d="M125.784 500.687C134.378 498.822 139.837 490.367 137.978 481.804C136.119 473.24 127.645 467.81 119.052 469.676C110.458 471.541 104.998 479.996 106.857 488.559C108.716 497.123 117.19 502.553 125.784 500.687Z" fill="#06123E" fill-opacity="0.04"/>
<path d="M541.463 212.971C550.057 211.106 555.516 202.651 553.657 194.087C551.798 185.524 543.324 180.094 534.731 181.959C526.137 183.825 520.677 192.28 522.536 200.843C524.395 209.407 532.869 214.837 541.463 212.971Z" fill="#06123E" fill-opacity="0.04"/>
<path d="M69.4092 419.665C78.003 417.8 83.4626 409.345 81.6036 400.782C79.7445 392.218 71.2708 386.788 62.677 388.654C54.0831 390.519 48.6235 398.974 50.4826 407.537C52.3416 416.101 60.8153 421.531 69.4092 419.665Z" fill="#06123E" fill-opacity="0.04"/>
<path d="M562.972 308.029C571.566 306.163 577.025 297.709 575.166 289.145C573.307 280.581 564.834 275.152 556.24 277.017C547.646 278.883 542.186 287.337 544.045 295.901C545.904 304.465 554.378 309.894 562.972 308.029Z" fill="#06123E" fill-opacity="0.04"/>
<path d="M47.9 324.608C56.4938 322.742 61.9535 314.287 60.0944 305.724C58.2354 297.16 49.7616 291.73 41.1678 293.596C32.574 295.461 27.1143 303.916 28.9734 312.48C30.8324 321.043 39.3062 326.473 47.9 324.608Z" fill="#06123E" fill-opacity="0.04"/>
<path d="M546.415 406.859C555.009 404.994 560.469 396.539 558.61 387.975C556.751 379.412 548.277 373.982 539.683 375.848C531.089 377.713 525.63 386.168 527.489 394.731C529.348 403.295 537.822 408.725 546.415 406.859Z" fill="#06123E" fill-opacity="0.04"/>
<path d="M64.4411 225.781C73.0349 223.915 78.4946 215.461 76.6355 206.897C74.7765 198.333 66.3027 192.903 57.7089 194.769C49.1151 196.635 43.6554 205.089 45.5145 213.653C47.3735 222.216 55.8473 227.646 64.4411 225.781Z" fill="#06123E" fill-opacity="0.04"/>
<path d="M491.271 493.947C499.865 492.081 505.325 483.627 503.466 475.063C501.607 466.499 493.133 461.07 484.539 462.935C475.945 464.801 470.486 473.255 472.345 481.819C474.204 490.383 482.678 495.812 491.271 493.947Z" fill="#06123E" fill-opacity="0.04"/>
<path d="M119.599 138.69C128.193 136.825 133.653 128.37 131.794 119.806C129.935 111.243 121.461 105.813 112.867 107.678C104.273 109.544 98.8136 117.999 100.673 126.562C102.532 135.126 111.005 140.556 119.599 138.69Z" fill="#06123E" fill-opacity="0.04"/>
<path d="M409.078 551.296C417.672 549.431 423.132 540.976 421.273 532.413C419.414 523.849 410.94 518.419 402.346 520.285C393.752 522.15 388.293 530.605 390.152 539.168C392.011 547.732 400.485 553.162 409.078 551.296Z" fill="#06123E" fill-opacity="0.04"/>
<path d="M201.777 81.33C210.37 79.4644 215.83 71.0098 213.971 62.4461C212.112 53.8825 203.638 48.4527 195.044 50.3183C186.45 52.1839 180.991 60.6384 182.85 69.2021C184.709 77.7657 193.183 83.1956 201.777 81.33Z" fill="#06123E" fill-opacity="0.04"/>
</g>
</svg>
