<svg width="397" height="337" viewBox="0 0 397 337" fill="none" xmlns="http://www.w3.org/2000/svg">
<path d="M253.337 122.154L254.295 124.322L255.179 122.122L302.132 5.33547L304.936 131.055L304.989 133.429L306.65 131.732L394.802 41.6938L349.156 158.98L348.293 161.198L350.481 160.263L466.421 110.678L379.271 201.683L377.622 203.404L380.005 203.374L506.069 201.793L390.694 252.646L388.513 253.608L390.727 254.49L507.741 301.145L381.692 304.127L379.313 304.183L381.018 305.843L471.153 393.635L353.628 348.275L351.413 347.42L352.349 349.602L401.893 465.18L310.772 378.375L309.056 376.74L309.083 379.111L310.496 504.864L259.663 389.846L258.705 387.678L257.821 389.877L210.87 506.675L208.064 380.945L208.011 378.571L206.35 380.268L118.198 470.306L163.844 353.019L164.707 350.802L162.519 351.737L46.5904 401.319L133.73 310.317L135.378 308.595L132.995 308.625L6.93316 310.218L122.306 259.354L124.487 258.392L122.273 257.51L5.26963 210.853L131.308 207.873L133.687 207.816L131.983 206.156L41.8465 118.365L159.372 163.725L161.587 164.579L160.651 162.397L111.109 46.8307L202.228 133.625L203.944 135.259L203.918 132.889L202.515 7.13341L253.337 122.154ZM264.164 34.6381C265.628 41.3881 261.328 48.0571 254.551 49.5291C247.775 51.0011 241.098 46.7166 239.634 39.9666C238.17 33.2166 242.47 26.5476 249.246 25.0756C256.023 23.6036 262.699 27.8881 264.164 34.6381ZM273.841 471.93C275.305 478.68 271.005 485.349 264.228 486.821C257.452 488.293 250.775 484.008 249.311 477.259C247.847 470.509 252.147 463.839 258.923 462.367C265.7 460.895 272.376 465.18 273.841 471.93ZM350.238 50.0297C351.703 56.7797 347.402 63.4487 340.626 64.9207C333.85 66.3927 327.173 62.1082 325.709 55.3582C324.244 48.6082 328.545 41.9392 335.321 40.4672C342.097 38.9952 348.774 43.2798 350.238 50.0297ZM187.767 456.55C189.232 463.3 184.932 469.969 178.155 471.441C171.379 472.913 164.702 468.628 163.238 461.879C161.773 455.129 166.074 448.459 172.85 446.987C179.626 445.515 186.303 449.8 187.767 456.55ZM421.873 96.281C423.338 103.031 419.037 109.7 412.261 111.172C405.485 112.644 398.808 108.359 397.344 101.609C395.879 94.8595 400.18 88.1905 406.956 86.7184C413.732 85.2464 420.409 89.531 421.873 96.281ZM116.119 410.29C117.583 417.04 113.283 423.709 106.507 425.181C99.7303 426.653 93.0537 422.368 91.5893 415.618C90.125 408.868 94.4252 402.199 101.202 400.727C107.978 399.255 114.655 403.54 116.119 410.29ZM469.863 165.284C471.327 172.034 467.027 178.703 460.25 180.175C453.474 181.647 446.797 177.363 445.333 170.613C443.869 163.863 448.169 157.194 454.945 155.722C461.722 154.25 468.398 158.534 469.863 165.284ZM68.1441 341.295C69.6085 348.045 65.3082 354.714 58.5318 356.186C51.7555 357.658 45.0788 353.374 43.6145 346.624C42.1501 339.874 46.4504 333.205 53.2267 331.733C60.0031 330.261 66.6797 334.545 68.1441 341.295ZM488.167 246.231C489.631 252.981 485.331 259.65 478.555 261.122C471.778 262.594 465.102 258.309 463.637 251.559C462.173 244.809 466.473 238.14 473.25 236.668C480.026 235.196 486.703 239.481 488.167 246.231ZM49.8398 260.349C51.3041 267.098 47.0039 273.768 40.2275 275.24C33.4511 276.712 26.7745 272.427 25.3101 265.677C23.8458 258.927 28.146 252.258 34.9224 250.786C41.6988 249.314 48.3754 253.599 49.8398 260.349ZM474.077 330.39C475.542 337.14 471.241 343.809 464.465 345.281C457.689 346.753 451.012 342.469 449.548 335.719C448.083 328.969 452.384 322.3 459.16 320.828C465.936 319.356 472.613 323.64 474.077 330.39ZM63.9163 176.192C65.3807 182.942 61.0804 189.611 54.304 191.083C47.5276 192.555 40.851 188.271 39.3866 181.521C37.9223 174.771 42.2225 168.102 48.9989 166.63C55.7753 165.158 62.4519 169.442 63.9163 176.192ZM427.15 404.55C428.614 411.3 424.314 417.969 417.537 419.441C410.761 420.913 404.084 416.628 402.62 409.878C401.156 403.128 405.456 396.459 412.232 394.987C419.009 393.515 425.685 397.8 427.15 404.55ZM110.856 102.03C112.32 108.78 108.02 115.449 101.244 116.921C94.4673 118.393 87.7907 114.108 86.3264 107.358C84.862 100.608 89.1623 93.9394 95.9386 92.4674C102.715 90.9954 109.392 95.2799 110.856 102.03ZM357.203 453.386C358.668 460.136 354.367 466.805 347.591 468.277C340.815 469.749 334.138 465.464 332.674 458.714C331.209 451.965 335.51 445.295 342.286 443.823C349.062 442.351 355.739 446.636 357.203 453.386ZM180.789 53.1847C182.253 59.9346 177.953 66.6037 171.177 68.0757C164.4 69.5477 157.724 65.2631 156.259 58.5132C154.795 51.7632 159.095 45.0942 165.872 43.6221C172.648 42.1501 179.325 46.4347 180.789 53.1847Z" stroke="#F66600" stroke-opacity="0.1" stroke-width="2"/>
</svg>
