<svg width="568" height="373" viewBox="0 0 568 373" fill="none" xmlns="http://www.w3.org/2000/svg">
<path d="M222.773 2.16606L281.23 134.38L335.236 0.13612L338.461 144.653L439.859 41.1516L387.352 175.982L520.72 118.981L420.467 223.601L565.487 221.783L432.763 280.245L567.372 333.88L422.374 337.309L526.06 438.232L390.873 386.089L447.862 518.948L343.053 419.167L344.678 563.719L286.209 431.507L232.205 565.764L228.978 421.235L127.579 524.736L180.086 389.906L46.7305 446.904L146.972 342.286L1.95394 344.118L134.675 285.642L0.0789486 232.005L145.064 228.579L41.3788 127.656L176.565 179.798L119.579 46.9522L224.386 146.72L222.773 2.16606Z" fill="white" fill-opacity="0.85"/>
<path d="M281.796 55.5417C289.894 53.7837 295.039 45.8166 293.287 37.7467C291.536 29.6769 283.55 24.5601 275.452 26.3181C267.354 28.0762 262.209 36.0433 263.961 44.1131C265.713 52.183 273.698 57.2997 281.796 55.5417Z" fill="white" fill-opacity="0.85"/>
<path d="M292.512 539.455C300.61 537.697 305.755 529.73 304.003 521.66C302.251 513.59 294.266 508.474 286.168 510.232C278.07 511.99 272.925 519.957 274.677 528.027C276.428 536.097 284.414 541.213 292.512 539.455Z" fill="white" fill-opacity="0.85"/>
<path d="M377.109 72.5743C385.208 70.8163 390.353 62.8492 388.601 54.7793C386.849 46.7094 378.864 41.5927 370.765 43.3507C362.667 45.1087 357.522 53.0758 359.274 61.1457C361.026 69.2156 369.011 74.3323 377.109 72.5743Z" fill="white" fill-opacity="0.85"/>
<path d="M197.2 522.436C205.299 520.678 210.443 512.711 208.692 504.641C206.94 496.571 198.955 491.454 190.856 493.212C182.758 494.97 177.613 502.937 179.365 511.007C181.117 519.077 189.102 524.194 197.2 522.436Z" fill="white" fill-opacity="0.85"/>
<path d="M456.433 123.757C464.531 121.999 469.676 114.032 467.924 105.962C466.173 97.8918 458.187 92.775 450.089 94.533C441.991 96.2911 436.846 104.258 438.598 112.328C440.35 120.398 448.335 125.515 456.433 123.757Z" fill="white" fill-opacity="0.85"/>
<path d="M117.862 471.243C125.96 469.485 131.105 461.518 129.353 453.448C127.601 445.379 119.616 440.262 111.518 442.02C103.419 443.778 98.2744 451.745 100.026 459.815C101.778 467.885 109.763 473.001 117.862 471.243Z" fill="white" fill-opacity="0.85"/>
<path d="M509.573 200.116C517.672 198.358 522.816 190.391 521.065 182.322C519.313 174.252 511.328 169.135 503.229 170.893C495.131 172.651 489.986 180.618 491.738 188.688C493.49 196.758 501.475 201.875 509.573 200.116Z" fill="white" fill-opacity="0.85"/>
<path d="M64.7375 394.893C72.8358 393.135 77.9807 385.168 76.2288 377.098C74.477 369.028 66.4918 363.911 58.3935 365.669C50.2952 367.428 45.1503 375.395 46.9022 383.464C48.654 391.534 56.6392 396.651 64.7375 394.893Z" fill="white" fill-opacity="0.85"/>
<path d="M529.842 289.693C537.941 287.935 543.085 279.968 541.334 271.898C539.582 263.829 531.597 258.712 523.498 260.47C515.4 262.228 510.255 270.195 512.007 278.265C513.759 286.335 521.744 291.451 529.842 289.693Z" fill="white" fill-opacity="0.85"/>
<path d="M44.4685 305.316C52.5669 303.558 57.7117 295.591 55.9599 287.521C54.208 279.451 46.2228 274.335 38.1245 276.093C30.0262 277.851 24.8814 285.818 26.6332 293.888C28.3851 301.957 36.3702 307.074 44.4685 305.316Z" fill="white" fill-opacity="0.85"/>
<path d="M514.24 382.825C522.339 381.067 527.483 373.1 525.732 365.03C523.98 356.96 515.995 351.844 507.896 353.602C499.798 355.36 494.653 363.327 496.405 371.397C498.157 379.467 506.142 384.583 514.24 382.825Z" fill="white" fill-opacity="0.85"/>
<path d="M60.0559 212.188C68.1542 210.43 73.2991 202.462 71.5472 194.393C69.7954 186.323 61.8102 181.206 53.7119 182.964C45.6135 184.722 40.4687 192.689 42.2206 200.759C43.9724 208.829 51.9576 213.946 60.0559 212.188Z" fill="white" fill-opacity="0.85"/>
<path d="M462.276 464.892C470.374 463.133 475.519 455.166 473.767 447.097C472.015 439.027 464.03 433.91 455.932 435.668C447.834 437.426 442.689 445.393 444.441 453.463C446.192 461.533 454.178 466.65 462.276 464.892Z" fill="white" fill-opacity="0.85"/>
<path d="M112.034 130.118C120.132 128.36 125.277 120.393 123.525 112.323C121.773 104.254 113.788 99.1368 105.69 100.895C97.5914 102.653 92.4466 110.62 94.1984 118.69C95.9503 126.76 103.935 131.876 112.034 130.118Z" fill="white" fill-opacity="0.85"/>
<path d="M384.822 518.934C392.92 517.176 398.065 509.209 396.313 501.139C394.561 493.069 386.576 487.953 378.478 489.711C370.38 491.469 365.235 499.436 366.987 507.506C368.739 515.576 376.724 520.692 384.822 518.934Z" fill="white" fill-opacity="0.85"/>
<path d="M189.473 76.0656C197.571 74.3076 202.716 66.3405 200.964 58.2706C199.212 50.2007 191.227 45.084 183.129 46.842C175.03 48.6001 169.886 56.5671 171.637 64.637C173.389 72.7069 181.374 77.8236 189.473 76.0656Z" fill="white" fill-opacity="0.85"/>
<path d="M280.315 134.785L281.273 136.952L282.157 134.754L334.345 5.0303L337.461 144.675L337.514 147.048L339.175 145.353L437.154 45.3414L386.42 175.619L385.557 177.837L387.745 176.901L516.61 121.825L419.745 222.909L418.095 224.631L420.479 224.601L560.597 222.844L432.36 279.33L430.178 280.291L432.393 281.174L562.452 332.996L422.35 336.309L419.971 336.365L421.677 338.025L521.861 435.54L391.233 385.156L389.018 384.302L389.954 386.484L445.022 514.863L343.742 418.443L342.026 416.809L342.053 419.179L343.623 558.862L287.123 431.103L286.165 428.936L285.281 431.134L233.096 560.869L229.977 421.212L229.924 418.839L228.263 420.535L130.284 520.546L181.018 390.269L181.882 388.051L179.693 388.986L50.8408 444.06L147.694 342.978L149.344 341.256L146.959 341.287L6.8442 343.056L135.078 286.558L137.261 285.596L135.045 284.713L4.9986 232.889L145.088 229.579L147.467 229.523L145.762 227.863L45.5774 130.347L176.205 180.731L178.42 181.585L177.484 179.404L122.419 51.0364L223.696 147.445L225.412 149.078L225.386 146.709L223.827 7.02349L280.315 134.785ZM292.31 37.9589C293.944 45.4858 289.146 52.9229 281.584 54.5645C274.022 56.206 266.572 51.4279 264.938 43.901C263.304 36.3741 268.102 28.9369 275.664 27.2954C283.226 25.6538 290.676 30.432 292.31 37.9589ZM303.026 521.873C304.66 529.399 299.862 536.837 292.3 538.478C284.738 540.12 277.288 535.342 275.654 527.815C274.02 520.288 278.818 512.851 286.38 511.209C293.942 509.567 301.392 514.346 303.026 521.873ZM387.623 54.9914C389.257 62.5184 384.459 69.9555 376.897 71.5971C369.335 73.2386 361.885 68.4605 360.251 60.9335C358.617 53.4066 363.416 45.9695 370.977 44.3279C378.539 42.6864 385.989 47.4645 387.623 54.9914ZM207.714 504.853C209.348 512.38 204.55 519.817 196.988 521.458C189.426 523.1 181.976 518.322 180.342 510.795C178.708 503.268 183.507 495.831 191.068 494.189C198.63 492.548 206.08 497.326 207.714 504.853ZM466.947 106.174C468.581 113.701 463.783 121.138 456.221 122.779C448.659 124.421 441.209 119.643 439.575 112.116C437.941 104.589 442.739 97.1519 450.301 95.5103C457.863 93.8687 465.313 98.6469 466.947 106.174ZM128.376 453.661C130.01 461.187 125.211 468.625 117.649 470.266C110.088 471.908 102.638 467.13 101.004 459.603C99.3695 452.076 104.168 444.639 111.73 442.997C119.292 441.355 126.742 446.134 128.376 453.661ZM520.087 182.534C521.721 190.061 516.923 197.498 509.361 199.139C501.799 200.781 494.349 196.003 492.715 188.476C491.081 180.949 495.88 173.512 503.441 171.87C511.003 170.229 518.453 175.007 520.087 182.534ZM75.2516 377.31C76.8856 384.837 72.0872 392.274 64.5254 393.916C56.9635 395.557 49.5134 390.779 47.8794 383.252C46.2454 375.725 51.0438 368.288 58.6056 366.647C66.1675 365.005 73.6176 369.783 75.2516 377.31ZM540.356 272.111C541.99 279.637 537.192 287.075 529.63 288.716C522.068 290.358 514.618 285.58 512.984 278.053C511.35 270.526 516.149 263.089 523.71 261.447C531.272 259.805 538.722 264.584 540.356 272.111ZM54.9826 287.733C56.6166 295.26 51.8183 302.697 44.2564 304.339C36.6945 305.98 29.2444 301.202 27.6104 293.675C25.9765 286.149 30.7748 278.711 38.3367 277.07C45.8985 275.428 53.3486 280.206 54.9826 287.733ZM524.754 365.242C526.388 372.769 521.59 380.206 514.028 381.848C506.466 383.49 499.016 378.712 497.382 371.185C495.748 363.658 500.547 356.221 508.108 354.579C515.67 352.937 523.12 357.716 524.754 365.242ZM70.57 194.605C72.204 202.132 67.4056 209.569 59.8438 211.21C52.2819 212.852 44.8318 208.074 43.1978 200.547C41.5638 193.02 46.3622 185.583 53.924 183.941C61.4859 182.3 68.936 187.078 70.57 194.605ZM472.79 447.309C474.424 454.836 469.626 462.273 462.064 463.914C454.502 465.556 447.052 460.778 445.418 453.251C443.784 445.724 448.582 438.287 456.144 436.645C463.706 435.004 471.156 439.782 472.79 447.309ZM122.548 112.536C124.182 120.063 119.383 127.5 111.822 129.141C104.26 130.783 96.8096 126.005 95.1756 118.478C93.5417 110.951 98.34 103.514 105.902 101.872C113.464 100.231 120.914 105.009 122.548 112.536ZM395.336 501.351C396.97 508.878 392.172 516.315 384.61 517.957C377.048 519.599 369.598 514.82 367.964 507.294C366.33 499.767 371.128 492.33 378.69 490.688C386.252 489.046 393.702 493.825 395.336 501.351ZM199.987 58.4828C201.621 66.0097 196.823 73.4468 189.261 75.0884C181.699 76.7299 174.249 71.9518 172.615 64.4249C170.981 56.898 175.779 49.4608 183.341 47.8193C190.903 46.1777 198.353 50.9558 199.987 58.4828Z" stroke="#20409A" stroke-opacity="0.12" stroke-width="2"/>
</svg>
