<svg width="526" height="525" viewBox="0 0 526 525" fill="none" xmlns="http://www.w3.org/2000/svg">
<path d="M206.718 2.5952L260.806 124.93L310.777 0.716949L313.761 134.435L407.583 38.6676L358.999 163.423L482.402 110.681L389.639 207.484L523.823 205.801L401.017 259.895L525.567 309.522L391.404 312.695L487.342 406.077L362.257 357.831L414.988 480.761L318.01 388.437L319.514 522.187L265.414 399.855L215.446 524.079L212.459 390.35L118.637 486.117L167.221 361.362L43.83 414.101L136.581 317.301L2.39926 318.995L125.203 264.889L0.664379 215.26L134.816 212.09L38.8781 118.708L163.963 166.954L111.235 44.0348L208.21 136.348L206.718 2.5952Z" fill="white" fill-opacity="0.85"/>
<path d="M261.331 51.9825C268.824 50.3558 273.584 42.984 271.963 35.5172C270.342 28.0503 262.954 23.3159 255.461 24.9425C247.968 26.5692 243.207 33.941 244.828 41.4078C246.449 48.8747 253.838 53.6091 261.331 51.9825Z" fill="white" fill-opacity="0.85"/>
<path d="M271.246 499.737C278.739 498.11 283.499 490.738 281.878 483.271C280.257 475.804 272.869 471.07 265.376 472.697C257.883 474.323 253.122 481.695 254.743 489.162C256.364 496.629 263.753 501.363 271.246 499.737Z" fill="white" fill-opacity="0.85"/>
<path d="M349.522 67.7423C357.015 66.1156 361.775 58.7439 360.154 51.277C358.533 43.8101 351.145 39.0757 343.652 40.7024C336.159 42.3291 331.398 49.7008 333.019 57.1677C334.64 64.6346 342.029 69.369 349.522 67.7423Z" fill="white" fill-opacity="0.85"/>
<path d="M183.056 483.989C190.549 482.362 195.31 474.99 193.689 467.523C192.068 460.056 184.679 455.322 177.186 456.949C169.693 458.575 164.933 465.947 166.554 473.414C168.174 480.881 175.563 485.615 183.056 483.989Z" fill="white" fill-opacity="0.85"/>
<path d="M422.918 115.1C430.411 113.473 435.172 106.102 433.551 98.6348C431.93 91.168 424.541 86.4336 417.048 88.0602C409.555 89.6869 404.795 97.0587 406.416 104.526C408.037 111.992 415.425 116.727 422.918 115.1Z" fill="white" fill-opacity="0.85"/>
<path d="M109.646 436.622C117.139 434.995 121.9 427.623 120.279 420.156C118.658 412.689 111.269 407.955 103.776 409.582C96.2828 411.208 91.5224 418.58 93.1433 426.047C94.7643 433.514 102.153 438.248 109.646 436.622Z" fill="white" fill-opacity="0.85"/>
<path d="M472.088 185.754C479.581 184.127 484.341 176.756 482.72 169.289C481.099 161.822 473.711 157.088 466.218 158.714C458.724 160.341 453.964 167.713 455.585 175.18C457.206 182.646 464.594 187.381 472.088 185.754Z" fill="white" fill-opacity="0.85"/>
<path d="M60.4914 365.976C67.9846 364.35 72.745 356.978 71.1241 349.511C69.5031 342.044 62.1147 337.31 54.6215 338.936C47.1283 340.563 42.3679 347.935 43.9888 355.402C45.6098 362.869 52.9983 367.603 60.4914 365.976Z" fill="white" fill-opacity="0.85"/>
<path d="M490.842 268.638C498.335 267.011 503.096 259.639 501.475 252.172C499.854 244.705 492.465 239.971 484.972 241.598C477.479 243.224 472.718 250.596 474.339 258.063C475.96 265.53 483.349 270.264 490.842 268.638Z" fill="white" fill-opacity="0.85"/>
<path d="M41.737 283.093C49.2302 281.466 53.9906 274.095 52.3697 266.628C50.7487 259.161 43.3602 254.426 35.867 256.053C28.3739 257.68 23.6135 265.051 25.2344 272.518C26.8554 279.985 34.2438 284.72 41.737 283.093Z" fill="white" fill-opacity="0.85"/>
<path d="M476.406 354.81C483.899 353.184 488.659 345.812 487.039 338.345C485.418 330.878 478.029 326.144 470.536 327.77C463.043 329.397 458.282 336.769 459.903 344.236C461.524 351.703 468.913 356.437 476.406 354.81Z" fill="white" fill-opacity="0.85"/>
<path d="M56.1597 196.923C63.6528 195.297 68.4132 187.925 66.7923 180.458C65.1713 172.991 57.7829 168.257 50.2897 169.883C42.7965 171.51 38.0361 178.882 39.657 186.349C41.278 193.815 48.6665 198.55 56.1597 196.923Z" fill="white" fill-opacity="0.85"/>
<path d="M428.324 430.744C435.818 429.118 440.578 421.746 438.957 414.279C437.336 406.812 429.948 402.078 422.454 403.704C414.961 405.331 410.201 412.703 411.822 420.17C413.443 427.637 420.831 432.371 428.324 430.744Z" fill="white" fill-opacity="0.85"/>
<path d="M104.254 120.987C111.747 119.36 116.507 111.988 114.886 104.521C113.265 97.0544 105.877 92.32 98.3836 93.9467C90.8904 95.5733 86.13 102.945 87.7509 110.412C89.3719 117.879 96.7604 122.613 104.254 120.987Z" fill="white" fill-opacity="0.85"/>
<path d="M356.658 480.749C364.151 479.122 368.912 471.75 367.291 464.284C365.67 456.817 358.281 452.082 350.788 453.709C343.295 455.336 338.535 462.707 340.156 470.174C341.776 477.641 349.165 482.376 356.658 480.749Z" fill="white" fill-opacity="0.85"/>
<path d="M175.906 70.9727C183.399 69.3461 188.16 61.9743 186.539 54.5074C184.918 47.0406 177.529 42.3062 170.036 43.9328C162.543 45.5595 157.783 52.9313 159.403 60.3981C161.024 67.865 168.413 72.5994 175.906 70.9727Z" fill="white" fill-opacity="0.85"/>
<path d="M259.892 125.334L260.85 127.501L261.734 125.303L309.886 5.61113L312.761 134.457L312.814 136.83L314.475 135.135L404.878 42.8575L358.068 163.06L357.204 165.278L359.392 164.342L478.291 113.526L388.917 206.792L387.267 208.514L389.652 208.484L518.933 206.863L400.614 258.98L398.431 259.942L400.647 260.824L520.647 308.638L391.381 311.695L389.001 311.751L390.707 313.411L483.143 403.385L362.617 356.898L360.402 356.043L361.338 358.225L412.148 476.677L318.7 387.713L316.983 386.079L317.01 388.448L318.459 517.33L266.328 399.45L265.37 397.284L264.486 399.482L216.337 519.185L213.459 390.327L213.406 387.954L211.745 389.65L121.342 481.927L168.153 361.725L169.016 359.507L166.828 360.442L47.9402 411.257L137.303 317.993L138.953 316.271L136.568 316.301L7.28952 317.933L125.606 265.804L127.788 264.843L125.573 263.96L5.58403 216.144L134.84 213.09L137.219 213.034L135.513 211.373L43.0767 121.399L163.603 167.887L165.818 168.741L164.882 166.56L114.075 48.119L207.521 137.072L209.237 138.706L209.21 136.337L207.772 7.45263L259.892 125.334ZM270.986 35.7293C272.489 42.6532 268.075 49.495 261.119 51.0052C254.162 52.5154 247.308 48.1196 245.805 41.1957C244.302 34.2718 248.716 27.43 255.673 25.9198C262.63 24.4096 269.483 28.8054 270.986 35.7293ZM280.901 483.483C282.404 490.407 277.99 497.249 271.034 498.759C264.077 500.269 257.223 495.874 255.72 488.95C254.217 482.026 258.631 475.184 265.588 473.674C272.545 472.164 279.398 476.559 280.901 483.483ZM359.177 51.4892C360.68 58.4131 356.266 65.2549 349.31 66.7651C342.353 68.2753 335.5 63.8795 333.996 56.9555C332.493 50.0316 336.907 43.1899 343.864 41.6796C350.821 40.1694 357.674 44.5653 359.177 51.4892ZM192.712 467.735C194.215 474.659 189.801 481.501 182.844 483.011C175.887 484.522 169.034 480.126 167.531 473.202C166.028 466.278 170.442 459.436 177.398 457.926C184.355 456.416 191.208 460.812 192.712 467.735ZM432.574 98.847C434.077 105.771 429.663 112.613 422.706 114.123C415.749 115.633 408.896 111.237 407.393 104.313C405.89 97.3895 410.304 90.5477 417.26 89.0375C424.217 87.5273 431.071 91.9231 432.574 98.847ZM119.301 420.368C120.804 427.292 116.391 434.134 109.434 435.644C102.477 437.155 95.6236 432.759 94.1206 425.835C92.6175 418.911 97.0314 412.069 103.988 410.559C110.945 409.049 117.798 413.445 119.301 420.368ZM481.743 169.501C483.246 176.425 478.832 183.267 471.875 184.777C464.919 186.287 458.065 181.891 456.562 174.967C455.059 168.043 459.473 161.202 466.43 159.691C473.387 158.181 480.24 162.577 481.743 169.501ZM70.1468 349.723C71.6499 356.647 67.236 363.489 60.2793 364.999C53.3226 366.509 46.4691 362.113 44.9661 355.19C43.463 348.266 47.8769 341.424 54.8336 339.914C61.7903 338.403 68.6438 342.799 70.1468 349.723ZM500.497 252.384C502 259.308 497.587 266.15 490.63 267.66C483.673 269.171 476.82 264.775 475.317 257.851C473.814 250.927 478.227 244.085 485.184 242.575C492.141 241.065 498.994 245.46 500.497 252.384ZM51.3924 266.84C52.8955 273.764 48.4816 280.606 41.5249 282.116C34.5682 283.626 27.7147 279.23 26.2116 272.306C24.7086 265.382 29.1225 258.54 36.0792 257.03C43.0359 255.52 49.8893 259.916 51.3924 266.84ZM486.061 338.557C487.564 345.481 483.15 352.323 476.194 353.833C469.237 355.343 462.384 350.948 460.881 344.024C459.377 337.1 463.791 330.258 470.748 328.748C477.705 327.238 484.558 331.633 486.061 338.557ZM65.8151 180.67C67.3181 187.594 62.9042 194.436 55.9475 195.946C48.9908 197.456 42.1374 193.06 40.6343 186.136C39.1312 179.213 43.5451 172.371 50.5018 170.861C57.4585 169.35 64.312 173.746 65.8151 180.67ZM437.98 414.491C439.483 421.415 435.069 428.257 428.112 429.767C421.156 431.277 414.302 426.881 412.799 419.958C411.296 413.034 415.71 406.192 422.667 404.682C429.623 403.171 436.477 407.567 437.98 414.491ZM113.909 104.733C115.412 111.657 110.998 118.499 104.041 120.009C97.0847 121.52 90.2312 117.124 88.7282 110.2C87.2251 103.276 91.639 96.4341 98.5957 94.9239C105.552 93.4137 112.406 97.8095 113.909 104.733ZM366.314 464.496C367.817 471.42 363.403 478.261 356.446 479.772C349.489 481.282 342.636 476.886 341.133 469.962C339.63 463.038 344.044 456.196 351 454.686C357.957 453.176 364.81 457.572 366.314 464.496ZM185.561 54.7196C187.065 61.6435 182.651 68.4853 175.694 69.9955C168.737 71.5057 161.884 67.1099 160.381 60.186C158.878 53.2621 163.292 46.4203 170.248 44.9101C177.205 43.3999 184.058 47.7957 185.561 54.7196Z" stroke="#20409A" stroke-opacity="0.06" stroke-width="2"/>
</svg>
