<svg width="26" height="26" viewBox="0 0 26 26" fill="none" xmlns="http://www.w3.org/2000/svg">
<path d="M19.5329 18.0009L24.1725 22.6405L22.6405 24.1725L18.0009 19.5329C16.3327 20.8676 14.217 21.666 11.916 21.666C6.53402 21.666 2.16602 17.298 2.16602 11.916C2.16602 6.53402 6.53402 2.16602 11.916 2.16602C17.298 2.16602 21.666 6.53402 21.666 11.916C21.666 14.217 20.8676 16.3327 19.5329 18.0009ZM17.3594 17.197C18.6841 15.8318 19.4993 13.9696 19.4993 11.916C19.4993 7.72622 16.1058 4.33268 11.916 4.33268C7.72622 4.33268 4.33268 7.72622 4.33268 11.916C4.33268 16.1058 7.72622 19.4993 11.916 19.4993C13.9696 19.4993 15.8318 18.6841 17.197 17.3594L17.3594 17.197Z" fill="#050608"/>
</svg>
