<svg width="28" height="28" viewBox="0 0 28 28" fill="none" xmlns="http://www.w3.org/2000/svg">
<path d="M21.0362 19.3869L26.0327 24.3834L24.3828 26.0333L19.3863 21.0368C17.5897 22.4741 15.3113 23.334 12.8333 23.334C7.03734 23.334 2.33334 18.63 2.33334 12.834C2.33334 7.03798 7.03734 2.33398 12.8333 2.33398C18.6293 2.33398 23.3333 7.03798 23.3333 12.834C23.3333 15.312 22.4735 17.5904 21.0362 19.3869ZM18.6955 18.5212C20.1221 17.051 21 15.0455 21 12.834C21 8.3219 17.3454 4.66732 12.8333 4.66732C8.32126 4.66732 4.66668 8.3219 4.66668 12.834C4.66668 17.3461 8.32126 21.0007 12.8333 21.0007C15.0449 21.0007 17.0504 20.1227 18.5206 18.6961L18.6955 18.5212Z" fill="#FF4000"/>
</svg>
