<svg width="480" height="323" viewBox="0 0 480 323" fill="none" xmlns="http://www.w3.org/2000/svg">
<g opacity="0.5">
<path d="M82.5831 2.83643L149.921 155.138L212.133 0.498081L215.848 166.972L332.652 47.7451L272.167 203.06L425.798 137.399L310.313 257.915L477.367 255.82L324.478 323.165L479.538 384.948L312.51 388.898L431.949 505.154L276.223 445.09L341.871 598.134L221.137 483.194L223.01 649.707L155.657 497.408L93.4489 652.063L89.7307 485.575L-27.0734 604.802L33.4109 449.486L-120.206 515.144L-4.73441 394.632L-171.785 396.741L-18.8993 329.382L-173.945 267.595L-6.93176 263.649L-126.37 147.392L29.3551 207.457L-36.2894 54.427L84.441 169.353L82.5831 2.83643Z" fill="#06123E" fill-opacity="0.04"/>
<path d="M150.574 64.3216C159.903 62.2964 165.829 53.1189 163.811 43.8229C161.793 34.527 152.595 28.6328 143.266 30.658C133.937 32.6831 128.011 41.8606 130.029 51.1566C132.047 60.4525 141.245 66.3467 150.574 64.3216Z" fill="#06123E" fill-opacity="0.04"/>
<path d="M162.918 621.757C172.247 619.732 178.173 610.555 176.155 601.259C174.137 591.963 164.939 586.068 155.61 588.094C146.281 590.119 140.355 599.296 142.373 608.592C144.391 617.888 153.589 623.782 162.918 621.757Z" fill="#06123E" fill-opacity="0.04"/>
<path d="M260.368 83.9419C269.697 81.9168 275.623 72.7393 273.605 63.4433C271.587 54.1474 262.389 48.2532 253.06 50.2784C243.732 52.3035 237.805 61.481 239.823 70.777C241.841 80.0729 251.04 85.9671 260.368 83.9419Z" fill="#06123E" fill-opacity="0.04"/>
<path d="M53.1253 602.152C62.454 600.127 68.3805 590.949 66.3625 581.653C64.3444 572.357 55.1461 566.463 45.8174 568.488C36.4886 570.513 30.5621 579.691 32.5802 588.987C34.5982 598.283 43.7965 604.177 53.1253 602.152Z" fill="#06123E" fill-opacity="0.04"/>
<path d="M351.744 142.9C361.072 140.875 366.999 131.698 364.981 122.402C362.963 113.106 353.765 107.212 344.436 109.237C335.107 111.262 329.181 120.44 331.199 129.736C333.217 139.031 342.415 144.926 351.744 142.9Z" fill="#06123E" fill-opacity="0.04"/>
<path d="M-38.2675 543.182C-28.9387 541.156 -23.0122 531.979 -25.0303 522.683C-27.0483 513.387 -36.2466 507.493 -45.5753 509.518C-54.9041 511.543 -60.8306 520.721 -58.8126 530.017C-56.7945 539.313 -47.5962 545.207 -38.2675 543.182Z" fill="#06123E" fill-opacity="0.04"/>
<path d="M412.958 230.862C422.286 228.837 428.213 219.659 426.195 210.363C424.177 201.067 414.978 195.173 405.65 197.198C396.321 199.223 390.395 208.401 392.413 217.697C394.431 226.993 403.629 232.887 412.958 230.862Z" fill="#06123E" fill-opacity="0.04"/>
<path d="M-99.4628 455.231C-90.1341 453.206 -84.2076 444.029 -86.2256 434.733C-88.2436 425.437 -97.442 419.543 -106.771 421.568C-116.099 423.593 -122.026 432.77 -120.008 442.066C-117.99 451.362 -108.792 457.256 -99.4628 455.231Z" fill="#06123E" fill-opacity="0.04"/>
<path d="M436.306 334.048C445.635 332.023 451.561 322.846 449.543 313.55C447.525 304.254 438.327 298.36 428.998 300.385C419.67 302.41 413.743 311.587 415.761 320.883C417.779 330.179 426.977 336.074 436.306 334.048Z" fill="#06123E" fill-opacity="0.04"/>
<path d="M-122.811 352.045C-113.483 350.02 -107.556 340.842 -109.574 331.546C-111.592 322.25 -120.79 316.356 -130.119 318.381C-139.448 320.406 -145.374 329.584 -143.356 338.88C-141.338 348.176 -132.14 354.07 -122.811 352.045Z" fill="#06123E" fill-opacity="0.04"/>
<path d="M418.334 441.33C427.662 439.305 433.589 430.127 431.571 420.831C429.553 411.535 420.355 405.641 411.026 407.666C401.697 409.692 395.771 418.869 397.789 428.165C399.807 437.461 409.005 443.355 418.334 441.33Z" fill="#06123E" fill-opacity="0.04"/>
<path d="M-104.856 244.767C-95.527 242.742 -89.6005 233.564 -91.6185 224.268C-93.6365 214.972 -102.835 209.078 -112.164 211.103C-121.492 213.128 -127.419 222.306 -125.401 231.602C-123.383 240.898 -114.184 246.792 -104.856 244.767Z" fill="#06123E" fill-opacity="0.04"/>
<path d="M358.474 535.865C367.803 533.84 373.729 524.662 371.711 515.366C369.693 506.07 360.495 500.176 351.166 502.201C341.838 504.226 335.911 513.404 337.929 522.7C339.947 531.996 349.146 537.89 358.474 535.865Z" fill="#06123E" fill-opacity="0.04"/>
<path d="M-44.9808 150.229C-35.6521 148.204 -29.7256 139.026 -31.7436 129.73C-33.7616 120.434 -42.9599 114.54 -52.2887 116.565C-61.6174 118.59 -67.5439 127.768 -65.5259 137.064C-63.5079 146.36 -54.3095 152.254 -44.9808 150.229Z" fill="#06123E" fill-opacity="0.04"/>
<path d="M269.253 598.118C278.581 596.093 284.508 586.916 282.49 577.62C280.472 568.324 271.274 562.43 261.945 564.455C252.616 566.48 246.69 575.657 248.708 584.953C250.726 594.249 259.924 600.143 269.253 598.118Z" fill="#06123E" fill-opacity="0.04"/>
<path d="M44.2237 87.9637C53.5524 85.9385 59.4789 76.761 57.4609 67.4651C55.4429 58.1691 46.2445 52.275 36.9158 54.3001C27.5871 56.3252 21.6606 65.5028 23.6786 74.7987C25.6966 84.0947 34.895 89.9888 44.2237 87.9637Z" fill="#06123E" fill-opacity="0.04"/>
</g>
</svg>
