<svg width="684" height="419" viewBox="0 0 684 419" fill="none" xmlns="http://www.w3.org/2000/svg">
<path d="M233.751 2.83047L310.045 175.388L380.53 0.181135L384.739 188.795L517.078 53.7118L448.549 229.683L622.613 155.29L491.768 291.833L681.039 289.459L507.817 365.761L683.499 435.762L494.257 440.236L629.581 571.954L453.145 503.902L527.523 677.3L390.733 547.073L392.854 735.732L316.544 563.178L246.062 738.401L241.849 549.771L109.511 684.854L178.039 508.883L3.99242 583.273L134.821 446.733L-54.447 449.123L118.772 372.805L-56.8941 302.801L132.331 298.33L-2.99229 166.612L173.444 234.664L99.0692 61.2823L235.856 191.493L233.751 2.83047Z" fill="white" fill-opacity="0.85"/>
<path d="M310.785 72.4928C321.354 70.1984 328.069 59.8003 325.782 49.268C323.496 38.7357 313.074 32.0577 302.505 34.3522C291.935 36.6466 285.221 47.0447 287.507 57.577C289.793 68.1093 300.215 74.7873 310.785 72.4928Z" fill="white" fill-opacity="0.85"/>
<path d="M324.77 704.065C335.339 701.77 342.054 691.372 339.768 680.84C337.481 670.308 327.06 663.63 316.49 665.924C305.921 668.219 299.206 678.617 301.493 689.149C303.779 699.681 314.201 706.359 324.77 704.065Z" fill="white" fill-opacity="0.85"/>
<path d="M435.181 94.7226C445.75 92.4282 452.465 82.0301 450.179 71.4978C447.892 60.9655 437.471 54.2875 426.901 56.5819C416.332 58.8764 409.617 69.2745 411.903 79.8068C414.19 90.3391 424.612 97.0171 435.181 94.7226Z" fill="white" fill-opacity="0.85"/>
<path d="M200.376 681.852C210.945 679.557 217.66 669.159 215.373 658.627C213.087 648.095 202.665 641.417 192.096 643.711C181.526 646.006 174.812 656.404 177.098 666.936C179.385 677.468 189.806 684.146 200.376 681.852Z" fill="white" fill-opacity="0.85"/>
<path d="M538.709 161.522C549.278 159.228 555.993 148.83 553.707 138.298C551.42 127.765 540.999 121.087 530.429 123.382C519.86 125.676 513.145 136.074 515.432 146.607C517.718 157.139 528.14 163.817 538.709 161.522Z" fill="white" fill-opacity="0.85"/>
<path d="M96.8281 615.039C107.397 612.745 114.112 602.347 111.826 591.814C109.539 581.282 99.1177 574.604 88.5483 576.898C77.9789 579.193 71.2642 589.591 73.5506 600.123C75.837 610.656 86.2587 617.334 96.8281 615.039Z" fill="white" fill-opacity="0.85"/>
<path d="M608.064 261.182C618.634 258.888 625.348 248.49 623.062 237.957C620.775 227.425 610.354 220.747 599.784 223.042C589.215 225.336 582.5 235.734 584.787 246.266C587.073 256.799 597.495 263.477 608.064 261.182Z" fill="white" fill-opacity="0.85"/>
<path d="M27.494 515.392C38.0634 513.097 44.7781 502.699 42.4917 492.167C40.2053 481.635 29.7836 474.957 19.2142 477.251C8.6448 479.546 1.9301 489.944 4.21651 500.476C6.50291 511.008 16.9246 517.686 27.494 515.392Z" fill="white" fill-opacity="0.85"/>
<path d="M634.518 378.092C645.087 375.798 651.802 365.4 649.516 354.867C647.229 344.335 636.807 337.657 626.238 339.951C615.669 342.246 608.954 352.644 611.24 363.176C613.527 373.709 623.948 380.387 634.518 378.092Z" fill="white" fill-opacity="0.85"/>
<path d="M1.04028 398.482C11.6097 396.187 18.3244 385.789 16.038 375.257C13.7516 364.725 3.32988 358.047 -7.23952 360.341C-17.8089 362.636 -24.5236 373.034 -22.2372 383.566C-19.9508 394.098 -9.52912 400.776 1.04028 398.482Z" fill="white" fill-opacity="0.85"/>
<path d="M614.155 499.642C624.725 497.347 631.439 486.949 629.153 476.417C626.866 465.885 616.445 459.207 605.875 461.501C595.306 463.796 588.591 474.194 590.878 484.726C593.164 495.258 603.586 501.936 614.155 499.642Z" fill="white" fill-opacity="0.85"/>
<path d="M21.3839 276.937C31.9533 274.642 38.668 264.244 36.3816 253.712C34.0952 243.18 23.6735 236.501 13.1041 238.796C2.53467 241.09 -4.18002 251.488 -1.89362 262.021C0.392784 272.553 10.8145 279.231 21.3839 276.937Z" fill="white" fill-opacity="0.85"/>
<path d="M546.335 606.749C556.904 604.455 563.619 594.056 561.332 583.524C559.046 572.992 548.624 566.314 538.055 568.608C527.485 570.903 520.771 581.301 523.057 591.833C525.344 602.365 535.765 609.044 546.335 606.749Z" fill="white" fill-opacity="0.85"/>
<path d="M89.2219 169.825C99.7913 167.531 106.506 157.133 104.22 146.601C101.933 136.068 91.5115 129.39 80.9421 131.685C70.3727 133.979 63.658 144.377 65.9444 154.91C68.2308 165.442 78.6525 172.12 89.2219 169.825Z" fill="white" fill-opacity="0.85"/>
<path d="M445.247 677.282C455.816 674.988 462.531 664.59 460.245 654.057C457.958 643.525 447.537 636.847 436.967 639.141C426.398 641.436 419.683 651.834 421.97 662.366C424.256 672.899 434.678 679.577 445.247 677.282Z" fill="white" fill-opacity="0.85"/>
<path d="M190.29 99.2793C200.86 96.9848 207.574 86.5867 205.288 76.0544C203.001 65.5222 192.58 58.8441 182.01 61.1386C171.441 63.433 164.726 73.8312 167.013 84.3634C169.299 94.8957 179.721 101.574 190.29 99.2793Z" fill="white" fill-opacity="0.85"/>
<path d="M309.13 175.792L310.088 177.959L310.973 175.761L379.639 5.07538L383.74 188.817L383.793 191.19L385.454 189.495L514.373 57.9016L447.618 229.32L446.754 231.538L448.942 230.603L618.502 158.134L491.046 291.141L489.396 292.863L491.78 292.833L676.149 290.521L507.414 364.846L505.231 365.807L507.447 366.69L678.579 434.878L494.234 439.236L491.855 439.293L493.56 440.953L625.382 569.263L453.505 502.969L451.29 502.115L452.226 504.296L524.683 673.215L391.422 546.349L389.706 544.715L389.733 547.084L391.799 730.875L317.458 562.774L316.5 560.607L315.616 562.805L246.953 733.507L242.849 549.749L242.796 547.376L241.135 549.071L112.216 680.664L178.971 509.246L179.835 507.028L177.646 507.963L8.10276 580.429L135.543 447.425L137.193 445.703L134.808 445.733L-49.5567 448.061L119.175 373.72L121.357 372.759L119.142 371.876L-51.9744 303.685L132.355 299.33L134.734 299.273L133.029 297.613L1.20631 169.303L173.084 235.597L175.299 236.451L174.363 234.27L101.909 65.3665L235.167 192.218L236.883 193.851L236.856 191.482L234.806 7.6879L309.13 175.792ZM324.805 49.4801C326.974 59.4694 320.605 69.3376 310.572 71.5156C300.539 73.6936 290.653 67.3542 288.484 57.3649C286.316 47.3755 292.684 37.5074 302.717 35.3294C312.75 33.1514 322.636 39.4908 324.805 49.4801ZM338.791 681.052C340.959 691.042 334.591 700.91 324.558 703.088C314.525 705.266 304.638 698.926 302.47 688.937C300.301 678.948 306.669 669.079 316.702 666.901C326.735 664.723 336.622 671.063 338.791 681.052ZM449.201 71.7099C451.37 81.6992 445.002 91.5674 434.969 93.7454C424.936 95.9234 415.049 89.584 412.881 79.5947C410.712 69.6054 417.08 59.7372 427.113 57.5592C437.146 55.3812 447.033 61.7206 449.201 71.7099ZM214.396 658.839C216.565 668.828 210.196 678.697 200.163 680.875C190.131 683.053 180.244 676.713 178.075 666.724C175.907 656.735 182.275 646.866 192.308 644.688C202.341 642.51 212.228 648.85 214.396 658.839ZM552.73 138.51C554.898 148.499 548.53 158.367 538.497 160.545C528.464 162.723 518.577 156.384 516.409 146.394C514.24 136.405 520.608 126.537 530.641 124.359C540.674 122.181 550.561 128.52 552.73 138.51ZM110.849 592.026C113.017 602.016 106.649 611.884 96.6159 614.062C86.583 616.24 76.6963 609.9 74.5278 599.911C72.3593 589.922 78.7275 580.054 88.7604 577.876C98.7933 575.698 108.68 582.037 110.849 592.026ZM622.085 238.17C624.253 248.159 617.885 258.027 607.852 260.205C597.819 262.383 587.932 256.044 585.764 246.054C583.595 236.065 589.964 226.197 599.996 224.019C610.029 221.841 619.916 228.18 622.085 238.17ZM41.5145 492.379C43.683 502.368 37.3148 512.236 27.2819 514.414C17.2489 516.593 7.36228 510.253 5.19375 500.264C3.02521 490.274 9.39341 480.406 19.4263 478.228C29.4593 476.05 39.3459 482.39 41.5145 492.379ZM648.538 355.079C650.707 365.069 644.339 374.937 634.306 377.115C624.273 379.293 614.386 372.953 612.218 362.964C610.049 352.975 616.417 343.107 626.45 340.929C636.483 338.751 646.37 345.09 648.538 355.079ZM15.0607 375.469C17.2293 385.459 10.8611 395.327 0.828135 397.505C-9.2048 399.683 -19.0914 393.343 -21.26 383.354C-23.4285 373.365 -17.0603 363.496 -7.02738 361.318C3.00555 359.14 12.8922 365.48 15.0607 375.469ZM628.176 476.629C630.344 486.618 623.976 496.486 613.943 498.664C603.91 500.842 594.023 494.503 591.855 484.514C589.686 474.524 596.055 464.656 606.088 462.478C616.12 460.3 626.007 466.64 628.176 476.629ZM35.4043 253.924C37.5729 263.913 31.2047 273.781 21.1717 275.959C11.1388 278.137 1.25215 271.798 -0.916382 261.809C-3.08492 251.819 3.28329 241.951 13.3162 239.773C23.3491 237.595 33.2358 243.935 35.4043 253.924ZM560.355 583.736C562.524 593.726 556.155 603.594 546.123 605.772C536.09 607.95 526.203 601.61 524.034 591.621C521.866 581.632 528.234 571.764 538.267 569.586C548.3 567.408 558.187 573.747 560.355 583.736ZM103.242 146.813C105.411 156.802 99.0427 166.67 89.0098 168.848C78.9768 171.026 69.0902 164.687 66.9217 154.697C64.7531 144.708 71.1213 134.84 81.1543 132.662C91.1872 130.484 101.074 136.823 103.242 146.813ZM459.268 654.269C461.436 664.259 455.068 674.127 445.035 676.305C435.002 678.483 425.115 672.143 422.947 662.154C420.778 652.165 427.146 642.297 437.179 640.119C447.212 637.941 457.099 644.28 459.268 654.269ZM204.311 76.2666C206.479 86.2559 200.111 96.124 190.078 98.302C180.045 100.48 170.158 94.1406 167.99 84.1513C165.821 74.162 172.19 64.2938 182.223 62.1158C192.255 59.9378 202.142 66.2773 204.311 76.2666Z" stroke="#20409A" stroke-opacity="0.06" stroke-width="2"/>
</svg>
