<svg width="336" height="226" viewBox="0 0 336 226" fill="none" xmlns="http://www.w3.org/2000/svg">
<g opacity="0.06">
<path d="M176.532 2.30674L222.698 106.724L265.35 0.703587L267.897 114.837L347.977 33.0958L306.509 139.579L411.838 94.562L332.661 177.186L447.192 175.75L342.373 221.921L448.681 264.28L334.168 266.987L416.054 346.692L309.29 305.512L354.297 410.438L271.523 331.636L272.807 445.796L226.631 341.381L183.981 447.412L181.432 333.269L101.352 415.009L142.82 308.526L37.5013 353.541L116.668 270.919L2.13873 272.365L106.956 226.184L0.657944 183.823L115.161 181.118L33.2747 101.413L140.039 142.593L95.0336 37.6768L177.806 116.469L176.532 2.30674Z" fill="#050608"/>
<path d="M223.146 44.4605C229.541 43.0721 233.605 36.78 232.221 30.4068C230.838 24.0335 224.531 19.9926 218.136 21.381C211.74 22.7694 207.677 29.0614 209.06 35.4347C210.444 41.8079 216.75 45.8489 223.146 44.4605Z" fill="#050608"/>
<path d="M231.609 426.634C238.004 425.246 242.067 418.954 240.684 412.58C239.3 406.207 232.994 402.166 226.598 403.555C220.203 404.943 216.139 411.235 217.523 417.608C218.907 423.982 225.213 428.023 231.609 426.634Z" fill="#050608"/>
<path d="M298.42 57.9121C304.816 56.5236 308.879 50.2316 307.495 43.8583C306.112 37.4851 299.805 33.4441 293.41 34.8326C287.014 36.221 282.951 42.513 284.334 48.8862C285.718 55.2595 292.024 59.3005 298.42 57.9121Z" fill="#050608"/>
<path d="M156.336 413.193C162.731 411.804 166.795 405.512 165.411 399.139C164.027 392.766 157.721 388.725 151.325 390.113C144.93 391.502 140.867 397.794 142.25 404.167C143.634 410.54 149.94 414.581 156.336 413.193Z" fill="#050608"/>
<path d="M361.066 98.3336C367.462 96.9452 371.525 90.6531 370.142 84.2799C368.758 77.9067 362.452 73.8657 356.056 75.2541C349.66 76.6425 345.597 82.9346 346.981 89.3078C348.364 95.681 354.671 99.722 361.066 98.3336Z" fill="#050608"/>
<path d="M93.6775 372.763C100.073 371.375 104.136 365.083 102.753 358.71C101.369 352.336 95.063 348.295 88.6673 349.684C82.2716 351.072 78.2084 357.364 79.5919 363.737C80.9755 370.111 87.2818 374.152 93.6775 372.763Z" fill="#050608"/>
<path d="M403.034 158.639C409.43 157.251 413.493 150.959 412.109 144.586C410.726 138.212 404.42 134.171 398.024 135.56C391.628 136.948 387.565 143.24 388.948 149.613C390.332 155.987 396.638 160.028 403.034 158.639Z" fill="#050608"/>
<path d="M51.7224 312.465C58.1181 311.077 62.1813 304.785 60.7978 298.411C59.4142 292.038 53.1079 287.997 46.7122 289.386C40.3165 290.774 36.2533 297.066 37.6369 303.439C39.0204 309.813 45.3267 313.854 51.7224 312.465Z" fill="#050608"/>
<path d="M419.042 229.383C425.437 227.995 429.5 221.703 428.117 215.329C426.733 208.956 420.427 204.915 414.031 206.304C407.636 207.692 403.573 213.984 404.956 220.357C406.34 226.731 412.646 230.772 419.042 229.383Z" fill="#050608"/>
<path d="M35.7149 241.721C42.1106 240.333 46.1737 234.041 44.7902 227.668C43.4067 221.294 37.1004 217.253 30.7046 218.642C24.3089 220.03 20.2458 226.322 21.6293 232.696C23.0129 239.069 29.3192 243.11 35.7149 241.721Z" fill="#050608"/>
<path d="M406.72 302.935C413.116 301.546 417.179 295.254 415.795 288.881C414.412 282.508 408.105 278.467 401.71 279.855C395.314 281.244 391.251 287.536 392.634 293.909C394.018 300.282 400.324 304.323 406.72 302.935Z" fill="#050608"/>
<path d="M48.0251 168.172C54.4208 166.784 58.484 160.492 57.1004 154.119C55.7169 147.746 49.4106 143.705 43.0149 145.093C36.6192 146.481 32.556 152.773 33.9395 159.147C35.3231 165.52 41.6294 169.561 48.0251 168.172Z" fill="#050608"/>
<path d="M365.681 367.747C372.076 366.358 376.14 360.066 374.756 353.693C373.372 347.32 367.066 343.279 360.67 344.667C354.275 346.056 350.212 352.348 351.595 358.721C352.979 365.094 359.285 369.135 365.681 367.747Z" fill="#050608"/>
<path d="M89.0749 103.358C95.4706 101.969 99.5338 95.6774 98.1502 89.3042C96.7667 82.931 90.4604 78.89 84.0647 80.2784C77.669 81.6668 73.6058 87.9589 74.9893 94.3321C76.3729 100.705 82.6792 104.746 89.0749 103.358Z" fill="#050608"/>
<path d="M304.511 410.427C310.907 409.039 314.97 402.747 313.586 396.374C312.203 390.001 305.896 385.96 299.501 387.348C293.105 388.736 289.042 395.028 290.425 401.402C291.809 407.775 298.115 411.816 304.511 410.427Z" fill="#050608"/>
<path d="M150.233 60.6693C156.629 59.2809 160.692 52.9889 159.308 46.6156C157.925 40.2424 151.618 36.2014 145.223 37.5898C138.827 38.9783 134.764 45.2703 136.147 51.6435C137.531 58.0168 143.837 62.0578 150.233 60.6693Z" fill="#050608"/>
<path d="M223.626 107.097L264.459 5.59777L266.897 114.859L266.95 117.232L268.611 115.536L345.272 37.2856L305.578 139.216L304.714 141.434L306.902 140.498L407.727 97.4064L331.939 176.495L330.29 178.216L332.674 178.186L442.302 176.812L341.97 221.006L339.787 221.968L342.003 222.85L443.761 263.396L334.144 265.988L331.765 266.044L333.47 267.704L411.856 344.001L309.65 304.579L307.435 303.725L308.371 305.907L351.457 406.354L272.213 330.912L270.497 329.278L270.524 331.647L271.752 440.939L227.545 340.977L226.587 338.81L225.703 341.008L184.872 442.517L182.432 333.246L182.379 330.873L180.718 332.569L104.057 410.82L143.751 308.889L144.615 306.671L142.427 307.607L41.6115 350.697L117.39 271.611L119.039 269.889L116.655 269.919L7.02902 271.303L107.359 227.099L109.541 226.138L107.326 225.255L5.5776 184.707L115.185 182.118L117.564 182.061L115.859 180.401L37.4733 104.104L139.679 143.526L141.894 144.38L140.958 142.199L97.8737 41.761L177.116 117.194L178.832 118.827L178.805 116.458L177.586 7.16417L221.784 107.128L222.742 109.295L223.626 107.097ZM231.244 30.6189C232.51 36.4492 228.793 42.2113 222.934 43.4832C217.074 44.7552 211.303 41.0528 210.037 35.2225C208.772 29.3923 212.488 23.6302 218.348 22.3582C224.207 21.0863 229.978 24.7886 231.244 30.6189ZM239.707 412.793C240.972 418.623 237.256 424.385 231.396 425.657C225.537 426.929 219.766 423.226 218.5 417.396C217.235 411.566 220.951 405.804 226.81 404.532C232.67 403.26 238.441 406.962 239.707 412.793ZM306.518 44.0705C307.784 49.9008 304.067 55.6629 298.208 56.9348C292.348 58.2068 286.577 54.5044 285.312 48.6741C284.046 42.8438 287.763 37.0818 293.622 35.8098C299.481 34.5378 305.252 38.2402 306.518 44.0705ZM164.434 399.351C165.699 405.181 161.983 410.944 156.124 412.215C150.264 413.487 144.493 409.785 143.227 403.955C141.962 398.124 145.678 392.362 151.538 391.09C157.397 389.818 163.168 393.521 164.434 399.351ZM369.164 84.492C370.43 90.3223 366.713 96.0844 360.854 97.3563C354.995 98.6283 349.224 94.9259 347.958 89.0957C346.692 83.2654 350.409 77.5033 356.268 76.2313C362.127 74.9594 367.899 78.6618 369.164 84.492ZM101.776 358.922C103.041 364.752 99.3246 370.514 93.4654 371.786C87.6061 373.058 81.8348 369.356 80.5692 363.525C79.3035 357.695 83.0202 351.933 88.8794 350.661C94.7386 349.389 100.51 353.091 101.776 358.922ZM411.132 144.798C412.398 150.628 408.681 156.39 402.822 157.662C396.963 158.934 391.191 155.232 389.926 149.401C388.66 143.571 392.377 137.809 398.236 136.537C404.095 135.265 409.866 138.967 411.132 144.798ZM59.8205 298.624C61.0862 304.454 57.3695 310.216 51.5103 311.488C45.651 312.76 39.8798 309.057 38.6141 303.227C37.3484 297.397 41.0651 291.635 46.9243 290.363C52.7836 289.091 58.5548 292.793 59.8205 298.624ZM427.14 215.542C428.405 221.372 424.689 227.134 418.829 228.406C412.97 229.678 407.199 225.975 405.933 220.145C404.668 214.315 408.384 208.553 414.244 207.281C420.103 206.009 425.874 209.711 427.14 215.542ZM43.813 227.88C45.0786 233.71 41.362 239.472 35.5027 240.744C29.6435 242.016 23.8722 238.314 22.6066 232.483C21.3409 226.653 25.0576 220.891 30.9168 219.619C36.776 218.347 42.5473 222.049 43.813 227.88ZM414.818 289.093C416.084 294.923 412.367 300.685 406.508 301.957C400.648 303.229 394.877 299.527 393.612 293.697C392.346 287.866 396.063 282.104 401.922 280.832C407.781 279.56 413.552 283.263 414.818 289.093ZM56.1232 154.331C57.3888 160.161 53.6722 165.923 47.8129 167.195C41.9537 168.467 36.1824 164.765 34.9168 158.934C33.6511 153.104 37.3678 147.342 43.227 146.07C49.0862 144.798 54.8575 148.501 56.1232 154.331ZM373.779 353.905C375.044 359.736 371.328 365.498 365.468 366.77C359.609 368.042 353.838 364.339 352.572 358.509C351.307 352.679 355.023 346.917 360.883 345.645C366.742 344.373 372.513 348.075 373.779 353.905ZM97.173 89.5163C98.4387 95.3466 94.722 101.109 88.8628 102.381C83.0035 103.653 77.2322 99.9502 75.9666 94.1199C74.7009 88.2897 78.4176 82.5276 84.2768 81.2556C90.136 79.9837 95.9073 83.6861 97.173 89.5163ZM312.609 396.586C313.875 402.416 310.158 408.178 304.299 409.45C298.44 410.722 292.668 407.02 291.403 401.19C290.137 395.359 293.854 389.597 299.713 388.325C305.572 387.053 311.343 390.756 312.609 396.586ZM158.331 46.8278C159.597 52.6581 155.88 58.4201 150.021 59.6921C144.161 60.9641 138.39 57.2617 137.125 51.4314C135.859 45.6011 139.576 39.839 145.435 38.5671C151.294 37.2951 157.065 40.9975 158.331 46.8278Z" stroke="#20409A" stroke-opacity="0.04" stroke-width="2"/>
</g>
</svg>
