<svg width="568" height="236" viewBox="0 0 568 236" fill="none" xmlns="http://www.w3.org/2000/svg">
<path d="M222.869 2.18717L281.346 134.447L335.37 0.156545L338.596 144.723L440.03 41.186L387.505 176.062L520.918 119.042L420.63 223.698L565.7 221.879L432.931 280.361L567.586 334.014L422.538 337.444L526.259 438.402L391.027 386.242L448.035 519.146L343.19 419.331L344.816 563.932L286.327 431.675L232.305 565.978L229.076 421.399L127.643 524.936L180.168 390.059L46.7666 447.077L147.042 342.424L1.97475 344.255L134.741 285.76L0.0991264 232.105L145.134 228.678L41.413 127.72L176.646 179.88L119.64 46.9886L224.482 146.791L222.869 2.18717Z" fill="white" fill-opacity="0.85"/>
<path d="M281.913 55.5811C290.014 53.8224 295.16 45.8526 293.408 37.78C291.655 29.7074 283.667 24.5889 275.566 26.3475C267.465 28.1061 262.319 36.0759 264.071 44.1486C265.824 52.2212 273.811 57.3397 281.913 55.5811Z" fill="white" fill-opacity="0.85"/>
<path d="M292.632 539.66C300.733 537.901 305.88 529.932 304.127 521.859C302.375 513.786 294.387 508.668 286.286 510.426C278.185 512.185 273.038 520.155 274.791 528.228C276.543 536.3 284.531 541.419 292.632 539.66Z" fill="white" fill-opacity="0.85"/>
<path d="M377.258 72.6195C385.359 70.8608 390.506 62.891 388.753 54.8184C387.001 46.7458 379.013 41.6273 370.912 43.3859C362.811 45.1445 357.664 53.1143 359.417 61.187C361.169 69.2596 369.157 74.3781 377.258 72.6195Z" fill="white" fill-opacity="0.85"/>
<path d="M197.288 522.634C205.389 520.876 210.535 512.906 208.783 504.833C207.031 496.761 199.043 491.642 190.942 493.401C182.84 495.16 177.694 503.129 179.446 511.202C181.199 519.275 189.187 524.393 197.288 522.634Z" fill="white" fill-opacity="0.85"/>
<path d="M456.609 123.819C464.71 122.061 469.857 114.091 468.104 106.018C466.352 97.9456 458.364 92.8271 450.263 94.5857C442.162 96.3443 437.015 104.314 438.768 112.387C440.52 120.459 448.508 125.578 456.609 123.819Z" fill="white" fill-opacity="0.85"/>
<path d="M117.922 471.425C126.023 469.666 131.17 461.696 129.417 453.624C127.665 445.551 119.677 440.433 111.576 442.191C103.475 443.95 98.3281 451.92 100.081 459.992C101.833 468.065 109.821 473.183 117.922 471.425Z" fill="white" fill-opacity="0.85"/>
<path d="M509.767 200.205C517.868 198.447 523.015 190.477 521.263 182.404C519.51 174.332 511.522 169.213 503.421 170.972C495.32 172.73 490.174 180.7 491.926 188.773C493.678 196.845 501.666 201.964 509.767 200.205Z" fill="white" fill-opacity="0.85"/>
<path d="M64.7798 395.048C72.8809 393.29 78.0275 385.32 76.275 377.247C74.5226 369.175 66.5347 364.056 58.4336 365.815C50.3325 367.573 45.1859 375.543 46.9384 383.616C48.6908 391.688 56.6787 396.807 64.7798 395.048Z" fill="white" fill-opacity="0.85"/>
<path d="M530.043 289.813C538.144 288.054 543.291 280.084 541.539 272.012C539.786 263.939 531.798 258.821 523.697 260.579C515.596 262.338 510.449 270.308 512.202 278.38C513.954 286.453 521.942 291.571 530.043 289.813Z" fill="white" fill-opacity="0.85"/>
<path d="M44.5039 305.441C52.605 303.682 57.7516 295.712 55.9991 287.64C54.2467 279.567 46.2588 274.449 38.1577 276.207C30.0566 277.966 24.91 285.936 26.6624 294.008C28.4149 302.081 36.4028 307.199 44.5039 305.441Z" fill="white" fill-opacity="0.85"/>
<path d="M514.436 382.976C522.537 381.218 527.684 373.248 525.931 365.175C524.179 357.103 516.191 351.984 508.09 353.743C499.989 355.502 494.842 363.471 496.595 371.544C498.347 379.617 506.335 384.735 514.436 382.976Z" fill="white" fill-opacity="0.85"/>
<path d="M60.0966 212.28C68.1976 210.522 73.3442 202.552 71.5918 194.479C69.8393 186.407 61.8515 181.288 53.7504 183.047C45.6493 184.805 40.5027 192.775 42.2551 200.848C44.0076 208.921 51.9955 214.039 60.0966 212.28Z" fill="white" fill-opacity="0.85"/>
<path d="M462.454 465.071C470.555 463.312 475.702 455.342 473.949 447.27C472.197 439.197 464.209 434.078 456.108 435.837C448.007 437.596 442.86 445.566 444.612 453.638C446.365 461.711 454.353 466.829 462.454 465.071Z" fill="white" fill-opacity="0.85"/>
<path d="M112.092 130.183C120.193 128.425 125.34 120.455 123.587 112.382C121.835 104.31 113.847 99.1911 105.746 100.95C97.6449 102.708 92.4983 110.678 94.2507 118.751C96.0032 126.823 103.991 131.942 112.092 130.183Z" fill="white" fill-opacity="0.85"/>
<path d="M384.974 519.132C393.075 517.373 398.221 509.403 396.469 501.331C394.716 493.258 386.728 488.14 378.627 489.898C370.526 491.657 365.38 499.627 367.132 507.699C368.885 515.772 376.872 520.891 384.974 519.132Z" fill="white" fill-opacity="0.85"/>
<path d="M189.558 76.112C197.659 74.3533 202.805 66.3835 201.053 58.3109C199.3 50.2383 191.313 45.1198 183.211 46.8784C175.11 48.637 169.964 56.6068 171.716 64.6795C173.469 72.7521 181.457 77.8706 189.558 76.112Z" fill="white" fill-opacity="0.85"/>
<path d="M280.431 134.851L281.389 137.018L282.273 134.82L334.479 5.05073L337.597 144.745L337.65 147.118L339.311 145.423L437.325 45.3759L386.573 175.7L385.709 177.917L387.898 176.982L516.808 121.886L419.908 223.006L418.258 224.728L420.643 224.698L560.81 222.94L432.528 279.446L430.345 280.408L432.561 281.29L562.666 333.131L422.515 336.444L420.135 336.501L421.841 338.161L522.061 435.71L391.387 385.309L389.172 384.455L390.108 386.636L445.195 515.061L343.88 418.607L342.163 416.973L342.19 419.342L343.761 559.074L287.241 431.271L286.283 429.104L285.399 431.302L233.196 561.083L230.076 421.377L230.023 419.004L228.362 420.699L130.348 520.746L181.1 390.422L181.963 388.204L179.775 389.14L50.8769 444.233L147.764 343.116L149.414 341.394L147.03 341.424L6.86501 343.194L135.145 286.676L137.327 285.714L135.112 284.831L5.01878 232.989L145.158 229.677L147.537 229.621L145.832 227.961L45.6116 130.411L176.286 180.813L178.5 181.667L177.565 179.486L122.48 51.0728L223.793 147.515L225.509 149.149L225.482 146.78L223.923 7.0446L280.431 134.851ZM292.431 37.9921C294.065 45.5218 289.265 52.9616 281.7 54.6038C274.136 56.246 266.683 51.4661 265.048 43.9364C263.414 36.4067 268.214 28.9669 275.778 27.3247C283.343 25.6826 290.796 30.4625 292.431 37.9921ZM303.15 522.071C304.785 529.601 299.984 537.041 292.42 538.683C284.855 540.325 277.402 535.545 275.768 528.015C274.133 520.486 278.933 513.046 286.498 511.404C294.063 509.762 301.515 514.541 303.15 522.071ZM387.776 55.0305C389.411 62.5602 384.611 70 377.046 71.6422C369.481 73.2844 362.029 68.5045 360.394 60.9748C358.759 53.4451 363.56 46.0053 371.124 44.3631C378.689 42.721 386.142 47.5009 387.776 55.0305ZM207.806 505.046C209.44 512.575 204.64 520.015 197.076 521.657C189.511 523.299 182.058 518.52 180.424 510.99C178.789 503.46 183.589 496.02 191.154 494.378C198.718 492.736 206.171 497.516 207.806 505.046ZM467.127 106.23C468.762 113.76 463.962 121.2 456.397 122.842C448.832 124.484 441.379 119.704 439.745 112.175C438.11 104.645 442.91 97.2051 450.475 95.5629C458.04 93.9208 465.492 98.7007 467.127 106.23ZM128.44 453.836C130.075 461.365 125.274 468.805 117.71 470.447C110.145 472.09 102.692 467.31 101.058 459.78C99.4232 452.25 104.223 444.811 111.788 443.168C119.353 441.526 126.805 446.306 128.44 453.836ZM520.285 182.616C521.92 190.146 517.12 197.586 509.555 199.228C501.991 200.87 494.538 196.09 492.903 188.561C491.269 181.031 496.069 173.591 503.633 171.949C511.198 170.307 518.651 175.087 520.285 182.616ZM75.2978 377.459C76.9324 384.989 72.1323 392.429 64.5676 394.071C57.003 395.713 49.5502 390.933 47.9156 383.404C46.281 375.874 51.0811 368.434 58.6457 366.792C66.2103 365.15 73.6632 369.93 75.2978 377.459ZM540.561 272.224C542.196 279.753 537.396 287.193 529.831 288.835C522.267 290.478 514.814 285.698 513.179 278.168C511.545 270.638 516.345 263.199 523.909 261.556C531.474 259.914 538.927 264.694 540.561 272.224ZM55.0219 287.852C56.6565 295.382 51.8564 302.821 44.2917 304.464C36.7271 306.106 29.2743 301.326 27.6397 293.796C26.0051 286.266 30.8052 278.827 38.3698 277.184C45.9344 275.542 53.3873 280.322 55.0219 287.852ZM524.954 365.388C526.589 372.917 521.789 380.357 514.224 381.999C506.659 383.641 499.206 378.861 497.572 371.332C495.937 363.802 500.737 356.362 508.302 354.72C515.867 353.078 523.319 357.858 524.954 365.388ZM70.6145 194.691C72.2491 202.221 67.449 209.661 59.8844 211.303C52.3198 212.945 44.867 208.165 43.2324 200.636C41.5978 193.106 46.3979 185.666 53.9625 184.024C61.5271 182.382 68.98 187.162 70.6145 194.691ZM472.972 447.482C474.606 455.011 469.806 462.451 462.242 464.093C454.677 465.736 447.224 460.956 445.59 453.426C443.955 445.896 448.755 438.457 456.32 436.814C463.884 435.172 471.337 439.952 472.972 447.482ZM122.61 112.594C124.245 120.124 119.445 127.564 111.88 129.206C104.315 130.848 96.8625 126.068 95.228 118.539C93.5934 111.009 98.3935 103.569 105.958 101.927C113.523 100.285 120.976 105.065 122.61 112.594ZM395.492 501.543C397.126 509.073 392.326 516.513 384.761 518.155C377.197 519.797 369.744 515.017 368.109 507.487C366.475 499.958 371.275 492.518 378.84 490.876C386.404 489.233 393.857 494.013 395.492 501.543ZM200.076 58.523C201.71 66.0527 196.91 73.4925 189.345 75.1347C181.781 76.7769 174.328 71.997 172.693 64.4673C171.059 56.9376 175.859 49.4978 183.424 47.8556C190.988 46.2135 198.441 50.9934 200.076 58.523Z" stroke="#20409A" stroke-opacity="0.06" stroke-width="2"/>
</svg>
