<svg width="335" height="326" viewBox="0 0 335 326" fill="none" xmlns="http://www.w3.org/2000/svg">
<path d="M253.337 -63.8441L254.295 -61.6759L255.179 -63.8756L302.132 -180.663L304.936 -54.9431L304.989 -52.5694L306.65 -54.2661L394.802 -144.304L349.156 -27.0176L348.293 -24.7998L350.481 -25.7355L466.421 -75.3196L379.271 15.6848L377.622 17.4064L380.005 17.3764L506.069 15.7945L390.694 66.6481L388.513 67.6095L390.727 68.4922L507.741 115.147L381.692 118.129L379.313 118.185L381.018 119.845L471.153 207.637L353.628 162.277L351.413 161.422L352.349 163.604L401.893 279.182L310.772 192.377L309.056 190.742L309.083 193.113L310.496 318.866L259.663 203.848L258.705 201.68L257.821 203.879L210.87 320.677L208.064 194.947L208.011 192.573L206.35 194.27L118.198 284.308L163.844 167.021L164.707 164.803L162.519 165.739L46.5904 215.321L133.73 124.319L135.378 122.597L132.995 122.627L6.93316 124.22L122.306 73.3555L124.487 72.3941L122.273 71.5115L5.26963 24.8546L131.308 21.8746L133.687 21.8184L131.983 20.1583L41.8465 -67.633L159.372 -22.2734L161.587 -21.4186L160.651 -23.6007L111.109 -139.167L202.228 -52.3732L203.944 -50.7386L203.918 -53.1088L202.515 -178.865L253.337 -63.8441ZM264.164 -151.36C265.628 -144.61 261.328 -137.941 254.551 -136.469C247.775 -134.997 241.098 -139.281 239.634 -146.031C238.17 -152.781 242.47 -159.45 249.246 -160.922C256.023 -162.394 262.699 -158.11 264.164 -151.36ZM273.841 285.932C275.305 292.682 271.005 299.351 264.228 300.823C257.452 302.295 250.775 298.01 249.311 291.26C247.847 284.51 252.147 277.841 258.923 276.369C265.7 274.897 272.376 279.182 273.841 285.932ZM350.238 -135.968C351.703 -129.218 347.402 -122.549 340.626 -121.077C333.85 -119.605 327.173 -123.89 325.709 -130.64C324.244 -137.39 328.545 -144.059 335.321 -145.531C342.097 -147.003 348.774 -142.718 350.238 -135.968ZM187.767 270.552C189.232 277.302 184.932 283.971 178.155 285.443C171.379 286.915 164.702 282.63 163.238 275.88C161.773 269.131 166.074 262.461 172.85 260.989C179.626 259.517 186.303 263.802 187.767 270.552ZM421.873 -89.7171C423.338 -82.9671 419.037 -76.298 412.261 -74.826C405.485 -73.354 398.808 -77.6386 397.344 -84.3886C395.879 -91.1386 400.18 -97.8076 406.956 -99.2796C413.732 -100.752 420.409 -96.467 421.873 -89.7171ZM116.119 224.292C117.583 231.042 113.283 237.711 106.507 239.183C99.7303 240.655 93.0537 236.37 91.5893 229.62C90.125 222.87 94.4252 216.201 101.202 214.729C107.978 213.257 114.655 217.542 116.119 224.292ZM469.863 -20.714C471.327 -13.964 467.027 -7.29494 460.25 -5.82293C453.474 -4.35092 446.797 -8.6355 445.333 -15.3855C443.869 -22.1354 448.169 -28.8045 454.945 -30.2765C461.722 -31.7485 468.398 -27.4639 469.863 -20.714ZM68.1441 155.297C69.6085 162.047 65.3082 168.716 58.5318 170.188C51.7555 171.66 45.0788 167.376 43.6145 160.626C42.1501 153.876 46.4504 147.207 53.2267 145.735C60.0031 144.263 66.6797 148.547 68.1441 155.297ZM488.167 60.2328C489.631 66.9828 485.331 73.6518 478.555 75.1238C471.778 76.5958 465.102 72.3113 463.637 65.5613C462.173 58.8113 466.473 52.1423 473.25 50.6703C480.026 49.1983 486.703 53.4828 488.167 60.2328ZM49.8398 74.3505C51.3041 81.1004 47.0039 87.7695 40.2275 89.2415C33.4511 90.7135 26.7745 86.4289 25.3101 79.679C23.8458 72.929 28.146 66.2599 34.9224 64.7879C41.6988 63.3159 48.3754 67.6005 49.8398 74.3505ZM474.077 144.392C475.542 151.142 471.241 157.811 464.465 159.283C457.689 160.755 451.012 156.471 449.548 149.721C448.083 142.971 452.384 136.302 459.16 134.83C465.936 133.358 472.613 137.642 474.077 144.392ZM63.9163 -9.80585C65.3807 -3.05589 61.0804 3.61316 54.304 5.08517C47.5276 6.55718 40.851 2.2726 39.3866 -4.47736C37.9223 -11.2273 42.2225 -17.8964 48.9989 -19.3684C55.7753 -20.8404 62.4519 -16.5558 63.9163 -9.80585ZM427.15 218.552C428.614 225.302 424.314 231.971 417.537 233.443C410.761 234.915 404.084 230.63 402.62 223.88C401.156 217.13 405.456 210.461 412.232 208.989C419.009 207.517 425.685 211.802 427.15 218.552ZM110.856 -83.9682C112.32 -77.2182 108.02 -70.5491 101.244 -69.0771C94.4673 -67.6051 87.7907 -71.8897 86.3264 -78.6397C84.862 -85.3896 89.1623 -92.0587 95.9386 -93.5307C102.715 -95.0027 109.392 -90.7181 110.856 -83.9682ZM357.203 267.388C358.668 274.138 354.367 280.807 347.591 282.279C340.815 283.751 334.138 279.466 332.674 272.716C331.209 265.966 335.51 259.297 342.286 257.825C349.062 256.353 355.739 260.638 357.203 267.388ZM180.789 -132.813C182.253 -126.063 177.953 -119.394 171.177 -117.922C164.4 -116.45 157.724 -120.735 156.259 -127.485C154.795 -134.235 159.095 -140.904 165.872 -142.376C172.648 -143.848 179.325 -139.563 180.789 -132.813Z" stroke="#F66600" stroke-opacity="0.1" stroke-width="2"/>
</svg>
