<svg width="517" height="474" viewBox="0 0 517 474" fill="none" xmlns="http://www.w3.org/2000/svg">
<path d="M255.509 81.2754L256.467 83.4423L257.351 81.2442L304.649 -36.3241L307.473 90.2358L307.526 92.6088L309.187 90.9133L397.986 0.273356L352.006 118.343L351.142 120.561L353.331 119.625L470.12 69.7104L382.332 161.322L380.682 163.043L383.066 163.013L510.053 161.421L393.834 212.614L391.651 213.575L393.867 214.458L511.738 261.423L384.765 264.425L382.386 264.482L384.091 266.142L474.887 354.519L356.5 308.856L354.285 308.002L355.221 310.184L405.129 426.534L313.339 339.148L311.623 337.514L311.649 339.883L313.073 466.478L261.867 350.69L260.909 348.524L260.025 350.722L212.73 468.301L209.903 341.73L209.85 339.357L208.189 341.053L119.39 431.693L165.37 313.623L166.234 311.405L164.045 312.341L47.2675 362.253L135.044 270.644L136.694 268.922L134.31 268.953L7.32519 270.556L123.542 219.352L125.724 218.391L123.509 217.508L5.64936 170.54L132.611 167.54L134.991 167.484L133.285 165.824L42.4887 77.4467L160.876 123.11L163.091 123.964L162.155 121.782L112.25 5.44309L204.037 92.818L205.753 94.4513L205.727 92.0825L204.314 -34.5147L255.509 81.2754ZM266.413 -6.80092C267.888 -0.00468428 263.556 6.71106 256.727 8.19345C249.898 9.67585 243.171 5.36098 241.696 -1.43525C240.221 -8.23149 244.553 -14.9472 251.382 -16.4296C258.21 -17.912 264.937 -13.5972 266.413 -6.80092ZM276.158 433.297C277.634 440.094 273.301 446.809 266.472 448.292C259.644 449.774 252.917 445.459 251.441 438.663C249.966 431.867 254.299 425.151 261.127 423.669C267.956 422.186 274.683 426.501 276.158 433.297ZM353.096 8.68946C354.571 15.4857 350.239 22.2014 343.41 23.6838C336.581 25.1662 329.854 20.8514 328.379 14.0551C326.904 7.2589 331.236 0.543149 338.065 -0.939248C344.893 -2.42164 351.62 1.89322 353.096 8.68946ZM189.476 417.819C190.952 424.615 186.619 431.331 179.791 432.813C172.962 434.295 166.235 429.981 164.76 423.184C163.284 416.388 167.617 409.672 174.445 408.19C181.274 406.708 188.001 411.022 189.476 417.819ZM425.237 55.2375C426.713 62.0338 422.38 68.7495 415.552 70.2319C408.723 71.7143 401.996 67.3994 400.52 60.6032C399.045 53.807 403.378 47.0912 410.206 45.6088C417.035 44.1264 423.762 48.4413 425.237 55.2375ZM117.321 371.261C118.797 378.058 114.464 384.773 107.636 386.256C100.807 387.738 94.08 383.423 92.6046 376.627C91.1293 369.831 95.4618 363.115 102.29 361.633C109.119 360.15 115.846 364.465 117.321 371.261ZM473.566 124.683C475.041 131.48 470.709 138.195 463.88 139.678C457.052 141.16 450.325 136.845 448.849 130.049C447.374 123.253 451.706 116.537 458.535 115.055C465.364 113.572 472.091 117.887 473.566 124.683ZM69.0074 301.824C70.4828 308.62 66.1503 315.336 59.3217 316.819C52.4931 318.301 45.766 313.986 44.2906 307.19C42.8153 300.394 47.1478 293.678 53.9764 292.195C60.805 290.713 67.5321 295.028 69.0074 301.824ZM492 206.15C493.475 212.946 489.143 219.662 482.314 221.144C475.485 222.627 468.758 218.312 467.283 211.515C465.808 204.719 470.14 198.003 476.969 196.521C483.797 195.039 490.524 199.353 492 206.15ZM50.5737 220.358C52.049 227.154 47.7165 233.87 40.8879 235.352C34.0593 236.835 27.3322 232.52 25.8569 225.724C24.3815 218.927 28.714 212.212 35.5426 210.729C42.3712 209.247 49.0983 213.562 50.5737 220.358ZM477.81 290.849C479.286 297.645 474.953 304.361 468.125 305.844C461.296 307.326 454.569 303.011 453.094 296.215C451.618 289.419 455.951 282.703 462.779 281.22C469.608 279.738 476.335 284.053 477.81 290.849ZM64.7497 135.662C66.2251 142.458 61.8926 149.174 55.064 150.656C48.2354 152.138 41.5083 147.823 40.0329 141.027C38.5575 134.231 42.89 127.515 49.7186 126.033C56.5472 124.55 63.2743 128.865 64.7497 135.662ZM430.551 365.485C432.026 372.281 427.694 378.997 420.865 380.479C414.037 381.961 407.31 377.647 405.834 370.85C404.359 364.054 408.691 357.338 415.52 355.856C422.349 354.374 429.076 358.688 430.551 365.485ZM112.021 61.0233C113.497 67.8196 109.164 74.5353 102.336 76.0177C95.5069 77.5001 88.7798 73.1852 87.3045 66.389C85.8291 59.5928 90.1616 52.877 96.9902 51.3946C103.819 49.9122 110.546 54.2271 112.021 61.0233ZM360.11 414.634C361.586 421.43 357.253 428.146 350.424 429.629C343.596 431.111 336.869 426.796 335.393 420C333.918 413.204 338.25 406.488 345.079 405.006C351.908 403.523 358.635 407.838 360.11 414.634ZM182.449 11.8647C183.924 18.6609 179.592 25.3766 172.763 26.859C165.934 28.3414 159.207 24.0266 157.732 17.2303C156.256 10.4341 160.589 3.71834 167.418 2.23595C174.246 0.753554 180.973 5.06842 182.449 11.8647Z" stroke="#20409A" stroke-opacity="0.06" stroke-width="2"/>
</svg>
