<svg width="195" height="211" viewBox="0 0 195 211" fill="none" xmlns="http://www.w3.org/2000/svg">
<g opacity="0.06">
<path d="M139.527 1.32004L176.15 84.1507L209.984 0.0483106L212.004 90.5863L275.529 25.744L242.634 110.213L326.188 74.5031L263.38 140.046L354.233 138.907L271.084 175.533L355.414 209.135L264.575 211.283L329.533 274.51L244.84 241.843L280.543 325.077L214.881 262.566L215.899 353.126L179.269 270.297L145.437 354.407L143.414 263.861L79.8896 328.704L112.784 244.234L29.2388 279.943L92.0388 214.401L1.18687 215.548L84.3351 178.914L0.0122199 145.311L90.8438 143.165L25.8861 79.9379L110.579 112.604L74.8774 29.378L140.538 91.8815L139.527 1.32004Z" fill="white"/>
<path d="M176.505 34.7592C181.578 33.6578 184.801 28.6665 183.704 23.6109C182.606 18.5552 177.604 15.3496 172.53 16.451C167.457 17.5524 164.233 22.5437 165.331 27.5993C166.428 32.655 171.431 35.8606 176.505 34.7592Z" fill="white"/>
<path d="M183.218 337.925C188.291 336.824 191.515 331.832 190.417 326.777C189.319 321.721 184.317 318.515 179.243 319.617C174.17 320.718 170.947 325.709 172.044 330.765C173.142 335.821 178.144 339.026 183.218 337.925Z" fill="white"/>
<path d="M236.217 45.4299C241.291 44.3285 244.514 39.3372 243.416 34.2816C242.319 29.2259 237.316 26.0203 232.243 27.1217C227.169 28.2231 223.946 33.2144 225.043 38.27C226.141 43.3257 231.144 46.5313 236.217 45.4299Z" fill="white"/>
<path d="M123.506 327.262C128.58 326.161 131.803 321.17 130.705 316.114C129.608 311.058 124.605 307.853 119.532 308.954C114.458 310.056 111.235 315.047 112.333 320.103C113.43 325.158 118.433 328.364 123.506 327.262Z" fill="white"/>
<path d="M285.912 77.495C290.986 76.3936 294.209 71.4023 293.112 66.3466C292.014 61.291 287.011 58.0854 281.938 59.1868C276.864 60.2882 273.641 65.2794 274.739 70.3351C275.836 75.3908 280.839 78.5964 285.912 77.495Z" fill="white"/>
<path d="M73.8016 295.191C78.8751 294.09 82.0983 289.098 81.0007 284.043C79.9032 278.987 74.9006 275.781 69.8271 276.883C64.7536 277.984 61.5305 282.976 62.628 288.031C63.7255 293.087 68.7281 296.292 73.8016 295.191Z" fill="white"/>
<path d="M319.204 125.333C324.278 124.232 327.501 119.241 326.403 114.185C325.306 109.129 320.303 105.924 315.23 107.025C310.156 108.127 306.933 113.118 308.03 118.174C309.128 123.229 314.131 126.435 319.204 125.333Z" fill="white"/>
<path d="M40.52 247.359C45.5935 246.257 48.8167 241.266 47.7192 236.21C46.6216 231.155 41.6191 227.949 36.5455 229.05C31.472 230.152 28.2489 235.143 29.3464 240.199C30.4439 245.254 35.4465 248.46 40.52 247.359Z" fill="white"/>
<path d="M331.902 181.452C336.976 180.351 340.199 175.36 339.101 170.304C338.004 165.248 333.001 162.043 327.928 163.144C322.854 164.245 319.631 169.237 320.729 174.292C321.826 179.348 326.829 182.554 331.902 181.452Z" fill="white"/>
<path d="M27.8217 191.24C32.8952 190.138 36.1184 185.147 35.0209 180.091C33.9234 175.036 28.9208 171.83 23.8473 172.932C18.7738 174.033 15.5506 179.024 16.6481 184.08C17.7456 189.136 22.7482 192.341 27.8217 191.24Z" fill="white"/>
<path d="M322.128 239.798C327.201 238.697 330.425 233.706 329.327 228.65C328.23 223.594 323.227 220.389 318.153 221.49C313.08 222.591 309.857 227.583 310.954 232.638C312.052 237.694 317.054 240.9 322.128 239.798Z" fill="white"/>
<path d="M37.587 132.896C42.6605 131.794 45.8837 126.803 44.7862 121.748C43.6887 116.692 38.6861 113.486 33.6126 114.588C28.5391 115.689 25.3159 120.68 26.4134 125.736C27.5109 130.792 32.5135 133.997 37.587 132.896Z" fill="white"/>
<path d="M289.573 291.212C294.646 290.11 297.87 285.119 296.772 280.063C295.674 275.008 290.672 271.802 285.598 272.903C280.525 274.005 277.302 278.996 278.399 284.052C279.497 289.108 284.499 292.313 289.573 291.212Z" fill="white"/>
<path d="M70.1505 81.4806C75.224 80.3792 78.4472 75.3879 77.3497 70.3323C76.2522 65.2766 71.2496 62.071 66.1761 63.1724C61.1026 64.2738 57.8794 69.2651 58.9769 74.3207C60.0744 79.3764 65.077 82.582 70.1505 81.4806Z" fill="white"/>
<path d="M241.049 325.069C246.122 323.967 249.346 318.976 248.248 313.92C247.151 308.865 242.148 305.659 237.075 306.761C232.001 307.862 228.778 312.853 229.875 317.909C230.973 322.965 235.975 326.17 241.049 325.069Z" fill="white"/>
<path d="M118.665 47.6172C123.739 46.5158 126.962 41.5245 125.864 36.4688C124.767 31.4132 119.764 28.2076 114.691 29.309C109.617 30.4104 106.394 35.4016 107.491 40.4573C108.589 45.513 113.592 48.7186 118.665 47.6172Z" fill="white"/>
<path d="M177.077 84.5239L209.093 4.94249L211.004 90.6086L211.057 92.9817L212.719 91.2861L272.824 29.9338L241.702 109.851L240.839 112.068L243.027 111.133L322.077 77.3475L262.658 139.354L261.008 141.076L263.392 141.046L349.343 139.968L270.68 174.618L268.498 175.579L270.713 176.462L350.494 208.251L264.551 210.283L262.172 210.339L263.877 211.999L325.334 271.818L245.2 240.91L242.985 240.056L243.921 242.237L277.703 320.993L215.571 261.842L213.854 260.208L213.881 262.577L214.845 348.268L180.184 269.892L179.225 267.726L178.341 269.924L146.328 349.512L144.414 263.839L144.361 261.466L142.7 263.161L82.5944 324.514L113.716 244.597L114.58 242.379L112.391 243.315L33.3491 277.098L92.7609 215.093L94.4107 213.371L92.0262 213.401L6.07717 214.487L84.7383 179.83L86.9204 178.868L84.7053 177.985L4.93189 146.195L90.8674 144.165L93.2468 144.109L91.5413 142.448L30.0846 82.6292L110.219 113.537L112.433 114.392L111.498 112.21L77.7175 33.4622L139.848 92.6058L141.564 94.2392L141.538 91.8703L140.581 6.17747L175.235 84.555L176.193 86.7219L177.077 84.5239ZM182.726 23.823C183.706 28.3357 180.829 32.797 176.292 33.782C171.755 34.7669 167.288 31.8999 166.308 27.3872C165.329 22.8745 168.205 18.4132 172.742 17.4282C177.279 16.4433 181.747 19.3103 182.726 23.823ZM189.44 326.989C190.419 331.502 187.543 335.963 183.006 336.948C178.469 337.933 174.001 335.066 173.021 330.553C172.042 326.04 174.918 321.579 179.456 320.594C183.993 319.609 188.46 322.476 189.44 326.989ZM242.439 34.4937C243.419 39.0064 240.542 43.4677 236.005 44.4527C231.468 45.4376 227 42.5706 226.021 38.0579C225.041 33.5452 227.918 29.0839 232.455 28.0989C236.992 27.114 241.459 29.981 242.439 34.4937ZM129.728 316.326C130.708 320.839 127.831 325.3 123.294 326.285C118.757 327.27 114.29 324.403 113.31 319.89C112.33 315.378 115.207 310.916 119.744 309.931C124.281 308.947 128.749 311.813 129.728 316.326ZM292.134 66.5588C293.114 71.0715 290.237 75.5328 285.7 76.5177C281.163 77.5027 276.696 74.6357 275.716 70.123C274.736 65.6103 277.613 61.1489 282.15 60.164C286.687 59.1791 291.155 62.0461 292.134 66.5588ZM80.0235 284.255C81.0032 288.768 78.1265 293.229 73.5894 294.214C69.0524 295.199 64.5849 292.332 63.6052 287.819C62.6256 283.306 65.5022 278.845 70.0393 277.86C74.5763 276.875 79.0439 279.742 80.0235 284.255ZM325.426 114.397C326.406 118.91 323.529 123.371 318.992 124.356C314.455 125.341 309.987 122.474 309.008 117.961C308.028 113.449 310.905 108.987 315.442 108.003C319.979 107.018 324.446 109.885 325.426 114.397ZM46.7419 236.422C47.7216 240.935 44.8449 245.396 40.3079 246.381C35.7708 247.366 31.3033 244.499 30.3236 239.987C29.344 235.474 32.2207 231.013 36.7577 230.028C41.2947 229.043 45.7623 231.91 46.7419 236.422ZM338.124 170.516C339.104 175.029 336.227 179.49 331.69 180.475C327.153 181.46 322.686 178.593 321.706 174.08C320.726 169.568 323.603 165.106 328.14 164.121C332.677 163.136 337.145 166.003 338.124 170.516ZM34.0437 180.304C35.0233 184.816 32.1466 189.278 27.6096 190.263C23.0726 191.247 18.605 188.38 17.6254 183.868C16.6457 179.355 19.5224 174.894 24.0594 173.909C28.5965 172.924 33.064 175.791 34.0437 180.304ZM328.35 228.862C329.329 233.375 326.453 237.836 321.916 238.821C317.379 239.806 312.911 236.939 311.932 232.426C310.952 227.914 313.829 223.452 318.366 222.467C322.903 221.482 327.37 224.349 328.35 228.862ZM43.809 121.96C44.7886 126.472 41.9119 130.934 37.3749 131.919C32.8379 132.904 28.3703 130.037 27.3907 125.524C26.411 121.011 29.2877 116.55 33.8247 115.565C38.3618 114.58 42.8293 117.447 43.809 121.96ZM295.795 280.275C296.774 284.788 293.898 289.25 289.361 290.234C284.824 291.219 280.356 288.352 279.376 283.84C278.397 279.327 281.273 274.866 285.811 273.881C290.348 272.896 294.815 275.763 295.795 280.275ZM76.3724 70.5444C77.3521 75.0571 74.4754 79.5184 69.9384 80.5034C65.4013 81.4883 60.9338 78.6213 59.9541 74.1086C58.9745 69.5959 61.8512 65.1346 66.3882 64.1496C70.9252 63.1647 75.3928 66.0317 76.3724 70.5444ZM247.271 314.133C248.251 318.645 245.374 323.107 240.837 324.092C236.3 325.077 231.832 322.21 230.853 317.697C229.873 313.184 232.75 308.723 237.287 307.738C241.824 306.753 246.291 309.62 247.271 314.133ZM124.887 36.681C125.867 41.1937 122.99 45.655 118.453 46.6399C113.916 47.6249 109.448 44.7579 108.469 40.2452C107.489 35.7325 110.366 31.2711 114.903 30.2862C119.44 29.3013 123.907 32.1683 124.887 36.681Z" stroke="#20409A" stroke-opacity="0.04" stroke-width="2"/>
</g>
</svg>
