<svg width="459" height="387" viewBox="0 0 459 387" fill="none" xmlns="http://www.w3.org/2000/svg">
<g opacity="0.06">
<path d="M256.107 3.13933L323.139 154.749L385.067 0.811614L388.765 166.528L505.038 47.8437L444.829 202.453L597.761 137.09L482.801 257.057L649.095 254.972L496.901 322.011L651.256 383.513L484.988 387.445L603.884 503.173L448.866 443.382L514.215 595.729L394.031 481.312L395.895 647.068L328.849 495.462L266.923 649.413L263.222 483.682L146.949 602.367L207.158 447.758L54.2404 513.117L169.186 393.153L2.89543 395.253L155.086 328.2L0.745398 266.694L166.999 262.766L48.1036 147.038L203.121 206.829L137.775 54.4952L257.956 168.899L256.107 3.13933Z" fill="white"/>
<path d="M323.788 64.3448C333.075 62.3289 338.974 53.1931 336.965 43.9394C334.957 34.6858 325.8 28.8184 316.514 30.8343C307.227 32.8503 301.328 41.9861 303.337 51.2397C305.346 60.4934 314.502 66.3607 323.788 64.3448Z" fill="white"/>
<path d="M336.076 619.245C345.362 617.229 351.262 608.093 349.253 598.84C347.244 589.586 338.088 583.719 328.801 585.735C319.515 587.751 313.616 596.886 315.624 606.14C317.633 615.394 326.79 621.261 336.076 619.245Z" fill="white"/>
<path d="M433.083 83.8759C442.37 81.86 448.269 72.7242 446.26 63.4705C444.252 54.2169 435.095 48.3495 425.809 50.3655C416.522 52.3814 410.623 61.5172 412.632 70.7709C414.641 80.0245 423.797 85.8919 433.083 83.8759Z" fill="white"/>
<path d="M226.783 599.729C236.069 597.713 241.969 588.577 239.96 579.323C237.951 570.07 228.795 564.202 219.508 566.218C210.222 568.234 204.322 577.37 206.331 586.624C208.34 595.877 217.497 601.745 226.783 599.729Z" fill="white"/>
<path d="M524.043 142.566C533.33 140.55 539.229 131.415 537.22 122.161C535.211 112.907 526.055 107.04 516.769 109.056C507.482 111.072 501.583 120.208 503.592 129.461C505.601 138.715 514.757 144.582 524.043 142.566Z" fill="white"/>
<path d="M135.806 541.027C145.092 539.011 150.992 529.875 148.983 520.621C146.974 511.368 137.818 505.5 128.531 507.516C119.245 509.532 113.345 518.668 115.354 527.922C117.363 537.175 126.52 543.043 135.806 541.027Z" fill="white"/>
<path d="M584.979 230.128C594.265 228.112 600.165 218.976 598.156 209.722C596.147 200.469 586.99 194.601 577.704 196.617C568.418 198.633 562.518 207.769 564.527 217.023C566.536 226.276 575.693 232.144 584.979 230.128Z" fill="white"/>
<path d="M74.8889 453.476C84.1752 451.461 90.0747 442.325 88.0659 433.071C86.0571 423.817 76.9005 417.95 67.6143 419.966C58.328 421.982 52.4284 431.118 54.4373 440.371C56.4461 449.625 65.6026 455.492 74.8889 453.476Z" fill="white"/>
<path d="M608.221 332.845C617.507 330.829 623.407 321.693 621.398 312.439C619.389 303.186 610.233 297.318 600.946 299.334C591.66 301.35 585.761 310.486 587.769 319.74C589.778 328.993 598.935 334.861 608.221 332.845Z" fill="white"/>
<path d="M51.6466 350.759C60.9329 348.743 66.8325 339.608 64.8236 330.354C62.8148 321.1 53.6583 315.233 44.372 317.249C35.0857 319.265 29.1861 328.401 31.195 337.654C33.2038 346.908 42.3603 352.775 51.6466 350.759Z" fill="white"/>
<path d="M590.33 439.639C599.617 437.623 605.516 428.487 603.507 419.233C601.499 409.979 592.342 404.112 583.056 406.128C573.769 408.144 567.87 417.28 569.879 426.533C571.888 435.787 581.044 441.654 590.33 439.639Z" fill="white"/>
<path d="M69.5205 243.969C78.8068 241.953 84.7064 232.818 82.6975 223.564C80.6887 214.31 71.5322 208.443 62.2459 210.459C52.9596 212.475 47.06 221.611 49.0689 230.864C51.0777 240.118 60.2342 245.985 69.5205 243.969Z" fill="white"/>
<path d="M530.743 533.743C540.029 531.727 545.929 522.591 543.92 513.338C541.911 504.084 532.755 498.217 523.469 500.233C514.182 502.249 508.283 511.384 510.292 520.638C512.3 529.892 521.457 535.759 530.743 533.743Z" fill="white"/>
<path d="M129.123 149.861C138.409 147.845 144.309 138.71 142.3 129.456C140.291 120.202 131.135 114.335 121.848 116.351C112.562 118.367 106.663 127.503 108.671 136.756C110.68 146.01 119.837 151.877 129.123 149.861Z" fill="white"/>
<path d="M441.927 595.714C451.214 593.698 457.113 584.562 455.104 575.308C453.096 566.055 443.939 560.187 434.653 562.203C425.366 564.219 419.467 573.355 421.476 582.609C423.485 591.862 432.641 597.73 441.927 595.714Z" fill="white"/>
<path d="M217.922 87.8794C227.208 85.8635 233.108 76.7277 231.099 67.474C229.09 58.2204 219.934 52.353 210.647 54.3689C201.361 56.3849 195.461 65.5207 197.47 74.7743C199.479 84.028 208.636 89.8953 217.922 87.8794Z" fill="white"/>
<path d="M322.224 155.153L323.182 157.32L324.066 155.122L384.176 5.7058L387.766 166.55L387.819 168.923L389.48 167.228L502.333 52.0336L443.897 202.09L443.033 204.308L445.222 203.372L593.65 139.935L482.079 256.366L480.429 258.087L482.813 258.057L644.204 256.033L496.498 321.096L494.316 322.057L496.531 322.94L646.336 382.629L484.964 386.445L482.585 386.501L484.291 388.161L599.685 500.481L449.226 442.449L447.012 441.594L447.947 443.776L511.375 591.645L394.72 480.587L393.004 478.954L393.031 481.323L394.84 642.211L329.763 495.057L328.805 492.891L327.921 495.089L267.814 644.518L264.222 483.66L264.169 481.287L262.508 482.982L149.654 598.177L208.09 448.121L208.954 445.903L206.765 446.838L58.3507 510.273L169.908 393.845L171.558 392.123L169.174 392.153L7.78569 394.191L155.489 329.115L157.671 328.153L155.456 327.271L5.66505 267.578L167.023 263.765L169.402 263.709L167.697 262.049L52.3022 149.729L202.761 207.762L204.976 208.616L204.04 206.435L140.615 58.5794L257.267 169.623L258.983 171.256L258.956 168.888L257.161 7.99676L322.224 155.153ZM335.988 44.1516C337.879 52.8623 332.326 61.4681 323.576 63.3676C314.826 65.267 306.205 59.7383 304.314 51.0276C302.423 42.3169 307.976 33.711 316.726 31.8116C325.476 29.9121 334.097 35.4408 335.988 44.1516ZM348.276 599.052C350.167 607.763 344.614 616.368 335.864 618.268C327.114 620.167 318.493 614.639 316.602 605.928C314.711 597.217 320.264 588.611 329.014 586.712C337.763 584.812 346.385 590.341 348.276 599.052ZM445.283 63.6827C447.174 72.3934 441.621 80.9992 432.871 82.8987C424.121 84.7982 415.5 79.2694 413.609 70.5587C411.718 61.848 417.271 53.2422 426.021 51.3427C434.771 49.4432 443.392 54.972 445.283 63.6827ZM238.983 579.535C240.874 588.246 235.321 596.852 226.571 598.751C217.821 600.651 209.2 595.122 207.309 586.411C205.418 577.701 210.971 569.095 219.72 567.195C228.47 565.296 237.092 570.825 238.983 579.535ZM536.243 122.373C538.134 131.084 532.581 139.69 523.831 141.589C515.081 143.489 506.46 137.96 504.569 129.249C502.678 120.538 508.231 111.933 516.981 110.033C525.731 108.134 534.352 113.662 536.243 122.373ZM148.006 520.834C149.897 529.544 144.344 538.15 135.594 540.05C126.844 541.949 118.222 536.42 116.332 527.71C114.441 518.999 119.994 510.393 128.743 508.494C137.493 506.594 146.115 512.123 148.006 520.834ZM597.179 209.934C599.069 218.645 593.516 227.251 584.767 229.15C576.017 231.05 567.395 225.521 565.504 216.81C563.613 208.1 569.166 199.494 577.916 197.594C586.666 195.695 595.288 201.224 597.179 209.934ZM87.0887 433.283C88.9796 441.994 83.4266 450.6 74.6768 452.499C65.9269 454.399 57.3055 448.87 55.4145 440.159C53.5235 431.449 59.0766 422.843 67.8264 420.943C76.5762 419.044 85.1977 424.573 87.0887 433.283ZM620.421 312.652C622.312 321.362 616.759 329.968 608.009 331.868C599.259 333.767 590.638 328.238 588.747 319.528C586.856 310.817 592.409 302.211 601.159 300.312C609.908 298.412 618.53 303.941 620.421 312.652ZM63.8464 330.566C65.7373 339.277 60.1843 347.883 51.4345 349.782C42.6846 351.682 34.0632 346.153 32.1722 337.442C30.2812 328.731 35.8343 320.126 44.5841 318.226C53.3339 316.327 61.9554 321.855 63.8464 330.566ZM602.53 419.445C604.421 428.156 598.868 436.762 590.118 438.661C581.368 440.561 572.747 435.032 570.856 426.321C568.965 417.611 574.518 409.005 583.268 407.105C592.018 405.206 600.639 410.735 602.53 419.445ZM81.7203 223.776C83.6113 232.487 78.0582 241.093 69.3084 242.992C60.5586 244.892 51.9371 239.363 50.0461 230.652C48.1551 221.941 53.7082 213.336 62.458 211.436C71.2078 209.537 79.8293 215.065 81.7203 223.776ZM542.943 513.55C544.834 522.261 539.281 530.867 530.531 532.766C521.781 534.665 513.16 529.137 511.269 520.426C509.378 511.715 514.931 503.109 523.681 501.21C532.431 499.311 541.052 504.839 542.943 513.55ZM141.323 129.668C143.214 138.379 137.661 146.985 128.911 148.884C120.161 150.784 111.54 145.255 109.649 136.544C107.758 127.833 113.311 119.228 122.061 117.328C130.81 115.429 139.432 120.957 141.323 129.668ZM454.127 575.52C456.018 584.231 450.465 592.837 441.715 594.736C432.965 596.636 424.344 591.107 422.453 582.396C420.562 573.686 426.115 565.08 434.865 563.18C443.615 561.281 452.236 566.81 454.127 575.52ZM230.122 67.6862C232.013 76.3969 226.46 85.0027 217.71 86.9022C208.96 88.8016 200.338 83.2729 198.447 74.5622C196.557 65.8515 202.11 57.2456 210.859 55.3462C219.609 53.4467 228.231 58.9754 230.122 67.6862Z" stroke="#20409A" stroke-opacity="0.04" stroke-width="2"/>
</g>
</svg>
